<?xml version="1.0" encoding="UTF-8" standalone="no"?>
<!-- Created with Inkscape (http://www.inkscape.org/) -->

<svg
   xmlns:dc="http://purl.org/dc/elements/1.1/"
   xmlns:cc="http://creativecommons.org/ns#"
   xmlns:rdf="http://www.w3.org/1999/02/22-rdf-syntax-ns#"
   xmlns:svg="http://www.w3.org/2000/svg"
   xmlns="http://www.w3.org/2000/svg"
   xmlns:sodipodi="http://sodipodi.sourceforge.net/DTD/sodipodi-0.dtd"
   xmlns:inkscape="http://www.inkscape.org/namespaces/inkscape"
   width="1052.3622"
   height="744.09448"
   id="svg2"
   version="1.1"
   inkscape:version="0.91 r13725"
   sodipodi:docname="topo.svg">
  <defs
     id="defs4" />
  <sodipodi:namedview
     id="base"
     pagecolor="#ffffff"
     bordercolor="#666666"
     borderopacity="1.0"
     inkscape:pageopacity="0.0"
     inkscape:pageshadow="2"
     inkscape:zoom="0.8923598"
     inkscape:cx="525.06047"
     inkscape:cy="372.04724"
     inkscape:document-units="px"
     inkscape:current-layer="layer1"
     showgrid="false"
     inkscape:window-width="1440"
     inkscape:window-height="806"
     inkscape:window-x="0"
     inkscape:window-y="1"
     inkscape:window-maximized="1" />
  <metadata
     id="metadata7">
    <rdf:RDF>
      <cc:Work
         rdf:about="">
        <dc:format>image/svg+xml</dc:format>
        <dc:type
           rdf:resource="http://purl.org/dc/dcmitype/StillImage" />
        <dc:title />
      </cc:Work>
    </rdf:RDF>
  </metadata>
  <g
     inkscape:label="Layer 1"
     inkscape:groupmode="layer"
     id="layer1"
     transform="translate(0,-308.2677)">
    <g
       id="g4612"
       transform="translate(-11.221466,4.5390189)">
      <path
         d="m 973.38329,633.21838 c -2.7e-4,33.90571 -12.59378,62.8708 -37.78058,86.89533 -25.18725,24.02456 -55.50857,36.03683 -90.96402,36.03685 -35.45571,-2e-5 -65.77702,-12.01229 -90.96401,-36.03685 -25.18707,-24.02453 -37.78057,-52.98962 -37.78057,-86.89533 0,-33.90551 12.5935,-62.8706 37.78057,-86.89534 25.18699,-24.02435 55.5083,-36.03662 90.96401,-36.03685 35.45545,2.3e-4 65.77677,12.0125 90.96402,36.03685 25.1868,24.02474 37.78031,52.98983 37.78058,86.89534 m -89.51093,4.6499 c -1.6e-4,-10.46218 -3.87509,-19.37452 -11.62478,-26.737 -7.55628,-7.55599 -16.75923,-11.33405 -27.60889,-11.33418 -10.84994,1.3e-4 -20.14976,3.77819 -27.8995,11.33418 -7.55621,7.36248 -11.33427,16.27482 -11.33418,26.737 -9e-5,10.46243 3.77797,19.47162 11.33418,27.02765 7.74974,7.36244 17.04956,11.04362 27.8995,11.04356 10.84966,6e-5 20.05261,-3.68112 27.60889,-11.04356 7.74969,-7.55603 11.62462,-16.56522 11.62478,-27.02765"
         style="font-style:normal;font-variant:normal;font-weight:normal;font-stretch:normal;font-size:129.32608032px;line-height:125%;font-family:MinstrelPosterWHG;-inkscape-font-specification:MinstrelPosterWHG;text-align:start;letter-spacing:0px;word-spacing:0px;writing-mode:lr-tb;text-anchor:start;fill:#ffffff;fill-opacity:1;stroke:#333333;stroke-width:10;stroke-miterlimit:4;stroke-dasharray:none"
         id="path3462"
         inkscape:connector-curvature="0" />
      <path
         d="m 452.98898,637.21838 c -2.7e-4,33.90571 -12.59378,62.8708 -37.78058,86.89533 -25.18725,24.02456 -55.50857,36.03683 -90.964,36.03685 -35.45573,-2e-5 -65.77704,-12.01229 -90.96403,-36.03685 -25.18707,-24.02453 -37.78057,-52.98962 -37.78057,-86.89533 0,-33.90551 12.5935,-62.8706 37.78057,-86.89534 25.18699,-24.02435 55.5083,-36.03662 90.96403,-36.03685 35.45543,2.3e-4 65.77675,12.0125 90.964,36.03685 25.1868,24.02474 37.78031,52.98983 37.78058,86.89534 m -89.51091,4.6499 c -1.8e-4,-10.46218 -3.87511,-19.37452 -11.6248,-26.737 -7.55626,-7.55599 -16.75921,-11.33405 -27.60887,-11.33418 -10.84994,1.3e-4 -20.14976,3.77819 -27.89952,11.33418 -7.55621,7.36248 -11.33427,16.27482 -11.33418,26.737 -9e-5,10.46243 3.77797,19.47162 11.33418,27.02765 7.74976,7.36244 17.04958,11.04362 27.89952,11.04356 10.84966,6e-5 20.05261,-3.68112 27.60887,-11.04356 7.74969,-7.55603 11.62462,-16.56522 11.6248,-27.02765"
         style="font-style:normal;font-variant:normal;font-weight:normal;font-stretch:normal;font-size:129.32608032px;line-height:125%;font-family:MinstrelPosterWHG;-inkscape-font-specification:MinstrelPosterWHG;text-align:start;letter-spacing:0px;word-spacing:0px;writing-mode:lr-tb;text-anchor:start;fill:#ffffff;fill-opacity:1;stroke:#333333;stroke-width:10;stroke-miterlimit:4;stroke-dasharray:none"
         id="path3458"
         inkscape:connector-curvature="0" />
      <path
         d="m 191.85689,564.23951 -42.60216,5.9216 21.24574,152.84962 -76.568747,10.64288 -21.245743,-152.84962 -42.602161,5.9216 -9.562589,-68.79675 161.77307,-22.48608 9.56259,68.79675"
         style="font-style:normal;font-variant:normal;font-weight:normal;font-stretch:normal;font-size:129.32608032px;line-height:125%;font-family:MinstrelPosterWHG;-inkscape-font-specification:MinstrelPosterWHG;text-align:start;letter-spacing:0px;word-spacing:0px;writing-mode:lr-tb;text-anchor:start;fill:#ffffff;fill-opacity:1;stroke:#333333;stroke-width:10;stroke-miterlimit:4;stroke-dasharray:none"
         id="path3456"
         inkscape:connector-curvature="0" />
      <path
         inkscape:connector-curvature="0"
         id="path3421"
         d="m 714.10607,698.0843 -20.70484,-16.80094 8.01476,-19.34654 31.39121,-7.63678 38.07017,-0.25456 40.07382,12.21886 14.69378,14.5099 -20.03693,16.80093 -26.048,9.41873 -21.37274,3.30927 z"
         style="fill:#ffffff;stroke:#000000;stroke-width:3.63998246px;stroke-linecap:butt;stroke-linejoin:miter;stroke-opacity:1" />
      <path
         d="m 711.96933,574.29703 c -4.65126,29.47231 -18.9422,51.04855 -42.87287,64.72882 -22.44045,12.93484 -49.25786,16.94081 -80.45236,12.01799 l -32.43858,-5.11914 -5.30034,33.58686 -76.07284,-12.00506 34.92794,-221.32886 108.51142,17.1242 c 31.19446,4.92303 55.47496,16.99281 72.84159,36.20931 18.5548,20.38517 25.50681,45.31377 20.85604,74.78588 m -82.67538,-13.047 c 1.17772,-7.46365 -0.58044,-13.72347 -5.27443,-18.77957 -4.69431,-5.05583 -10.96463,-8.20293 -18.81101,-9.44131 l -30.42913,-4.80203 -7.52015,47.65318 30.42914,4.80201 c 7.84636,1.23833 14.78112,0.17512 20.80428,-3.18963 6.02287,-3.3646 9.6233,-8.77881 10.8013,-16.24265"
         style="font-style:normal;font-variant:normal;font-weight:normal;font-stretch:normal;font-size:129.32608032px;line-height:125%;font-family:MinstrelPosterWHG;-inkscape-font-specification:MinstrelPosterWHG;text-align:start;letter-spacing:0px;word-spacing:0px;writing-mode:lr-tb;text-anchor:start;fill:#ffffff;fill-opacity:1;stroke:#333333;stroke-width:10;stroke-miterlimit:4;stroke-dasharray:none"
         id="path3460"
         inkscape:connector-curvature="0" />
      <path
         inkscape:connector-curvature="0"
         id="path3389"
         d="m 209.91999,687.64322 102.703,-16.21671 107.1045,-3.91438 145.25127,7.82878 148.18571,23.48624 93.89982,28.51905 60.15463,22.92705 32.27803,15.09831 7.33595,6.71037 10.27029,12.86152 -35.21243,15.09831 -74.82647,8.94715 -77.7608,-2.2368 -44.01555,-3.35516 -23.47497,-3.35519 -26.4093,12.86153 -83.62954,7.82875 -98.30138,-7.26956 -85.09676,-5.59197 -57.22023,-2.23678 -35.21242,3.91437 -60.15457,3.91438 -77.7608,-6.71037 -67.490518,-28.51902 0,-22.36787 19.073409,-30.19662 39.613989,-20.69027 73.35924,-14.53912 z"
         style="fill:#ffffff;stroke:#000000;stroke-width:3.63998246px;stroke-linecap:butt;stroke-linejoin:miter;stroke-opacity:1" />
      <g
         style="fill:#333333;stroke:none"
         id="layer2"
         inkscape:label="Layer1"
         transform="matrix(5.8960264,0,0,2.2471866,-235.50134,-1398.0655)">
        <g
           style="fill:#333333;stroke:none"
           id="g3175"
           transform="matrix(0.5,0,0,0.5,-1.7933,530.07)">
          <path
             style="fill:#333333;stroke:none"
             d="m 342.86,814.55 c -0.19788,-0.50082 0.65606,-1.3496 2.1583,-2.6791 1.5023,-1.3295 3.6655,-3.175 5.8365,-5.8324 1.7045,-2.1003 3.4081,-4.7557 4.6478,-7.9073 1.2397,-3.1516 2.0179,-6.8032 1.6814,-10.558 -0.24137,-3.0011 -1.1233,-6.1205 -2.7592,-8.8544 -1.5058,-2.5245 -3.673,-4.8085 -6.2892,-6.3464 -1.4374,-0.86101 -3.0619,-1.5057 -4.7775,-1.9031 -2.8708,-0.66509 -5.8662,-0.60939 -8.5158,0.13793 -2.3172,0.63165 -4.4793,1.8157 -6.3016,3.3061 -1.8224,1.4903 -3.304,3.2866 -4.3354,5.2 -1.2646,2.3032 -1.9249,4.8681 -2.1092,7.3224 -0.18427,2.4543 0.10781,4.7989 0.72297,6.8529 l 0,10e-6 c 0.65245,2.2234 1.6916,4.1613 2.7942,5.7677 1.1026,1.6064 2.2715,2.886 3.2928,3.9034 1.0214,1.0174 1.898,1.7788 2.481,2.3778 0.58308,0.599 0.87357,1.042 0.7585,1.3556 -0.11507,0.3136 -0.63416,0.48406 -1.5398,0.43253 -0.90569,-0.0515 -2.2008,-0.32992 -3.7672,-1.0055 -1.5665,-0.67563 -3.4073,-1.7548 -5.2593,-3.4141 -1.852,-1.6594 -3.7168,-3.905 -5.1504,-6.8264 -1.3161,-2.7093 -2.2182,-5.9386 -2.3729,-9.4834 -0.15473,-3.5448 0.44058,-7.406 2.0932,-11.162 1.3828,-3.1008 3.4513,-6.0244 6.1397,-8.4757 2.6883,-2.4512 5.9964,-4.4287 9.7536,-5.5975 4.3141,-1.3168 9.0319,-1.5015 13.587,-0.43497 2.7224,0.63735 5.3157,1.7037 7.6687,3.1445 4.1719,2.5843 7.3978,6.1957 9.5136,10.185 2.2811,4.311 3.27,8.9275 3.2485,13.251 l 0,10e-6 c -0.0602,5.4546 -1.6199,10.257 -3.7552,14.105 -2.1353,3.848 -4.8414,6.7504 -7.4403,8.793 -1.628,1.2836 -3.2102,2.2442 -4.642,2.954 -1.4318,0.70982 -2.7136,1.17 -3.7804,1.4509 -2.1336,0.56186 -3.3849,0.4416 -3.5828,-0.0592 z"
             id="path3786"
             inkscape:connector-curvature="0" />
          <path
             style="fill:#333333;fill-rule:evenodd;stroke:none"
             d="m 113.57,885.63 c 0.19627,0.13174 0.0651,0.72825 -0.31326,1.7681 -0.37833,1.0399 -1.0022,2.526 -1.7164,4.4749 -0.71418,1.9488 -1.5175,4.3642 -2.1996,7.2478 -0.6821,2.8837 -1.2422,6.2397 -1.4294,9.9947 -0.16302,3.3461 -0.0287,7.018 0.59637,10.881 0.62511,3.8627 1.7414,7.9176 3.5533,11.918 2.2315,4.9971 5.5252,9.9236 9.8649,14.418 4.3397,4.494 9.7272,8.5557 15.867,11.724 5.1997,2.6833 10.966,4.7262 17.139,6.0885 6.1731,1.3623 12.753,2.0441 19.491,2.0644 6.1046,0.0135 12.358,-0.54194 18.711,-1.5566 6.353,-1.0146 12.805,-2.4879 19.297,-4.2617 0.96131,-0.2638 1.9237,-0.53446 2.8873,-0.81148 12.04,-3.4615 23.671,-7.7144 35.047,-11.634 6.8368,-2.411 13.819,-4.6813 20.826,-6.1768 7.0069,-1.4956 14.037,-2.2151 20.966,-1.7632 7.7236,0.54027 15.125,2.7777 21.329,6.5571 l 10e-6,10e-6 c 3.4671,2.1114 6.4977,4.7389 8.9658,7.6777 2.468,2.9387 4.3739,6.1886 5.6615,9.5778 1.6734,4.4275 2.1744,9.0719 1.5713,13.371 -0.34312,2.438 -1.0692,4.7348 -2.0799,6.7964 -1.0107,2.0617 -2.3061,3.8886 -3.7963,5.4294 -1.7962,1.8513 -3.8641,3.2202 -5.9697,4.1341 -2.1056,0.91392 -4.2498,1.3738 -6.282,1.4548 -2.8568,0.10544 -5.3893,-0.57822 -7.4045,-1.5709 -2.0152,-0.99267 -3.5228,-2.2954 -4.5799,-3.5747 -1.4245,-1.7405 -2.0193,-3.3612 -2.2623,-4.4586 -0.24299,-1.0974 -0.14924,-1.6957 0.0715,-1.7618 0.22076,-0.0661 0.56681,0.39631 1.171,1.2114 0.60414,0.81509 1.4898,2.002 2.9115,3.1355 1.0379,0.83613 2.3876,1.6229 4.046,2.1364 1.6584,0.51344 3.6354,0.75438 5.6692,0.44383 1.4657,-0.21651 2.9832,-0.73068 4.442,-1.5573 1.4588,-0.82659 2.8597,-1.9665 4.0217,-3.3741 0.97982,-1.1802 1.7991,-2.5777 2.4096,-4.1353 0.61051,-1.5576 1.0123,-3.2754 1.1538,-5.0539 0.25467,-3.1633 -0.38168,-6.6209 -1.8145,-9.9264 -1.0932,-2.5381 -2.7049,-4.963 -4.7559,-7.1553 -2.051,-2.1922 -4.5416,-4.152 -7.3235,-5.7292 l -10e-6,0 c -5.0254,-2.8493 -11.178,-4.4066 -17.692,-4.7239 -5.8774,-0.31933 -11.993,0.49486 -18.335,2.0431 -6.3421,1.5483 -12.911,3.8292 -19.678,6.2062 -11.244,4.0422 -23.014,8.4237 -35.525,12.028 -1.0012,0.28846 -2.0032,0.57058 -3.0059,0.84587 -6.7776,1.8682 -13.614,3.3911 -20.429,4.4125 -6.815,1.0214 -13.608,1.5407 -20.303,1.4519 -7.4072,-0.0927 -14.682,-0.99831 -21.542,-2.6992 -6.8599,-1.7009 -13.305,-4.1968 -19.141,-7.4034 -6.9344,-3.8087 -12.893,-8.6928 -17.613,-14.069 -4.7197,-5.3763 -8.2026,-11.244 -10.473,-17.128 -1.8148,-4.7652 -2.7791,-9.4652 -3.1612,-13.858 -0.3821,-4.3928 -0.18258,-8.4802 0.35304,-12.137 0.59684,-4.1047 1.6173,-7.677 2.7607,-10.666 1.1434,-2.9894 2.4088,-5.4002 3.564,-7.2633 1.1552,-1.8631 2.1994,-3.1824 2.981,-4.0095 0.78163,-0.82711 1.2999,-1.1649 1.4962,-1.0332 z"
             id="path3798"
             inkscape:connector-curvature="0" />
          <path
             style="fill:#333333;fill-rule:evenodd;stroke:none"
             d="m 187.14,900.93 c 0.0182,-0.64146 1.793,-1.2155 5.0306,-1.6404 3.2376,-0.42498 7.9387,-0.69553 13.783,-0.65341 5.8444,0.0421 12.832,0.40134 20.609,1.2386 7.7764,0.83724 16.341,2.1558 25.307,4.0614 l 1e-5,0 c 2.6992,0.547 5.4146,1.1506 8.1285,1.7386 4.7557,1.0303 9.2844,1.95 13.553,2.4273 4.2684,0.47731 8.2774,0.50969 12.03,-0.0696 2.8542,-0.41571 5.5613,-1.1197 7.9845,-2.0856 2.4232,-0.96591 4.5626,-2.1939 6.3644,-3.6308 2.4106,-1.9176 4.2966,-4.2081 5.5961,-6.4584 1.2994,-2.2502 2.0191,-4.466 2.3566,-6.4386 0.44019,-2.4421 0.3601,-4.5095 0.32647,-5.9685 -0.0336,-1.459 -0.009,-2.344 0.38612,-2.5206 0.3949,-0.17658 1.1507,0.37127 2.0068,1.7776 0.85604,1.4064 1.8095,3.7051 2.0563,6.8761 0.18096,2.5701 -0.1339,5.6457 -1.3051,8.8929 -1.1712,3.2471 -3.2089,6.6684 -6.2504,9.6252 -2.2307,2.1684 -4.9069,4.0968 -7.9452,5.6457 -3.0383,1.5489 -6.4388,2.7176 -10.028,3.3969 l -1e-5,0 c -4.6682,0.85161 -9.5306,1.0265 -14.452,0.67701 -4.9219,-0.34948 -9.9018,-1.221 -14.819,-2.2922 -2.8062,-0.61132 -5.5183,-1.2666 -8.1283,-1.8911 -8.6772,-1.9872 -16.93,-3.6282 -24.428,-4.9882 -7.4985,-1.3599 -14.242,-2.4415 -19.901,-3.3568 -5.6582,-0.91529 -10.231,-1.6684 -13.386,-2.3686 -3.1548,-0.70026 -4.8923,-1.3532 -4.874,-1.9946 z"
             id="path3810"
             inkscape:connector-curvature="0" />
          <path
             style="fill:#333333;stroke:none"
             d="m 391.43,870.93 c -0.29046,0.18454 -1.5457,-1.2072 -3.7728,-3.9264 -2.2271,-2.7192 -5.4343,-6.7645 -9.7878,-11.756 -4.3535,-4.9914 -9.8618,-10.929 -16.722,-17.311 -6.8598,-6.3822 -15.078,-13.209 -24.765,-19.859 -1e-5,-10e-6 -1e-5,-10e-6 -2e-5,-10e-6 -9.0079,-6.182 -19.295,-12.215 -30.817,-17.517 -11.522,-5.3028 -24.279,-9.8741 -38.06,-13.068 -15.829,-3.654 -33.11,-5.528 -50.862,-4.6355 -17.752,0.89255 -35.966,4.5576 -53.255,11.959 -0.40054,0.17304 -0.80069,0.34808 -1.2004,0.52514 -8.6986,3.8535 -16.945,8.5676 -24.114,14.157 -7.1695,5.5898 -13.261,12.056 -17.791,19.381 -4.94,7.9078 -8.1025,16.688 -8.9164,25.407 -0.85973,9.1794 0.79613,18.368 4.7497,25.971 2.3979,4.6742 5.6764,8.7979 9.4514,12.232 3.775,3.4344 8.0466,6.1793 12.501,8.151 l 2e-5,0 c 4.9896,2.2149 10.245,3.4768 15.419,3.9527 5.1736,0.47589 10.266,0.16581 15.034,-0.76666 4.0402,-0.80429 7.8668,-2.0429 11.341,-3.6444 3.4742,-1.6014 6.5963,-3.5656 9.2942,-5.814 3.2605,-2.7155 5.9278,-5.8484 7.9362,-9.0848 2.0084,-3.2364 3.36,-6.5778 4.1149,-9.8195 1.1192,-4.6963 0.96275,-9.1724 0.29056,-12.964 -0.67219,-3.7912 -1.8627,-6.9173 -3.0299,-9.35 -1.1672,-2.4326 -2.3122,-4.19 -3.081,-5.3934 -0.76883,-1.2034 -1.1602,-1.8657 -1.0059,-2.0202 0.15432,-0.15451 0.85227,0.20372 1.977,1.1745 1.1247,0.97074 2.6775,2.5663 4.3006,4.9772 1.6231,2.4109 3.3191,5.6551 4.4589,9.7838 1.1398,4.1287 1.7261,9.1616 0.81793,14.726 -0.63738,3.8048 -1.9503,7.7729 -4.048,11.652 -2.0977,3.8793 -4.9823,7.6711 -8.6465,10.999 -3.0174,2.7392 -6.5141,5.1715 -10.415,7.1831 -3.9012,2.0116 -8.2072,3.6021 -12.776,4.6606 -5.3877,1.2653 -11.186,1.8186 -17.152,1.4476 -5.9666,-0.37101 -12.102,-1.6666 -18.058,-4.1032 l -1e-5,0 c -5.3271,-2.1853 -10.448,-5.297 -15.02,-9.2856 -4.5714,-3.9886 -8.5928,-8.8542 -11.65,-14.489 -4.9332,-9.1918 -7.1398,-20.079 -6.218,-31.009 0.87497,-10.343 4.3915,-20.594 10.036,-29.725 5.2339,-8.3938 12.046,-15.761 19.935,-22.035 7.8889,-6.2738 16.853,-11.454 26.249,-15.522 0.43176,-0.18692 0.86391,-0.37129 1.2964,-0.55312 18.549,-7.8659 37.942,-11.704 56.719,-12.514 18.777,-0.81027 36.93,1.3988 53.449,5.5519 14.386,3.6037 27.608,8.6682 39.455,14.502 11.847,5.8338 22.322,12.435 31.393,19.182 l 1e-5,10e-6 c 9.7571,7.2541 17.903,14.681 24.574,21.624 6.6716,6.9436 11.877,13.404 15.844,18.869 3.9677,5.4654 6.7066,9.936 8.4161,13.049 1.7096,3.1125 2.398,4.866 2.1075,5.0506 z"
             id="path3834"
             inkscape:connector-curvature="0" />
          <path
             style="fill:#333333;fill-rule:evenodd;stroke:none"
             d="m 316.43,835.75 c -0.31358,-0.0657 -0.52978,-0.52099 -0.71473,-1.2967 -0.18495,-0.7757 -0.34207,-1.8747 -0.60249,-3.2343 -0.26042,-1.3596 -0.62674,-2.9837 -1.2496,-4.7627 -0.62288,-1.779 -1.504,-3.7164 -2.7814,-5.598 l -10e-6,0 c -1.1707,-1.7348 -2.696,-3.4442 -4.5734,-4.9403 -1.8775,-1.496 -4.1078,-2.7793 -6.5805,-3.586 -3.5392,-1.1615 -7.7179,-1.4115 -11.61,-0.28601 -3.5353,1.0097 -6.9917,3.1918 -9.3651,6.2444 -0.52375,0.66146 -1.0023,1.3726 -1.4317,2.1241 -1.1867,2.0767 -1.9596,4.3918 -2.3119,6.707 -0.51346,3.3428 -0.11907,6.7946 0.88144,9.9012 1.1245,3.5324 3.1541,6.654 5.5263,9.155 2.3722,2.501 5.0872,4.3809 7.7695,5.648 l 10e-6,0 c 2.5461,1.2096 5.0979,1.9049 7.4076,2.2999 2.3098,0.395 4.3819,0.49109 6.1051,0.5015 1.7232,0.0104 3.1032,-0.0622 4.0883,-0.0355 0.98508,0.0267 1.5801,0.15684 1.7122,0.4913 0.13208,0.33446 -0.20755,0.85949 -1.047,1.4967 -0.83941,0.63721 -2.1837,1.3844 -4.0513,2.0283 -1.8676,0.64386 -4.2643,1.1815 -7.1148,1.3023 -2.8504,0.12079 -6.159,-0.17869 -9.6773,-1.2587 -3.7203,-1.1502 -7.6057,-3.1852 -11.099,-6.2512 -3.493,-3.066 -6.5899,-7.1666 -8.5337,-12.176 -1.6814,-4.3594 -2.4242,-9.3401 -1.7852,-14.443 0.44796,-3.5492 1.5951,-7.0889 3.458,-10.335 0.67412,-1.1747 1.4338,-2.297 2.2725,-3.3563 3.8929,-4.8614 9.2468,-8.0495 14.8,-9.3736 3.0512,-0.7205 6.1032,-0.88697 9.0049,-0.60377 2.9017,0.28321 5.6529,1.0157 8.1482,2.0854 3.4918,1.5015 6.4138,3.623 8.7198,5.9815 2.306,2.3585 3.998,4.9532 5.1496,7.4939 1.2454,2.7632 1.8418,5.4147 2.0567,7.7315 0.21487,2.3167 0.051,4.3021 -0.25602,5.8715 -0.30698,1.5694 -0.75459,2.727 -1.1788,3.4685 -0.42418,0.74154 -0.82315,1.0704 -1.1367,1.0048 z"
             id="path3840"
             inkscape:connector-curvature="0" />
          <path
             style="fill:#333333;fill-rule:evenodd;stroke:none"
             inkscape:transform-center-x="-255.56859"
             inkscape:transform-center-y="-125.25892"
             d="m 350.32,852.8 c 0.38692,-0.41525 0.97294,-0.66095 1.7592,-0.45162 0.78624,0.20933 1.7816,0.89408 2.391,2.3226 0.54272,1.297 0.70843,3.1076 -0.16344,5.0142 -0.52662,1.1274 -1.3649,2.1908 -2.5345,2.9962 l 0,10e-6 c -1.0613,0.72733 -2.3174,1.2296 -3.6939,1.3882 -2.3495,0.25988 -4.8245,-0.42338 -6.801,-2.1907 -0.19851,-0.18241 -0.38822,-0.37246 -0.56858,-0.56971 -1.5625,-1.7089 -2.3134,-3.8586 -2.292,-6.01 0.0624,-2.6797 1.3099,-4.8543 2.99,-6.2402 1.2086,-0.82349 2.4668,-1.2725 3.6272,-1.4506 1.1604,-0.17809 2.2226,-0.0872 3.099,0.15261 0.90784,0.76617 1.5301,1.5024 1.86,2.1825 0.32987,0.68008 0.36784,1.3041 0.15133,1.8542 -0.21651,0.55014 -0.66351,0.98328 -1.2238,1.313 -0.56031,0.32975 -1.2334,0.55621 -1.9464,0.68451 -0.14719,0.471 -0.003,1.0444 0.58273,1.2723 0.21101,0.11773 0.43318,0.20517 0.56342,-0.0385 0.0758,-0.19492 0.10363,-0.31123 -0.0377,-0.46683 -0.0163,-0.018 -0.0346,-0.0365 -0.055,-0.0558 -0.22473,-0.16349 -0.33927,-0.0956 -0.52392,0.0337 -0.0856,0.0808 -0.11669,0.20855 -0.13751,0.34766 -0.0251,0.15835 0.0544,0.31957 0.15975,0.45915 0.17996,0.26257 0.58958,0.24119 0.94821,0.0822 0.40637,-0.17667 0.73031,-0.65551 0.99229,-1.1589 0.26198,-0.50341 0.46669,-1.0549 0.85361,-1.4702 z"
             id="path3909"
             inkscape:connector-curvature="0" />
          <g
             id="g4062"
             style="fill:#333333;stroke:none"
             transform="matrix(0.73826,-0.57153,0.7273,0.87961,-637.19,489.21)">
            <g
               id="g4107"
               style="fill:#333333;stroke:none">
              <path
                 id="path4041"
                 d="m 384.08,724.76 c 2.7535,-0.18993 4.5674,4.6067 4.9881,10.707 0.42081,6.1001 -2.2347,11.205 -4.9881,11.395 -2.7535,0.18993 -4.5674,-4.6067 -4.9882,-10.707 -0.4208,-6.1001 2.2347,-11.205 4.9882,-11.395 z"
                 sodipodi:nodetypes="sssss"
                 style="fill:#333333;stroke:none"
                 inkscape:connector-curvature="0" />
              <path
                 id="path4053"
                 d="m 401.19,724.09 c 2.7535,-0.18993 4.5674,4.6067 4.9882,10.707 0.4208,6.1001 -2.2347,11.205 -4.9882,11.395 -2.7535,0.18993 -4.5674,-4.6067 -4.9881,-10.707 -0.42081,-6.1001 2.2347,-11.205 4.9881,-11.395 z"
                 sodipodi:nodetypes="sssss"
                 style="fill:#333333;stroke:none"
                 inkscape:connector-curvature="0" />
              <path
                 id="path4047"
                 d="m 392.64,724.4 c 2.7535,-0.18993 4.5674,4.6067 4.9881,10.707 0.42081,6.1001 -2.2347,11.205 -4.9881,11.395 -2.7535,0.18993 -4.5674,-4.6067 -4.9881,-10.707 -0.42081,-6.1001 2.2347,-11.205 4.9881,-11.395 z"
                 sodipodi:nodetypes="sssss"
                 style="fill:#333333;stroke:none"
                 inkscape:connector-curvature="0" />
            </g>
          </g>
          <g
             id="g4067"
             style="fill:#333333;stroke:none"
             transform="matrix(0.73826,-0.57153,0.7273,0.87961,-518.87,494.07)">
            <path
               id="path4069"
               d="m 384.08,724.76 c 2.7535,-0.18993 4.5674,4.6067 4.9881,10.707 0.42081,6.1001 -2.2347,11.205 -4.9881,11.395 -2.7535,0.18993 -4.5674,-4.6067 -4.9882,-10.707 -0.4208,-6.1001 2.2347,-11.205 4.9882,-11.395 z"
               sodipodi:nodetypes="sssss"
               style="fill:#333333;fill-rule:evenodd;stroke:none"
               inkscape:connector-curvature="0" />
            <path
               id="path4071"
               d="m 401.19,724.09 c 2.7535,-0.18993 4.5674,4.6067 4.9882,10.707 0.4208,6.1001 -2.2347,11.205 -4.9882,11.395 -2.7535,0.18993 -4.5674,-4.6067 -4.9881,-10.707 -0.42081,-6.1001 2.2347,-11.205 4.9881,-11.395 z"
               sodipodi:nodetypes="sssss"
               style="fill:#333333;fill-rule:evenodd;stroke:none"
               inkscape:connector-curvature="0" />
            <path
               id="path4073"
               d="m 392.64,724.4 c 2.7535,-0.18993 4.5674,4.6067 4.9881,10.707 0.42081,6.1001 -2.2347,11.205 -4.9881,11.395 -2.7535,0.18993 -4.5674,-4.6067 -4.9881,-10.707 -0.42081,-6.1001 2.2347,-11.205 4.9881,-11.395 z"
               sodipodi:nodetypes="sssss"
               style="fill:#333333;fill-rule:evenodd;stroke:none"
               inkscape:connector-curvature="0" />
          </g>
          <g
             id="g4368"
             style="fill:#333333;stroke:none"
             transform="translate(185,106.43)">
            <path
               style="fill:#333333;fill-rule:evenodd;stroke:none"
               d="m 248.29,732.6 -38.382,34.089 -1.9062,-0.97886"
               id="path4325"
               inkscape:connector-curvature="0" />
            <path
               style="fill:#333333;fill-rule:evenodd;stroke:none"
               d="m 253.94,743.75 -44.013,26.421 -1.6929,-1.3138"
               id="path4331"
               inkscape:connector-curvature="0" />
            <path
               style="fill:#333333;fill-rule:evenodd;stroke:none"
               d="m 258.01,754.28 -47.884,18.502 -1.4432,-1.584"
               id="path4337"
               inkscape:connector-curvature="0" />
          </g>
          <g
             id="g4373"
             style="fill:#333333;stroke:none"
             transform="matrix(-0.95055,0.31058,-0.31058,-0.95055,811.95,1561.1)">
            <path
               style="fill:#333333;fill-rule:evenodd;stroke:none"
               d="m 248.29,732.6 -38.382,34.089 -1.9062,-0.97886"
               id="path4375"
               inkscape:connector-curvature="0" />
            <path
               style="fill:#333333;fill-rule:evenodd;stroke:none"
               d="m 253.94,743.75 -44.013,26.421 -1.6929,-1.3138"
               id="path4377"
               inkscape:connector-curvature="0" />
            <path
               style="fill:#333333;fill-rule:evenodd;stroke:none"
               d="m 258.01,754.28 -47.884,18.502 -1.4432,-1.584"
               id="path4379"
               inkscape:connector-curvature="0" />
          </g>
          <path
             style="fill:#333333;fill-rule:evenodd;stroke:none"
             d="m 357.41,876.26 c 0.64514,-0.0859 1.3559,0.9334 2.404,2.5651 1.0481,1.6318 2.4827,3.9077 4.7052,6.0823 1.0237,1.0041 2.2212,1.9891 3.5914,2.8682 1.3701,0.87909 2.9131,1.6526 4.5874,2.2121 2.5557,0.82385 5.4222,1.2352 8.0106,0.63544 2.2129,-0.50843 4.451,-1.659 5.7631,-3.3516 0.0533,-0.0688 0.10498,-0.13835 0.15488,-0.20862 0.65919,-0.87839 1.1411,-1.8725 1.3588,-2.8456 0.22798,-1.0032 0.23775,-2.0566 0.0127,-2.9644 -0.22927,-0.94761 -0.6961,-1.8552 -1.3015,-2.5096 -0.6346,-0.69758 -1.4873,-1.2425 -2.3243,-1.4836 -0.85278,-0.26378 -1.8395,-0.26758 -2.6969,-0.0522 -0.9652,0.23494 -1.8883,0.7892 -2.5743,1.4656 -0.8241,0.80332 -1.3858,1.8698 -1.6746,2.884 -0.20706,0.71898 -0.28463,1.449 -0.29145,2.122 -0.007,0.673 0.0573,1.2908 0.1346,1.8327 0.31332,1.5172 0.25661,2.4696 -0.21851,2.7474 -0.47512,0.27783 -1.3328,-0.13963 -2.4989,-1.1524 -0.55025,-0.52321 -1.1257,-1.2481 -1.6097,-2.2031 -0.48398,-0.95501 -0.87635,-2.1421 -1.0082,-3.5416 -0.18269,-1.9772 0.16387,-4.3318 1.4678,-6.6165 1.0973,-1.9114 2.8263,-3.685 5.185,-4.8534 2.1042,-1.035 4.6072,-1.5351 7.2431,-1.2056 2.5698,0.3382 5.0965,1.4225 7.1885,3.2619 1.9495,1.7228 3.4537,3.9791 4.266,6.5733 0.76643,2.4637 0.92513,5.1133 0.41057,7.7024 -0.49751,2.4868 -1.5524,4.8436 -3.0969,6.8752 -0.12445,0.15997 -0.25123,0.31769 -0.38029,0.47312 -3.1748,3.8236 -7.5268,6.0179 -11.857,6.6375 -4.9121,0.69346 -9.4518,-0.32441 -13.084,-2.1096 -2.3793,-1.1496 -4.4189,-2.6007 -6.103,-4.1719 -1.6841,-1.5711 -3.0136,-3.2616 -4.0243,-4.9221 l 0,-10e-6 c -1.0941,-1.8013 -1.806,-3.5504 -2.249,-5.1155 -0.44305,-1.5651 -0.61893,-2.947 -0.63753,-4.0748 -0.0186,-1.1278 0.11853,-2.0026 0.32946,-2.5988 0.21093,-0.59617 0.49451,-0.9147 0.81708,-0.95764 z"
             id="path3169"
             inkscape:connector-curvature="0" />
          <path
             style="fill:#333333;fill-rule:evenodd;stroke:none"
             d="m 309.46,895.37 c 0.26328,-0.50918 1.1605,-0.65636 2.5692,-0.54536 1.4087,0.111 3.3313,0.47694 5.6825,0.95014 4.7023,0.9464 11.143,2.2961 18.588,2.8951 3.0343,0.25482 6.2425,0.38162 9.5826,0.3767 8.7624,-0.0129 16.984,-0.87156 23.456,-1.371 4.0529,-0.32157 7.411,-0.52161 9.8135,-0.44669 2.4025,0.0749 3.8512,0.43037 4.0494,1.1716 0.19826,0.74124 -0.87891,1.7922 -3.019,2.9915 -2.14009,1.1993 -5.3457,2.5414 -9.382,3.7943 -3.2232,1.0076 -7.0005,1.9616 -11.204,2.6715 -4.2038,0.70998 -8.8356,1.1725 -13.708,1.1711 -3.7149,-0.001 -7.3291,-0.27553 -10.739,-0.79634 -4.1853,-0.65235 -8.0093,-1.6819 -11.325,-2.8844 -3.3159,-1.2025 -6.1246,-2.575 -8.3461,-3.9041 -2.2216,-1.3291 -3.8584,-2.612 -4.8723,-3.6717 -1.014,-1.0596 -1.4081,-1.8932 -1.1448,-2.4024 z"
             id="path3176"
             inkscape:connector-curvature="0" />
        </g>
      </g>
    </g>
  </g>
</svg>
