<?xml version="1.0" encoding="UTF-8" standalone="no"?>
<!-- Created with Inkscape (http://www.inkscape.org/) -->

<svg
   xmlns:dc="http://purl.org/dc/elements/1.1/"
   xmlns:cc="http://creativecommons.org/ns#"
   xmlns:rdf="http://www.w3.org/1999/02/22-rdf-syntax-ns#"
   xmlns:svg="http://www.w3.org/2000/svg"
   xmlns="http://www.w3.org/2000/svg"
   xmlns:sodipodi="http://sodipodi.sourceforge.net/DTD/sodipodi-0.dtd"
   xmlns:inkscape="http://www.inkscape.org/namespaces/inkscape"
   width="1052.3622"
   height="744.09448"
   id="svg2"
   version="1.1"
   inkscape:version="0.48+devel r9772"
   sodipodi:docname="New document 1">
  <defs
     id="defs4" />
  <sodipodi:namedview
     id="base"
     pagecolor="#ffffff"
     bordercolor="#666666"
     borderopacity="1.0"
     inkscape:pageopacity="0.0"
     inkscape:pageshadow="2"
     inkscape:zoom="0.85069842"
     inkscape:cx="526.18109"
     inkscape:cy="372.04724"
     inkscape:document-units="px"
     inkscape:current-layer="layer1"
     showgrid="false"
     inkscape:window-width="1440"
     inkscape:window-height="851"
     inkscape:window-x="0"
     inkscape:window-y="1"
     inkscape:window-maximized="1" />
  <metadata
     id="metadata7">
    <rdf:RDF>
      <cc:Work
         rdf:about="">
        <dc:format>image/svg+xml</dc:format>
        <dc:type
           rdf:resource="http://purl.org/dc/dcmitype/StillImage" />
        <dc:title></dc:title>
      </cc:Work>
    </rdf:RDF>
  </metadata>
  <g
     inkscape:label="Layer 1"
     inkscape:groupmode="layer"
     id="layer1"
     transform="translate(0,-308.2677)">
    <g
       id="g3266"
       transform="translate(0.0020769,-3.4053338)">
      <g
         transform="translate(0,-54)"
         style="fill:#000000"
         id="g3242">
        <path
           style="fill:#000000"
           d="m 245.75,102.84375 -32.65625,8.46875 c -18.34766,4.76047 -39.32678,16.00389 -47.90625,25.65625 -1.95819,2.20295 -3.7439,4.45556 -5.34375,6.6875 1.49426,3.41356 4.44258,4.31356 7.0548,6.60916 0.49941,-3.80645 1.82662,-0.98551 7.47645,3.70334 5.20468,4.31952 9.46875,16.96133 9.46875,28.09375 0,24.74187 -19.12889,100.68027 -28.09375,111.53125 -3.58512,4.33879 -5.58825,27.19781 -4.46875,50.8125 1.85635,39.16983 3.63759,43.71098 20.53125,51.78125 10.18477,4.86543 33.858,10.65608 52.59375,12.875 28.68374,3.39712 34.0625,2.27168 34.0625,-7.09375 0,-7.29917 5.74082,-11.125 16.71875,-11.125 14.95115,0 17.22793,-3.58667 21.25,-33.90625 C 298.91263,338.2791 304.05037,323 307.875,323 c 4.60965,0 5.47181,27.81594 2.53125,82.5 -2.43916,45.36605 -4.4375,97.3656 -4.4375,115.5625 0,28.61182 -3.13955,36.20212 -23.1875,56.25 -27.49774,27.49734 -36.53966,50.16978 -23.34375,58.53125 11.57296,7.33316 11.03875,7.36986 41.0625,-0.96875 15.66899,-4.35189 26.71689,-12.28909 29.53125,-21.15625 2.47513,-7.79779 13.77933,-27.34099 25.125,-43.4375 15.59368,-22.12296 21.6527,-39.61642 24.75,-71.6875 L 384,456.15625 l 33.90625,-11.75 33.9375,-11.78125 -0.28125,-92.125 c -0.16148,-50.67345 1.98995,-92.125 4.78125,-92.125 8.6419,0 12.50457,41.10786 10.75,114.125 l -1.6875,70 40.71875,-4.625 c 22.39009,-2.54548 40.92289,-5.04889 41.1875,-5.5625 0.26868,-0.51328 -0.82338,-35.26859 -2.4375,-77.25 -2.77501,-72.18938 -3.74023,-76.37618 -17.46875,-77.25 -14.01755,-0.89235 -13.96228,-1.03539 0.78125,-3.875 10.68483,-2.05806 15.25,-7.73723 15.25,-18.9375 0,-14.3241 -3.94352,-16.51057 -37.625,-20.71875 -20.69455,-2.58545 -39.49611,-2.81606 -41.78125,-0.53125 -2.28447,2.28473 -7.67939,1.21094 -12,-2.375 -4.32061,-3.58595 -24.95448,-8.51364 -45.84375,-10.96875 -36.1851,-4.25289 -38.12189,-3.71237 -41.03125,11.65625 -2.88628,15.24813 -3.12611,15.14218 -4,-2.0625 -0.58146,-11.45497 -5.74815,-19.74447 -13.9375,-22.34375 -7.15736,-2.27151 -32.9174,-24.53161 -57.25,-49.46875 z m 767.625,45.5625 c -1.8796,0.029 -4.2187,0.60769 -6.875,1.71875 -39.8829,16.68062 -95.89159,30.49265 -126.125,31.125 -19.25887,0.40275 -54.86907,4.23815 -79.125,8.5 l -44.09375,7.75 -2.0625,32.21875 c -1.38479,21.57665 0.6176,32.21875 6.03125,32.21875 6.01751,0 6.86175,16.34154 3.375,63.84375 L 759.8125,389.625 785.625,408.5 c 14.19328,10.3928 34.48356,26.70898 45.09375,36.25 19.77452,17.78208 51.96875,73.97178 51.96875,90.71875 0,5.14768 -13.73868,21.84241 -30.53125,37.125 -28.46119,25.90167 -37.46174,46.53799 -25.5,58.5 4.24394,4.24367 42.39524,0.49078 46.03125,-4.53125 0.64728,-0.89404 11.56432,-21.43129 24.25,-45.625 21.96265,-41.89016 22.99913,-47.08013 21.78125,-108.71875 -0.70359,-35.5995 -4.49752,-73.19901 -8.4375,-83.5625 -7.01692,-18.4552 -7.98645,-18.74045 -47.125,-14.3125 -35.15244,3.97716 -41.70696,2.79304 -54.375,-9.875 -12.95572,-12.95579 -13.97138,-19.34574 -10.15625,-63.5625 2.88222,-33.40032 7.79215,-51.94526 15.3125,-57.90625 6.08603,-4.82425 38.53851,-17.37595 72.125,-27.875 68.96215,-21.55765 132.3125,-51.5283 132.3125,-62.59375 0,-2.75805 -1.8673,-4.17326 -5,-4.125 z M 155.84375,149.875 c -8.05555,14.03657 -8.06076,25.74735 2.5625,22 4.66461,-1.64553 8.04279,-8.11528 7.5,-14.375 -0.076,-0.88127 -0.13229,-1.65101 -0.15625,-2.375 -2.90437,-2.74148 -6.31662,-4.22167 -9.90625,-5.25 z m -37.75,11.34375 c -8.96766,-0.17474 -23.174775,5.3125 -46.625,16.40625 -44.111867,20.86845 -48.62167,39.72161 -17.0625,71.28125 21.570476,21.57 38.244435,24.24393 72.96875,11.6875 23.68057,-8.56298 29.42068,-26.79813 16.15625,-51.3125 -3.50642,-6.47982 -8.15016,-20.17537 -10.3125,-30.4375 -2.44392,-11.59827 -6.15734,-17.45026 -15.125,-17.625 z m 622.8125,40.96875 c -0.90394,0.0444 -1.98719,0.33994 -3.21875,0.8125 -5.33427,2.04706 -28.32575,7.36438 -51.09375,11.84375 C 656.4879,220.76675 645.14926,226.0068 645,234 c -0.1798,9.58228 -1.09596,9.44564 -7.125,-0.90625 C 630.78345,220.91856 601.86535,217.57161 572.28125,225.5 557.34096,229.50376 557,231.68391 557,327.8125 l 0,98.25 35.625,-4.8125 c 19.59133,-2.63389 39.42915,-7.85417 44.09375,-11.625 5.73933,-4.63991 8.5,-28.32354 8.5,-73.25 0,-64.45985 0.42206,-66.27536 14.5,-62.59375 13.9056,3.63635 14.31869,6.36737 10.09375,66.46875 -4.81116,68.44643 -1.24929,75.5576 33.59375,66.8125 15.93496,-3.99995 16.4375,-6.02556 16.4375,-68.78125 0,-46.85262 2.58538,-66.72995 9.375,-72.1875 5.1538,-4.14305 11.35701,-20.88453 13.78125,-37.1875 3.02152,-20.32271 2.78755,-26.95846 -2.09375,-26.71875 z m -424.5,37.09375 c 1.72681,-0.21909 2.41581,6.31292 2.65625,20.96875 0.26189,15.85965 -2.58082,28.84375 -6.3125,28.84375 -8.131,0 -8.131,-25.20361 0,-44.125 1.55238,-3.61264 2.75173,-5.57274 3.65625,-5.6875 z M 842.8125,248.375 c -18.81514,0 -25.86614,12.75594 -29.59375,53.5 -2.73091,29.84864 -0.97633,38.89813 9.65625,49.53125 9.19622,9.19568 19.16072,12.04766 33.9375,9.71875 30.21848,-4.7625 33.9552,-11.53479 28.625,-51.71875 -5.04659,-38.03954 -21.1088,-61.03125 -42.625,-61.03125 z m -473.21875,20.34375 c 6.05753,0 11,4.38075 11,9.71875 0,5.338 6.88497,11.03901 15.28125,12.65625 13.08871,2.52106 12.59112,3.05155 -3.40625,3.84375 -18.29537,0.90619 -18.6355,1.75368 -18.34375,43.34375 0.16284,23.32301 2.96205,56.14493 6.25,72.9375 6.14234,31.3734 -0.65587,51.27876 -10,29.28125 -2.88086,-6.78128 -6.72444,-48.21524 -8.53125,-92.0625 -2.89918,-70.38026 -1.97273,-79.71875 7.75,-79.71875 z m 476.09375,9.96875 c 2.10094,-0.0341 2.91746,5.86366 2.96875,18.875 0.0577,13.99381 -2.95582,25.4375 -6.6875,25.4375 -8.64189,0 -8.64189,-27.31525 0,-40.6875 1.52872,-2.36569 2.76378,-3.60951 3.71875,-3.625 z m -244.46875,14.15625 c 0.40878,0.0371 0.88776,1.58956 1.375,4.8125 1.55712,10.31341 1.5163,25.59251 -0.0937,33.9375 -1.61073,8.34499 -2.91155,-0.0916 -2.84375,-18.75 0.035,-12.82765 0.66319,-20.08169 1.5625,-20 z"
           transform="translate(0,308.2677)"
           id="path3216"
           inkscape:connector-curvature="0"
           sodipodi:nodetypes="cccccssccssssssssssscscccccsccccsscsscsscccccscscccscccssscscscssccssscccccsscscssscsccsscccscscsccsscscssscscsssscccccsscscsscccs" />
      </g>
      <g
         id="text3245"
         style="font-size:87.00778198px;font-style:normal;font-variant:normal;font-weight:bold;font-stretch:normal;text-align:start;line-height:125%;letter-spacing:0px;word-spacing:0px;writing-mode:lr-tb;text-anchor:start;fill:#000000;fill-opacity:1;stroke:none;font-family:Arial;-inkscape-font-specification:Arial Bold">
        <path
           id="path3250"
           d="m 123.66388,946.94255 24.89578,0 c 4.92814,6e-5 8.59594,0.21248 11.00342,0.63726 2.43572,0.39658 4.60242,1.24627 6.5001,2.54906 1.9259,1.30291 3.52614,3.04476 4.80072,5.22556 1.27447,2.15259 1.91174,4.57419 1.91179,7.26481 -5e-5,2.9173 -0.79309,5.59381 -2.37912,8.02953 -1.55781,2.4358 -3.68202,4.26262 -6.37264,5.48047 3.79521,1.10463 6.71246,2.98809 8.75176,5.65041 2.03919,2.66237 3.05881,5.79204 3.05887,9.38902 -6e-5,2.8323 -0.66565,5.59378 -1.99676,8.28444 -1.30291,2.66239 -3.10141,4.80069 -5.3955,6.41509 -2.26588,1.5861 -5.06984,2.5632 -8.41189,2.9314 -2.09593,0.2266 -7.15155,0.3682 -15.16688,0.4249 l -21.19965,0 0,-62.28195 m 12.57534,10.36616 0,14.40217 8.24195,0 c 4.89982,4e-5 7.94452,-0.0708 9.13412,-0.21242 2.15249,-0.25487 3.8377,-0.99126 5.05562,-2.20919 1.24617,-1.24616 1.86927,-2.87472 1.86931,-4.88569 -4e-5,-1.9259 -0.53817,-3.48366 -1.6144,-4.67327 -1.04799,-1.21783 -2.6199,-1.95422 -4.71575,-2.20918 -1.24624,-0.14156 -4.82908,-0.21237 -10.74852,-0.21242 l -7.22233,0 m 0,24.76833 0,16.65383 11.64069,0 c 4.53162,10e-6 7.40639,-0.12744 8.62431,-0.38236 1.86926,-0.33986 3.38453,-1.16122 4.54581,-2.46408 1.18952,-1.33116 1.7843,-3.10134 1.78434,-5.31054 -4e-5,-1.86928 -0.45321,-3.45536 -1.35949,-4.75823 -0.90638,-1.30283 -2.22339,-2.25165 -3.95104,-2.84645 -1.69941,-0.59475 -5.4097,-0.89214 -11.13088,-0.89217 l -10.15374,0"
           inkscape:connector-curvature="0" />
        <path
           id="path3252"
           d="m 287.69564,1009.2245 -13.67994,0 -5.43798,-14.14727 -24.89578,0 -5.1406,14.14727 -13.34006,0 24.25852,-62.28195 13.29757,0 24.93827,62.28195 m -23.15393,-24.64089 -8.58182,-23.11144 -8.41189,23.11144 16.99371,0"
           inkscape:connector-curvature="0" />
        <path
           id="path3254"
           d="m 336.42509,988.95949 12.23547,-1.18956 c 0.73638,4.10683 2.22333,7.12321 4.46085,9.04915 2.26581,1.92596 5.31051,2.88894 9.13412,2.88893 4.05013,1e-5 7.09484,-0.84967 9.13412,-2.54905 2.06752,-1.72768 3.10131,-3.7386 3.10135,-6.03277 -4e-5,-1.47277 -0.43905,-2.71897 -1.31701,-3.73862 -0.84973,-1.04792 -2.35084,-1.95425 -4.50334,-2.71899 -1.47282,-0.50979 -4.82907,-1.41612 -10.06877,-2.71899 -6.74085,-1.67102 -11.47076,-3.72443 -14.18974,-6.16022 -3.8236,-3.42703 -5.73539,-7.60465 -5.73538,-12.53286 -10e-6,-3.17211 0.89216,-6.13185 2.67651,-8.87921 1.81265,-2.77558 4.40419,-4.88563 7.77462,-6.33016 3.39872,-1.4444 7.49137,-2.16663 12.27795,-2.1667 7.81707,7e-5 13.69406,1.7136 17.63097,5.1406 3.96515,3.42712 6.04688,8.00125 6.24519,13.72242 l -12.57534,0.55229 c -0.53817,-3.20043 -1.69941,-5.49458 -3.48371,-6.88245 -1.75605,-1.41609 -4.40424,-2.12416 -7.94456,-2.12421 -3.65367,5e-5 -6.51428,0.75061 -8.58182,2.25166 -1.33119,0.96303 -1.99678,2.25172 -1.99676,3.86607 -2e-5,1.47284 0.62308,2.7332 1.86931,3.7811 1.58605,1.33122 5.43796,2.71904 11.55572,4.16346 6.11769,1.4445 10.63518,2.94561 13.55248,4.50333 2.94553,1.52947 5.23968,3.63952 6.88245,6.33016 1.67099,2.66237 2.50652,5.96198 2.50657,9.89883 -5e-5,3.5687 -0.99135,6.91079 -2.9739,10.0263 -1.98265,3.1155 -4.7866,5.438 -8.41188,6.9674 -3.62537,1.5011 -8.14285,2.2517 -13.55248,2.2517 -7.87378,0 -13.9207,-1.8127 -18.14079,-5.438 -4.22011,-3.6536 -6.74084,-8.96418 -7.5622,-15.93161"
           inkscape:connector-curvature="0" />
        <path
           id="path3256"
           d="m 442.80571,988.95949 12.23547,-1.18956 c 0.73638,4.10683 2.22332,7.12321 4.46085,9.04915 2.2658,1.92596 5.3105,2.88894 9.13411,2.88893 4.05014,1e-5 7.09484,-0.84967 9.13412,-2.54905 2.06753,-1.72768 3.10131,-3.7386 3.10135,-6.03277 -4e-5,-1.47277 -0.43904,-2.71897 -1.31701,-3.73862 -0.84972,-1.04792 -2.35083,-1.95425 -4.50333,-2.71899 -1.47282,-0.50979 -4.82908,-1.41612 -10.06877,-2.71899 -6.74086,-1.67102 -11.47077,-3.72443 -14.18975,-6.16022 -3.82359,-3.42703 -5.73538,-7.60465 -5.73538,-12.53286 0,-3.17211 0.89217,-6.13185 2.67651,-8.87921 1.81266,-2.77558 4.40419,-4.88563 7.77463,-6.33016 3.39872,-1.4444 7.49136,-2.16663 12.27795,-2.1667 7.81707,7e-5 13.69405,1.7136 17.63097,5.1406 3.96515,3.42712 6.04688,8.00125 6.24519,13.72242 l -12.57535,0.55229 c -0.53817,-3.20043 -1.6994,-5.49458 -3.48371,-6.88245 -1.75605,-1.41609 -4.40423,-2.12416 -7.94455,-2.12421 -3.65368,5e-5 -6.51428,0.75061 -8.58183,2.25166 -1.33119,0.96303 -1.99677,2.25172 -1.99676,3.86607 -1e-5,1.47284 0.62309,2.7332 1.86931,3.7811 1.58606,1.33122 5.43796,2.71904 11.55572,4.16346 6.1177,1.4445 10.63519,2.94561 13.55248,4.50333 2.94553,1.52947 5.23968,3.63952 6.88245,6.33016 1.671,2.66237 2.50652,5.96198 2.50658,9.89883 -6e-5,3.5687 -0.99136,6.91079 -2.9739,10.0263 -1.98265,3.1155 -4.78661,5.438 -8.41189,6.9674 -3.62536,1.5011 -8.14285,2.2517 -13.55248,2.2517 -7.87377,0 -13.92069,-1.8127 -18.14078,-5.438 -4.22011,-3.6536 -6.74084,-8.96418 -7.5622,-15.93161"
           inkscape:connector-curvature="0" />
        <path
           id="path3258"
           d="m 549.82359,978.46588 c -10e-6,-6.34428 0.94881,-11.66897 2.84644,-15.97409 1.41614,-3.17211 3.34209,-6.01855 5.77786,-8.53934 2.46408,-2.52067 5.15474,-4.38998 8.07202,-5.60792 3.8802,-1.64266 8.35521,-2.46402 13.42502,-2.46409 9.17656,7e-5 16.51217,2.84651 22.00686,8.53934 5.52289,5.69294 8.28436,13.60917 8.28443,23.74871 -7e-5,10.05463 -2.73322,17.92837 -8.19947,23.62121 -5.46636,5.6646 -12.77364,8.4969 -21.92188,8.4969 -9.26159,0 -16.62553,-2.8181 -22.09182,-8.4544 -5.46631,-5.66453 -8.19947,-13.45331 -8.19946,-23.36632 m 12.9577,-0.42485 c -2e-5,7.05242 1.62855,12.40543 4.88569,16.05906 3.2571,3.62533 7.39223,5.43799 12.40541,5.43798 5.0131,1e-5 9.11991,-1.79849 12.32044,-5.3955 3.22875,-3.6253 4.84315,-9.04912 4.8432,-16.27147 -5e-5,-7.13732 -1.57197,-12.46201 -4.71575,-15.97409 -3.11556,-3.51198 -7.26485,-5.26799 -12.44789,-5.26805 -5.18311,6e-5 -9.36073,1.78439 -12.53286,5.35302 -3.17218,3.5404 -4.75826,8.89341 -4.75824,16.05905"
           inkscape:connector-curvature="0" />
        <path
           id="path3260"
           d="m 682.28952,1009.2245 0,-51.74585 -18.48066,0 0,-10.5361 49.49417,0 0,10.5361 -18.43817,0 0,51.74585 -12.57534,0"
           inkscape:connector-curvature="0" />
        <path
           id="path3262"
           d="m 783.57205,1009.2245 0,-51.74585 -18.48066,0 0,-10.5361 49.49417,0 0,10.5361 -18.43817,0 0,51.74585 -12.57534,0"
           inkscape:connector-curvature="0" />
        <path
           id="path3264"
           d="m 868.28565,978.46588 c 0,-6.34428 0.94882,-11.66897 2.84645,-15.97409 1.41613,-3.17211 3.34209,-6.01855 5.77786,-8.53934 2.46407,-2.52067 5.15474,-4.38998 8.07201,-5.60792 3.88021,-1.64266 8.35521,-2.46402 13.42503,-2.46409 9.17656,7e-5 16.51217,2.84651 22.00685,8.53934 5.5229,5.69294 8.28437,13.60917 8.28443,23.74871 -6e-5,10.05463 -2.73321,17.92837 -8.19946,23.62121 -5.46636,5.6646 -12.77365,8.4969 -21.92188,8.4969 -9.2616,0 -16.62553,-2.8181 -22.09182,-8.4544 -5.46632,-5.66453 -8.19947,-13.45331 -8.19947,-23.36632 m 12.95771,-0.42485 c -2e-5,7.05242 1.62854,12.40543 4.88569,16.05906 3.2571,3.62533 7.39223,5.43799 12.4054,5.43798 5.01311,1e-5 9.11992,-1.79849 12.32044,-5.3955 3.22876,-3.6253 4.84316,-9.04912 4.84321,-16.27147 -5e-5,-7.13732 -1.57197,-12.46201 -4.71576,-15.97409 -3.11555,-3.51198 -7.26484,-5.26799 -12.44789,-5.26805 -5.18311,6e-5 -9.36072,1.78439 -12.53286,5.35302 -3.17217,3.5404 -4.75825,8.89341 -4.75823,16.05905"
           inkscape:connector-curvature="0" />
      </g>
    </g>
  </g>
</svg>
