<?xml version="1.0" encoding="UTF-8" standalone="no"?>
<!-- Created with Inkscape (http://www.inkscape.org/) -->

<svg
   xmlns:dc="http://purl.org/dc/elements/1.1/"
   xmlns:cc="http://creativecommons.org/ns#"
   xmlns:rdf="http://www.w3.org/1999/02/22-rdf-syntax-ns#"
   xmlns:svg="http://www.w3.org/2000/svg"
   xmlns="http://www.w3.org/2000/svg"
   xmlns:sodipodi="http://sodipodi.sourceforge.net/DTD/sodipodi-0.dtd"
   xmlns:inkscape="http://www.inkscape.org/namespaces/inkscape"
   width="1052.3622"
   height="744.09448"
   id="svg4079"
   version="1.1"
   inkscape:version="0.48+devel r9772"
   sodipodi:docname="New document 13">
  <defs
     id="defs4081" />
  <sodipodi:namedview
     id="base"
     pagecolor="#ffffff"
     bordercolor="#666666"
     borderopacity="1.0"
     inkscape:pageopacity="0.0"
     inkscape:pageshadow="2"
     inkscape:zoom="0.85069842"
     inkscape:cx="673.70693"
     inkscape:cy="372.04724"
     inkscape:document-units="px"
     inkscape:current-layer="layer1"
     showgrid="false"
     inkscape:window-width="1440"
     inkscape:window-height="851"
     inkscape:window-x="0"
     inkscape:window-y="1"
     inkscape:window-maximized="1" />
  <metadata
     id="metadata4084">
    <rdf:RDF>
      <cc:Work
         rdf:about="">
        <dc:format>image/svg+xml</dc:format>
        <dc:type
           rdf:resource="http://purl.org/dc/dcmitype/StillImage" />
        <dc:title></dc:title>
      </cc:Work>
    </rdf:RDF>
  </metadata>
  <g
     inkscape:label="Layer 1"
     inkscape:groupmode="layer"
     id="layer1"
     transform="translate(0,-308.2677)">
    <g
       id="g4186"
       transform="matrix(1.3255123,0,0,1.3255123,-160.44048,57.20008)">
      <path
         style="fill:#333333"
         inkscape:connector-curvature="0"
         d="m 491.51772,544.36824 c -1.08738,-0.17452 -1.90627,-1.23505 -1.87271,-2.32243 0,-47.95883 0,-95.91095 0,-143.86977 -0.0202,-1.41628 1.17463,-2.42983 2.33585,-2.33586 2.92653,0.007 5.84634,0 8.76616,0.007 0.93972,0.99341 0.28192,1.47669 2.28216,2.60434 0.2215,0.0268 0.44301,0.0537 0.63766,0.1611 0.49671,0.0268 0.99341,0.0268 1.49012,0 0.48998,-0.20137 0.18122,-0.0403 0.79875,-0.31548 1.42299,-0.67122 1.60422,-2.44325 1.73846,-2.68488 0.0806,-10.22944 -0.28862,-8.08152 0.84574,-10.20259 0.10069,-0.10739 0.20137,-0.20808 0.30877,-0.31547 0.2752,-0.14096 0.53026,-0.3289 0.79204,-0.4967 3.07419,-0.42959 -8.87356,-0.3289 43.1663,-0.34904 2.27544,-0.35575 4.29582,0.61753 4.56431,2.27545 l 0.10068,-0.007 c 0.4363,2.20162 -0.13424,8.07481 0.35575,9.88039 l 0.10069,0.007 c 0.12752,0.8793 1.1008,1.49682 1.55723,1.866 1.98682,0.83902 3.36954,0.2215 4.5039,-1.21492 0.25506,-0.31548 0.28191,-0.73835 0.49671,-1.07395 0.66451,-0.42287 1.46997,-0.094 2.2016,-0.14767 0.34904,-0.007 7.33647,-0.007 7.33647,-0.007 -0.0134,49.52949 0,99.05898 -0.007,148.58847 -0.32889,0 -0.65779,0.0403 -0.98669,0.0202 -0.97327,-0.16109 -1.96668,-0.047 -2.94667,-0.0336 -0.20808,-0.0671 -0.40944,-0.0671 -0.61752,-0.007 -1.56395,0.0202 -3.13461,0.047 -4.69856,0.0336 l 0,-0.1074 c -0.26849,0.0202 -0.37588,-0.094 -0.32889,-0.35575 l -0.14096,0.007 c -0.0134,-0.18794 0,-0.3893 -0.12082,-0.55039 -0.14767,-0.46986 -0.63095,-0.69137 -0.91287,-1.07396 -0.25506,-0.34232 -0.69135,-0.41616 -1.03368,-0.63766 -0.1678,-0.0403 -0.32889,-0.0873 -0.48327,-0.1611 -0.51014,0.0268 -1.06054,-0.14095 -1.54382,0.0806 -0.18123,0.0134 -0.36246,0.0268 -0.54369,0.0336 l -0.007,0.12082 c -0.91957,0.13424 -1.4834,1.01355 -1.84586,1.79216 -0.0134,0.0873 -0.0403,0.25507 -0.0537,0.33561 -0.23493,0.36918 -0.11411,8.80644 -0.11411,8.87356 l -0.14767,-0.0134 c 0,0.20808 -0.007,0.41616 -0.007,0.63095 l -0.12082,0.007 c -0.28192,1.10752 -1.22834,2.04723 -2.32914,2.32914 l 0,0.10069 c -9.14205,0.20808 -41.99166,0.14095 -42.07221,0.14095 -1.55723,-0.0202 -4.07432,0.56383 -5.15499,-2.56407 -0.24835,-0.57054 -0.0202,-0.83902 -0.12081,-8.79301 -0.12754,-0.2752 -0.3826,-2.04723 -1.73847,-2.6916 -0.26178,-0.10739 -0.54369,-0.18123 -0.79204,-0.31547 -0.55041,0.047 -1.17464,-0.1611 -1.67806,0.1141 -0.0738,0.007 -0.22822,0.0268 -0.30876,0.0403 -0.8793,0.47656 -1.79888,1.1008 -2.12106,2.10092 -0.0805,0.20808 -0.13425,0.53027 -0.42287,0.51684 -3.0205,-0.0202 -6.06114,0.007 -9.10849,-0.0202 m 28.14435,-21.81472 c 0.0403,0.0202 0.11411,0.0604 0.15438,0.0805 0.67793,1.77203 2.18147,3.00708 3.49707,4.29582 1.30217,1.11424 2.53051,2.32244 3.89309,3.36283 0.36245,0.28191 0.61752,0.67122 0.81889,1.07396 -0.0336,1.1545 0,2.31571 -0.0134,3.47022 -0.11411,0.15437 -0.22821,0.30204 -0.3289,0.46314 -1.42299,0.45643 -4.98718,0.63095 -6.79277,1.51696 -1.68477,0.99341 -1.46327,3.28227 -0.24164,4.16158 0.34904,0.32889 0.8256,0.46314 1.22162,0.72492 0.0738,0.007 0.22151,0.0202 0.29534,0.0336 0.16781,0.15438 0.40274,0.13424 0.61753,0.17451 0.29534,0.16781 0.66451,0.0671 0.95313,0.24836 0.30877,0.0336 0.65109,-0.0403 0.92629,0.15438 0.24835,0.0202 0.50342,0.0336 0.75177,0.0537 0.33561,0.2215 0.7719,0.0202 1.10752,0.25506 0.61081,0.0738 1.26861,-0.10068 1.85257,0.15438 0.46314,0.0537 0.95984,-0.0604 1.39614,0.15438 1.98682,0.0604 3.98035,0.0604 5.97388,0 0.48328,-0.2215 1.02697,-0.094 1.54381,-0.15438 0.48328,-0.22821 1.02697,-0.094 1.54381,-0.15438 0.64437,-0.19465 1.34245,-0.20808 2.01367,-0.32218 0.28862,-0.12083 0.61081,-0.12083 0.91957,-0.15439 0.57054,-0.23492 2.44325,-0.1678 3.67159,-1.77202 0.21479,-0.6578 0.30876,-1.34916 0.1678,-2.0338 -0.12082,-0.19466 -0.20808,-0.40274 -0.26848,-0.62424 -0.42287,-0.61753 -1.12095,-0.89944 -1.7519,-1.24847 -2.24188,-0.49671 -4.87978,-0.85246 -5.7658,-1.03369 -0.15438,-0.14766 -0.31547,-0.29534 -0.46985,-0.44301 0.0201,-3.67829 -0.24164,-3.69843 0.86587,-4.63143 1.46327,-1.08738 2.73859,-2.40298 4.14145,-3.56419 3.75884,-3.74542 2.68488,-3.40981 3.41652,-4.49047 0.0134,-0.62424 0.0134,-1.24848 -0.007,-1.866 -0.094,-0.14096 -0.15438,-0.30205 -0.16781,-0.47657 -0.61081,-1.3156 -1.55052,-2.44325 -2.60434,-3.42994 -0.16781,-0.19466 -4.00719,-3.63803 -4.8328,-4.23542 -1.06724,-0.83903 -0.78533,-0.98669 -0.81218,-4.54418 0.13425,-0.15437 0.26849,-0.30204 0.40274,-0.45643 0.0805,-0.007 0.23492,-0.0202 0.31547,-0.0202 0.28191,-0.16109 0.61081,-0.12082 0.92629,-0.15438 0.6041,-0.16109 1.23505,-0.23493 1.85257,-0.31548 0.87259,-0.40944 5.37649,-0.0738 4.75897,-3.96692 -0.12083,-0.18794 -0.20808,-0.39602 -0.26849,-0.61081 -1.19478,-1.58408 -3.36283,-1.49682 -7.5177,-2.28886 -0.15438,-0.14768 -0.31547,-0.30206 -0.46985,-0.44972 0.007,-21.17707 -0.1074,-20.00243 0.24835,-20.20379 1.81231,-0.89945 3.34269,-2.34257 4.40993,-4.04748 0.97327,-1.78545 1.42299,-3.27556 1.28875,-6.65852 -0.23493,-0.24835 -0.12082,-0.61752 -0.16109,-0.92629 -0.26849,-0.46985 -1.0404,-4.40992 -5.44362,-6.63167 -0.48328,-0.1611 -0.34903,0.92628 -0.34232,-20.23735 0.13425,-0.15438 0.26178,-0.30877 0.39603,-0.46315 0.0738,-0.007 0.23492,-0.0202 0.30875,-0.0268 0.28863,-0.14096 0.61753,-0.12753 0.93301,-0.15438 0,0 4.17499,-0.77862 4.17499,-0.77862 0.30877,-0.12082 0.61753,-0.22822 0.93972,-0.30204 0.4967,-0.3222 0.95313,-0.69808 1.32902,-1.16122 0.21479,-0.6578 0.32219,-1.34916 0.16109,-2.03381 -0.0873,-0.14766 -0.13425,-0.30875 -0.14096,-0.48327 -1.28203,-1.83915 -4.00719,-1.65121 -7.6318,-2.41641 -0.16109,-0.14766 -0.31547,-0.28862 -0.47656,-0.43629 0.0202,-1.1545 -0.0268,-2.309 0.0202,-3.4568 0.28192,-1.05382 1.39614,-1.49682 2.12107,-2.2016 3.32255,-3.17489 7.17536,-5.40334 6.11483,-9.37698 -0.59739,-0.91957 -0.3289,-1.22162 -3.0742,-3.8998 -1.23505,-1.02026 -2.36941,-2.16804 -3.6246,-3.16817 -2.00696,-1.93983 -1.45655,-0.34904 -1.56395,-5.14827 0.45643,-0.72492 0.97999,-0.45643 5.20197,-1.2619 2.93996,-0.67122 3.27557,-1.89955 3.0742,-3.66487 -0.15438,-0.17452 -0.22822,-0.38931 -0.28191,-0.61082 -2.38284,-3.04063 -17.86794,-3.06077 -23.68072,-1.21491 -2.28216,0.73835 -2.27545,2.92653 -1.52367,3.96022 0.42287,0.61081 1.11422,0.91286 1.75188,1.25518 0.0738,0.007 0.22151,0.0268 0.29535,0.0336 0.48998,0.25506 1.06724,0.20807 1.57065,0.41615 0.30877,0.0336 0.64438,-0.0202 0.91958,0.14768 0.30876,0.0403 0.64437,0 0.93299,0.15438 0.24836,0.0268 0.50343,0.0403 0.75178,0.0604 0.54369,0.22821 1.25518,0.0403 1.7049,0.53697 -0.0537,1.18135 -0.0336,2.36942 -0.0134,3.55077 l -0.11411,0 c -0.0872,0.46314 -0.42286,0.8256 -0.77862,1.1008 -1.29545,0.94643 -2.41639,2.10092 -3.65144,3.12789 -1.44313,1.42971 -4.98719,4.21528 -3.69844,7.23578 0.66452,1.80559 2.1949,3.05406 3.52392,4.36295 1.30888,1.10752 2.5238,2.32914 3.8998,3.36282 0.35575,0.28191 0.61081,0.6578 0.81218,1.05382 -0.0134,1.16121 -0.007,2.32242 -0.007,3.48365 -0.11411,0.15437 -0.22822,0.30875 -0.33561,0.46313 -1.32902,0.49 -4.5576,0.52356 -6.79277,1.52368 -0.95314,0.57725 -0.9867,1.08738 -1.08738,1.38943 -0.30876,0.69136 -0.0336,1.44984 0.14095,1.95997 0.30877,0.62424 0.93301,0.96656 1.46998,1.36929 0.17452,0.0202 0.3289,0.0806 0.46986,0.18123 0.0738,0.007 0.21479,0.0202 0.28191,0.0268 0.17452,0.1611 0.40945,0.13425 0.62424,0.17452 0.28862,0.18795 0.66451,0.0537 0.94642,0.25506 0.24836,0.0202 0.50342,0.0268 0.75177,0.0403 0.26178,0.20808 0.61752,0.12082 0.92629,0.16109 0.32889,0.24165 0.7719,0.0268 1.1008,0.26178 0.30876,0.0202 0.63766,-0.0268 0.92629,0.12082 0.23493,0.0336 0.43629,0.14096 0.59738,0.30876 -0.0403,1.40286 -0.0268,17.49206 -0.0134,19.92859 l -0.20808,-0.0336 c 0.0202,0.0671 0.0671,0.19466 0.094,0.26178 -2.32244,1.2619 -4.42336,2.96681 -5.33622,5.85306 -0.17452,0.38931 -0.26849,0.81218 -0.29534,1.24176 -0.10068,0.26178 -0.15438,0.53026 -0.19466,0.80547 l 0.1074,0.0872 c -0.4967,0.95986 0.0671,4.02063 0.51684,5.00732 0.91286,2.5238 2.96681,4.32939 5.32279,5.6517 -0.0537,1.12093 -0.0202,0.26848 -0.0336,19.96215 -0.11411,0.15438 -0.2215,0.30876 -0.3289,0.46314 -1.89285,0.64437 -7.00756,0.61081 -7.72577,2.45667 -0.11411,0.28863 -0.63095,1.22163 0.0537,2.54393 0.61081,0.88602 1.7519,1.46327 2.77887,1.61765 0.22821,0.15438 0.51683,0.11411 0.77861,0.14767 0.26849,0.19466 0.61081,0.1141 0.91958,0.14767 0.31547,0.24835 0.76519,0.0336 1.09409,0.26178 0.31548,0.0403 0.65108,-0.0202 0.933,0.15438 0.30876,0.0202 0.63095,-0.0134 0.91957,0.12081 0.24835,0.0134 0.42958,0.15439 0.6041,0.31548 -0.0604,1.16121 -0.0202,2.32243 -0.0268,3.48364 -0.16109,0.2685 -0.29534,0.5504 -0.46315,0.81218 -9.90052,7.66536 -7.77946,9.18232 -7.88014,10.65901 z"
         id="path4151" />
      <path
         d="m 135.21271,384.33486 12.7843,0 0,156.5676 62.6269,0 0,15.10932 -75.4112,0 0,-171.67692"
         style="font-size:188.24475098px;font-style:normal;font-variant:normal;font-weight:bold;font-stretch:normal;text-align:start;line-height:125%;letter-spacing:0px;word-spacing:0px;writing-mode:lr-tb;text-anchor:start;fill:#333333;fill-opacity:1;stroke:none;font-family:AppleGothic;-inkscape-font-specification:AppleGothic Bold"
         id="path4165"
         inkscape:connector-curvature="0" />
      <path
         d="m 269.00032,384.33486 12.46065,0 47.25337,171.67692 -14.88805,0 -15.21171,-58.68547 -48.22431,0 -15.85901,58.68547 -14.07891,0 48.54797,-171.67692 m 26.05408,97.88212 -19.58102,-77.29841 -21.19928,77.29841 40.7803,0"
         style="font-size:188.24475098px;font-style:normal;font-variant:normal;font-weight:bold;font-stretch:normal;text-align:start;line-height:125%;letter-spacing:0px;word-spacing:0px;writing-mode:lr-tb;text-anchor:start;fill:#333333;fill-opacity:1;stroke:none;font-family:AppleGothic;-inkscape-font-specification:AppleGothic Bold"
         id="path4167"
         inkscape:connector-curvature="0" />
      <path
         d="m 341.10418,556.01178 0,-171.67692 16.66814,0 49.19528,142.11521 50.81355,-142.11521 15.69718,0 0,171.67692 -11.48969,0 0,-149.12242 -52.26999,149.12242 -5.5021,0 -51.46085,-148.90345 0,148.90345 -11.65152,0"
         style="font-size:188.24475098px;font-style:normal;font-variant:normal;font-weight:bold;font-stretch:normal;text-align:start;line-height:125%;letter-spacing:0px;word-spacing:0px;writing-mode:lr-tb;text-anchor:start;fill:#333333;fill-opacity:1;stroke:none;font-family:AppleGothic;-inkscape-font-specification:AppleGothic Bold"
         id="path4169"
         inkscape:connector-curvature="0" />
      <path
         d="m 578.87296,384.33486 97.90508,0 0,15.10932 -42.56039,0 0,156.5676 -12.62248,0 0,-156.5676 -42.72221,0 0,-15.10932"
         style="font-size:188.24475098px;font-style:normal;font-variant:normal;font-weight:bold;font-stretch:normal;text-align:start;line-height:125%;letter-spacing:0px;word-spacing:0px;writing-mode:lr-tb;text-anchor:start;fill:#333333;fill-opacity:1;stroke:none;font-family:AppleGothic;-inkscape-font-specification:AppleGothic Bold"
         id="path4173"
         inkscape:connector-curvature="0" />
      <path
         d="m 685.70377,384.33486 97.9051,0 0,15.10932 -42.5604,0 0,156.5676 -12.62247,0 0,-156.5676 -42.72223,0 0,-15.10932"
         style="font-size:188.24475098px;font-style:normal;font-variant:normal;font-weight:bold;font-stretch:normal;text-align:start;line-height:125%;letter-spacing:0px;word-spacing:0px;writing-mode:lr-tb;text-anchor:start;fill:#333333;fill-opacity:1;stroke:none;font-family:AppleGothic;-inkscape-font-specification:AppleGothic Bold"
         id="path4175"
         inkscape:connector-curvature="0" />
      <path
         d="m 841.08257,384.33486 12.46066,0 47.25339,171.67692 -14.88812,0 -15.21169,-58.68547 -48.2243,0 -15.859,58.68547 -14.07891,0 48.54797,-171.67692 m 26.05412,97.88212 -19.58105,-77.29841 -21.19928,77.29841 40.78033,0"
         style="font-size:188.24475098px;font-style:normal;font-variant:normal;font-weight:bold;font-stretch:normal;text-align:start;line-height:125%;letter-spacing:0px;word-spacing:0px;writing-mode:lr-tb;text-anchor:start;fill:#333333;fill-opacity:1;stroke:none;font-family:AppleGothic;-inkscape-font-specification:AppleGothic Bold"
         id="path4177"
         inkscape:connector-curvature="0" />
    </g>
  </g>
</svg>
