<?xml version="1.0" encoding="UTF-8" standalone="no"?>
<!-- Created with Inkscape (http://www.inkscape.org/) -->

<svg
   xmlns:dc="http://purl.org/dc/elements/1.1/"
   xmlns:cc="http://creativecommons.org/ns#"
   xmlns:rdf="http://www.w3.org/1999/02/22-rdf-syntax-ns#"
   xmlns:svg="http://www.w3.org/2000/svg"
   xmlns="http://www.w3.org/2000/svg"
   xmlns:sodipodi="http://sodipodi.sourceforge.net/DTD/sodipodi-0.dtd"
   xmlns:inkscape="http://www.inkscape.org/namespaces/inkscape"
   width="1052.3622"
   height="744.09448"
   id="svg2"
   version="1.1"
   inkscape:version="0.48+devel r9772"
   sodipodi:docname="New document 1">
  <defs
     id="defs4" />
  <sodipodi:namedview
     id="base"
     pagecolor="#ffffff"
     bordercolor="#666666"
     borderopacity="1.0"
     inkscape:pageopacity="0.0"
     inkscape:pageshadow="2"
     inkscape:zoom="0.85069842"
     inkscape:cx="526.18109"
     inkscape:cy="372.04724"
     inkscape:document-units="px"
     inkscape:current-layer="layer1"
     showgrid="false"
     inkscape:window-width="1440"
     inkscape:window-height="851"
     inkscape:window-x="0"
     inkscape:window-y="1"
     inkscape:window-maximized="1" />
  <metadata
     id="metadata7">
    <rdf:RDF>
      <cc:Work
         rdf:about="">
        <dc:format>image/svg+xml</dc:format>
        <dc:type
           rdf:resource="http://purl.org/dc/dcmitype/StillImage" />
        <dc:title></dc:title>
      </cc:Work>
    </rdf:RDF>
  </metadata>
  <g
     inkscape:label="Layer 1"
     inkscape:groupmode="layer"
     id="layer1"
     transform="translate(0,-308.2677)">
    <path
       style="fill:#4d4d4d"
       d="m 63.447451,485.55927 c -7.171468,7.22767 -3.905372,41.56191 6.957697,73.35754 6.599885,19.31746 5.774575,23.56181 8.049532,30.37593 9.246988,10.11275 14.83497,16.6502 19.342283,6.58428 2.470587,-4.35253 4.044497,-7.72856 4.087267,-9.08597 0.0847,-2.68915 -3.055851,-12.17324 -6.978329,-21.03619 -9.602939,-21.69821 -17.532912,-60.4349 -12.990938,-63.51439 1.996094,-1.35336 14.817634,0.69414 28.502357,4.61115 l 24.87671,7.13642 18.22794,-15.88747 c 23.10698,-20.1249 37.49049,-28.26899 63.46188,-36.04058 11.40058,-3.41148 21.60826,-7.10336 22.68058,-8.18409 1.07236,-1.08076 3.36079,-8.84172 5.02983,-17.26016 2.46502,-12.43344 9.77661,-31.9775 13.31635,-35.54499 2.74725,-2.76878 34.81555,34.8666 49.81348,58.46083 34.63587,54.4868 43.94385,101.19095 26.53058,133.17325 -13.50727,24.80835 -39.62128,47.10432 -65.70716,56.1383 -11.29748,3.9125 -23.41959,7.59668 -26.91583,8.16315 -5.09269,0.82548 -6.36332,2.09632 -6.34654,6.39627 0.0295,7.55767 8.21284,8.88494 29.14023,4.79606 23.93045,-4.67561 45.08631,-16.824 65.36731,-37.58467 30.56376,-31.28667 39.55567,-67.79836 27.81956,-112.69677 -12.56039,-48.05166 -59.41225,-117.36866 -91.4533,-135.3185 l -10.55482,-5.91802 -11.41703,13.23732 c -7.18176,8.36754 -13.4785,19.78043 -17.08238,30.91224 l -5.70298,17.63759 -12.09353,3.158 c -13.85632,3.63059 -60.81108,31.03617 -71.31079,41.61817 -6.45437,6.50496 -8.7412,6.61065 -26.90571,1.15446 -22.425568,-6.73608 -40.359143,-6.28215 -47.744249,1.16084 z"
       id="path3150"
       inkscape:connector-curvature="0"
       sodipodi:nodetypes="ssccssscccssssssscssssccccccsss" />
    <path
       id="path3166"
       d="m 317.30956,532.32626 c 9.97744,-10.05564 -9.27104,-18.77385 -27.55864,-12.48551 -12.74728,4.38327 -16.78378,8.31422 -22.17845,21.59976 -7.7167,19.0041 4.27555,21.73612 19.65676,4.49576 7.19478,-8.0644 11.15546,-10.3014 17.68873,-10.00109 4.62221,0.21245 10.19361,-1.39371 12.3916,-3.60892 z m -97.92873,58.88765 c 2.40553,-2.62522 2.77318,-5.83686 0.56426,-9.07223 -3.55256,-5.20338 -22.57559,-5.00613 -30.39461,0.30605 -3.03761,2.06375 -6.36131,4.39989 -7.43825,5.16372 -1.07692,0.7638 -3.89858,6.07654 -6.25021,11.86789 -2.93816,7.23592 -2.8632,11.94321 0.20843,14.99096 5.75366,5.70891 11.36008,3.0776 16.08665,-7.55868 3.16747,-7.12774 5.41022,-8.72466 14.35266,-10.10052 6.02278,-0.92667 10.46551,-2.97202 12.87107,-5.59719 z"
       style="fill:#4d4d4d"
       inkscape:connector-curvature="0" />
    <g
       id="g3942"
       transform="matrix(1.1946414,-1.2040048,1.2040048,1.1946414,-960.04069,394.93529)"
       style="stroke:#333333">
      <path
         sodipodi:nodetypes="cc"
         inkscape:connector-curvature="0"
         id="path3168"
         d="m 429.51015,611.81335 c 35.53939,-3.95594 62.39993,16.28483 84.90997,48.65483"
         style="fill:none;stroke:#333333;stroke-width:3.55086230999999986;stroke-linecap:round;stroke-linejoin:round;stroke-miterlimit:4;stroke-opacity:1;stroke-dasharray:none" />
      <path
         style="fill:none;stroke:#333333;stroke-width:3.55086230999999986;stroke-linecap:round;stroke-linejoin:round;stroke-miterlimit:4;stroke-opacity:1;stroke-dasharray:none"
         d="m 429.75791,616.26409 c 35.57757,3.59637 57.58801,29.02702 72.79757,65.40268"
         id="path3938"
         inkscape:connector-curvature="0"
         sodipodi:nodetypes="cc" />
      <path
         sodipodi:nodetypes="cc"
         inkscape:connector-curvature="0"
         id="path3940"
         d="m 430.82505,607.91471 c 33.3577,-12.88262 64.48971,-0.15567 94.50604,25.40873"
         style="fill:none;stroke:#333333;stroke-width:3.55086230999999986;stroke-linecap:round;stroke-linejoin:round;stroke-miterlimit:4;stroke-opacity:1;stroke-dasharray:none" />
    </g>
    <path
       style="font-size:228.92446899000000826px;font-style:normal;font-variant:normal;font-weight:bold;font-stretch:normal;text-align:start;line-height:125%;letter-spacing:0px;word-spacing:0px;writing-mode:lr-tb;text-anchor:start;fill:#4d4d4d;fill-opacity:1;stroke:none;font-family:Giddyup Std;-inkscape-font-specification:Giddyup Std Bold"
       d="m 78.224639,577.34707 c -28.081575,38.26356 -44.681948,89.7444 -44.681948,148.73572 0,122.51995 78.798289,217.86642 179.098819,217.86642 82.11415,0 120.68896,-73.51672 120.68896,-126.60867 0,-12.93266 -1.6227,-25.91389 -4.92933,-38.16591 7.16433,-3.40331 13.77208,-4.71346 20.93639,-4.71346 27.004,0 30.318,30.60136 30.318,43.53402 0,8.16797 -1.11376,16.31578 -3.86926,24.48378 -0.55112,2.042 -0.53003,4.11169 -0.53003,6.15369 0,7.48733 4.4115,14.9914 11.02472,14.9914 14.32864,0 17.06713,-32.69622 17.06713,-45.62887 0,-22.462 -6.04508,-42.84324 -17.06713,-55.77591 -9.36873,-11.5713 -22.06366,-17.74092 -36.94343,-17.74092 -11.57314,0 -22.06237,4.07306 -31.43108,8.83773 -20.94187,-38.79797 -56.20199,-51.71709 -87.61478,-51.71709 -39.67933,0 -57.87982,27.22654 -57.87982,53.09185 0,34.03332 27.0113,59.24553 73.30384,59.24553 25.90178,0 44.65403,-10.90909 60.636,-21.79974 13.77753,69.42795 -33.64009,123.85915 -93.71018,123.85915 -86.52298,0 -153.763147,-84.40972 -153.763147,-189.913 0,-48.01357 12.801184,-91.96404 35.565346,-125.56123 l -16.21907,-23.17449 z m 152.067031,152.86 c 21.49295,0 49.06421,8.16371 66.14837,36.07102 -14.32864,8.84865 -30.33359,19.05022 -50.72435,19.05022 -25.90178,0 -49.02824,-11.57879 -49.02824,-30.63746 0,-10.89067 11.00903,-24.48378 33.60422,-24.48378 z"
       id="path4006"
       inkscape:connector-curvature="0" />
    <g
       id="g3947"
       transform="matrix(-1.5843926,0.60538878,0.60538878,1.5843926,565.41804,-598.72503)"
       style="stroke:#333333">
      <path
         style="fill:none;stroke:#333333;stroke-width:3.55086230999999986;stroke-linecap:round;stroke-linejoin:round;stroke-miterlimit:4;stroke-opacity:1;stroke-dasharray:none"
         d="m 429.51015,611.81335 c 35.53939,-3.95594 62.39993,16.28483 84.90997,48.65483"
         id="path3949"
         inkscape:connector-curvature="0"
         sodipodi:nodetypes="cc" />
      <path
         sodipodi:nodetypes="cc"
         inkscape:connector-curvature="0"
         id="path3951"
         d="m 429.75791,616.26409 c 35.57757,3.59637 57.58801,29.02702 72.79757,65.40268"
         style="fill:none;stroke:#333333;stroke-width:3.55086230999999986;stroke-linecap:round;stroke-linejoin:round;stroke-miterlimit:4;stroke-opacity:1;stroke-dasharray:none" />
      <path
         style="fill:none;stroke:#333333;stroke-width:3.55086230999999986;stroke-linecap:round;stroke-linejoin:round;stroke-miterlimit:4;stroke-opacity:1;stroke-dasharray:none"
         d="m 430.82505,607.91471 c 33.3577,-12.88262 64.48971,-0.15567 94.50604,25.40873"
         id="path3953"
         inkscape:connector-curvature="0"
         sodipodi:nodetypes="cc" />
    </g>
    <path
       inkscape:connector-curvature="0"
       id="path3975"
       style="font-size:228.92446899000000826px;font-style:normal;font-variant:normal;font-weight:bold;font-stretch:normal;text-align:start;line-height:125%;letter-spacing:0px;word-spacing:0px;writing-mode:lr-tb;text-anchor:start;fill:#4d4d4d;fill-opacity:1;stroke:none;font-family:Giddyup Std;-inkscape-font-specification:Giddyup Std Bold"
       d="m 533.10894,747.73913 c -60.62121,0 -100.30063,79.90991 -100.30063,137.22448 0,41.33262 22.59523,57.86574 44.6393,57.86574 39.67931,0 57.31462,-36.92388 57.31462,-46.29259 0,-6.61323 -4.40882,-12.12427 -11.57313,-12.12427 -4.40883,0 -8.81766,2.75554 -10.47097,7.16434 -5.511,14.87974 -16.53307,28.10622 -31.4128,28.10622 -14.32865,0 -23.6974,-14.3287 -23.6974,-34.71944 0,-50.15026 31.41287,-114.07818 73.29659,-114.07818 14.32866,0 28.65731,9.91986 28.65731,36.37276 0,19.28856 -3.85771,40.78159 -7.16433,61.17233 -2.7555,19.83969 -6.06212,35.27056 -6.06212,46.84369 0,11.02205 3.30663,26.45294 15.43087,26.45294 6.61322,0 12.67535,-5.51104 12.67535,-11.57317 0,-2.7555 -1.10221,-4.4088 -2.20442,-6.61322 -0.55109,-1.6533 -1.10219,-3.85771 -1.10219,-7.16433 0,-11.02203 3.30661,-29.75955 5.51103,-44.08819 3.8577,-20.94186 7.16432,-45.19039 7.16432,-66.13225 0,-38.02601 -19.28861,-58.41686 -50.7014,-58.41686" />
    <path
       inkscape:connector-curvature="0"
       id="path3977"
       style="font-size:228.92446899000000826px;font-style:normal;font-variant:normal;font-weight:bold;font-stretch:normal;text-align:start;line-height:125%;letter-spacing:0px;word-spacing:0px;writing-mode:lr-tb;text-anchor:start;fill:#4d4d4d;fill-opacity:1;stroke:none;font-family:Giddyup Std;-inkscape-font-specification:Giddyup Std Bold"
       d="m 697.17381,931.25619 c 0,-6.06211 -4.95992,-11.57314 -11.02204,-11.57314 -5.51103,-1.10221 -21.493,-3.85777 -21.493,-47.39481 0,-28.10617 4.95992,-62.82568 14.87977,-98.09619 10.47093,0.55108 29.20842,1.6533 39.67935,1.6533 6.06214,0 10.47095,-4.40884 10.47095,-11.02204 0,-6.06211 -6.06214,-10.47093 -12.12423,-11.57315 -14.87977,-0.5511 -25.90184,-1.1022 -33.61726,-1.1022 2.7555,-12.12424 9.91986,-41.33269 15.43087,-57.86574 0.5511,-1.10221 1.10221,-3.85771 1.10221,-6.06213 0,-6.61322 -5.51104,-11.02205 -12.67538,-11.02205 -4.95989,0.55112 -9.36871,3.85774 -11.02201,8.81763 -6.06213,22.04408 -12.67537,47.39485 -17.08417,65.5812 -19.8397,0.55109 -42.98599,1.1022 -42.98599,16.53306 0,6.06212 3.85772,9.36874 7.71542,9.36874 7.71543,0 13.77759,-2.75554 29.75953,-2.75554 -10.47093,41.88376 -13.77756,72.74553 -13.77756,99.19843 0,42.43482 13.22649,65.03009 40.78157,69.43889 0.55112,0 3.30662,0.55108 3.85771,0.55108 6.61322,-0.55108 12.12426,-6.06212 12.12426,-12.67534" />
    <path
       inkscape:connector-curvature="0"
       id="path3979"
       style="font-size:228.92446899000000826px;font-style:normal;font-variant:normal;font-weight:bold;font-stretch:normal;text-align:start;line-height:125%;letter-spacing:0px;word-spacing:0px;writing-mode:lr-tb;text-anchor:start;fill:#4d4d4d;fill-opacity:1;stroke:none;font-family:Giddyup Std;-inkscape-font-specification:Giddyup Std Bold"
       d="m 818.80378,931.25619 c 0,-6.06211 -4.95991,-11.57314 -11.02205,-11.57314 -5.51101,-1.10221 -21.49299,-3.85777 -21.49299,-47.39481 0,-28.10617 4.95994,-62.82568 14.87978,-98.09619 10.47093,0.55108 29.20842,1.6533 39.67935,1.6533 6.06211,0 10.47093,-4.40884 10.47093,-11.02204 0,-6.06211 -6.06212,-10.47093 -12.12425,-11.57315 -14.87973,-0.5511 -25.90179,-1.1022 -33.61722,-1.1022 2.7555,-12.12424 9.91983,-41.33269 15.43087,-57.86574 0.55108,-1.10221 1.1022,-3.85771 1.1022,-6.06213 0,-6.61322 -5.51102,-11.02205 -12.67537,-11.02205 -4.95992,0.55112 -9.36873,3.85774 -11.02204,8.81763 -6.06211,22.04408 -12.67535,47.39485 -17.08418,65.5812 -19.83965,0.55109 -42.98595,1.1022 -42.98595,16.53306 0,6.06212 3.8577,9.36874 7.71543,9.36874 7.71542,0 13.77756,-2.75554 29.75952,-2.75554 -10.47093,41.88376 -13.77755,72.74553 -13.77755,99.19843 0,42.43482 13.22648,65.03009 40.78157,69.43889 0.55108,0 3.30662,0.55108 3.8577,0.55108 6.61323,-0.55108 12.12425,-6.06212 12.12425,-12.67534" />
    <path
       inkscape:connector-curvature="0"
       id="path3981"
       style="font-size:228.92446899000000826px;font-style:normal;font-variant:normal;font-weight:bold;font-stretch:normal;text-align:start;line-height:125%;letter-spacing:0px;word-spacing:0px;writing-mode:lr-tb;text-anchor:start;fill:#4d4d4d;fill-opacity:1;stroke:none;font-family:Giddyup Std;-inkscape-font-specification:Giddyup Std Bold"
       d="m 959.85153,746.63695 c -35.27051,0 -54.00802,27.55512 -54.00802,54.008 0,25.35068 16.5331,46.29259 48.49698,46.29259 13.77757,0 14.87977,-8.81762 14.87977,-12.12424 0,-6.61323 -5.51101,-12.12425 -12.67535,-12.12425 -9.36873,0 -25.9018,-4e-5 -25.9018,-22.0441 0,-13.22643 7.16436,-30.86172 28.10622,-30.86172 26.45286,0 35.27053,29.75954 35.27053,51.8036 0,46.84366 -25.35074,99.19843 -65.03005,99.19843 -28.10621,0 -39.67939,-33.61728 -39.67939,-62.27457 0,-11.57315 1.65332,-27.00402 4.95994,-35.27053 0.5511,-1.65333 1.10219,-3.30662 1.10219,-5.51104 0,-6.06212 -4.95993,-12.12425 -11.57314,-12.12425 -4.95992,0 -9.91984,3.85774 -11.57314,8.81763 -5.51103,14.87975 -7.71545,29.20846 -7.71545,44.63931 0,51.25245 25.35077,84.86972 63.37678,84.86972 56.21236,0 90.9319,-63.37679 90.9319,-122.3447 0,-44.08814 -22.59526,-74.94988 -58.96797,-74.94988" />
  </g>
</svg>
