<?xml version="1.0" encoding="UTF-8" standalone="no"?>
<!-- Created with Inkscape (http://www.inkscape.org/) -->

<svg
   xmlns:dc="http://purl.org/dc/elements/1.1/"
   xmlns:cc="http://creativecommons.org/ns#"
   xmlns:rdf="http://www.w3.org/1999/02/22-rdf-syntax-ns#"
   xmlns:svg="http://www.w3.org/2000/svg"
   xmlns="http://www.w3.org/2000/svg"
   xmlns:sodipodi="http://sodipodi.sourceforge.net/DTD/sodipodi-0.dtd"
   xmlns:inkscape="http://www.inkscape.org/namespaces/inkscape"
   width="1052.3622"
   height="744.09448"
   id="svg2"
   version="1.1"
   inkscape:version="0.48.4 r9939"
   sodipodi:docname="New document 5">
  <defs
     id="defs4" />
  <sodipodi:namedview
     id="base"
     pagecolor="#ffffff"
     bordercolor="#666666"
     borderopacity="1.0"
     inkscape:pageopacity="0.0"
     inkscape:pageshadow="2"
     inkscape:zoom="0.35"
     inkscape:cx="375"
     inkscape:cy="495.71429"
     inkscape:document-units="px"
     inkscape:current-layer="layer1"
     showgrid="false"
     inkscape:window-width="1366"
     inkscape:window-height="706"
     inkscape:window-x="-8"
     inkscape:window-y="-8"
     inkscape:window-maximized="1" />
  <metadata
     id="metadata7">
    <rdf:RDF>
      <cc:Work
         rdf:about="">
        <dc:format>image/svg+xml</dc:format>
        <dc:type
           rdf:resource="http://purl.org/dc/dcmitype/StillImage" />
        <dc:title></dc:title>
      </cc:Work>
    </rdf:RDF>
  </metadata>
  <g
     inkscape:label="Layer 1"
     inkscape:groupmode="layer"
     id="layer1"
     transform="translate(0,-308.2677)">
    <path
       inkscape:connector-curvature="0"
       id="path7927"
       d="m 283.24998,767.19992 c -2.3442,-0.9459 -1.25473,-2.14801 3.5,-3.86186 3.63863,-1.31155 10.0144,-1.88939 27.25,-2.46969 25.05307,-0.84351 32.70001,-2.3864 47.43241,-9.57023 10.46458,-5.10275 23.84497,-16.43594 19.40489,-16.43594 -0.60496,0 -4.97833,1.32999 -9.71861,2.95554 -4.74028,1.62555 -11.98256,3.47593 -16.09397,4.11197 -9.02335,1.39592 -38.6517,0.84956 -41.48467,-0.76499 -2.18507,-1.24531 -2.50315,-1.18585 17.28796,-3.23199 28.68178,-2.96533 49.75689,-13.25552 63.8268,-31.16426 3.3184,-4.2238 4.92646,-5.5938 5.50172,-4.68724 0.44707,0.70454 0.81974,15.08633 0.82816,31.95954 0.0133,26.56993 -0.19514,30.88903 -1.55612,32.25 -1.39351,1.39351 -7.98861,1.56249 -58.25,1.49248 -31.17321,-0.0434 -57.24107,-0.30592 -57.92857,-0.58333 z m 172.1372,-0.30237 c -17.18073,-2.63275 -28.89785,-12.41856 -34.59004,-28.88865 -3.1292,-9.05418 -3.30662,-28.56589 -0.34201,-37.6137 2.62852,-8.02214 8.95215,-17.17367 15.04485,-21.77288 12.81822,-9.67613 33.41562,-12.08222 51.65224,-6.03378 l 5.34776,1.77366 0.30226,5.25 c 0.33072,5.74431 -0.58907,6.48848 -4.57178,3.69888 -4.52616,-3.17025 -13.40307,-5.44888 -21.22731,-5.44888 -16.5123,0 -27.36844,9.91083 -30.5808,27.91792 -1.7575,9.8518 -1.73583,17.9386 0.0709,26.46661 2.67834,12.64201 8.48877,20.9506 17.4116,24.89759 8.22132,3.63668 23.67714,2.23591 26.14174,-2.36924 0.60942,-1.1387 0.99869,-9.38952 0.95162,-20.16991 -0.0438,-10.03363 -0.0613,-18.80547 -0.0389,-19.49297 0.0288,-0.88445 2.21844,-1.25 7.48752,-1.25 l 7.44683,0 0.30317,22.75 c 0.18876,14.16372 -0.0742,23.20038 -0.69682,23.9433 -1.74114,2.07771 -17.66906,6.04076 -26.5,6.5935 -4.675,0.29262 -10.80076,0.17947 -13.6128,-0.25145 z m 325.6128,-0.067 c -23.49654,-3.65752 -36.97044,-21.13962 -36.97044,-47.96837 0,-24.33189 11.09923,-40.99816 31.45683,-47.23462 8.9223,-2.73331 23.98542,-2.88237 33.49024,-0.33141 9.71539,2.60747 10.02337,2.87176 10.02337,8.60121 0,5.30497 -0.95331,6.06506 -4.52749,3.60985 -4.83743,-3.32298 -13.61976,-5.64503 -21.3503,-5.64503 -6.70278,0 -8.66595,0.43134 -13.92573,3.05968 -12.08806,6.04048 -18.16175,18.72855 -18.16175,37.94032 0,19.34282 6.67259,32.87817 18.87588,38.28971 5.7032,2.52908 16.85431,2.73598 22.31892,0.4141 l 3.72953,-1.58465 0.27047,-20.80958 0.27047,-20.80958 7.71328,-0.2914 7.71328,-0.29141 0.28672,22.79141 c 0.17822,14.16673 -0.0917,23.24297 -0.71328,23.9847 -1.73987,2.0762 -17.66575,6.04044 -26.5,6.59634 -4.675,0.29418 -10.975,0.1496 -14,-0.32127 z m -175.81816,-2.56502 c -3.86865,-1.92783 -5.91544,-3.79527 -7.94634,-7.25 l -2.7355,-4.65333 -0.31598,-30.25 -0.31598,-30.25 7.52207,0 7.52207,0 0.29391,28.42878 c 0.27942,27.0276 0.39695,28.56783 2.3845,31.25 4.50457,6.07884 16.20631,6.88733 22.54063,1.55735 5.54888,-4.66907 5.86878,-6.59038 5.86878,-35.24782 l 0,-26.07593 7.25,0.29381 7.25,0.29381 0,36.5 0,36.5 -7,0 -7,0 -0.31336,-3.25 c -0.17235,-1.7875 -0.53987,-3.25 -0.81672,-3.25 -0.27685,0 -1.96006,1.11108 -3.74047,2.46906 -5.35107,4.08146 -10.04233,5.53094 -17.90099,5.53094 -5.89316,0 -8.36051,-0.51065 -12.54662,-2.59667 z m -90.72629,0.34143 c -0.26492,-0.69038 -0.3633,-17.22788 -0.21861,-36.75 l 0.26306,-35.49476 7,0 7,0 0.31336,3.25 c 0.36585,3.79441 1.1656,4.03625 3.78165,1.14359 3.26983,-3.61556 9.56468,-6.1691 16.40499,-6.65477 11.51874,-0.81784 19.80768,2.92741 23.75,10.73114 2.18599,4.32711 2.25,5.31673 2.25,34.78574 l 0,30.33192 -7.13265,-0.29381 -7.13265,-0.29381 0.11809,-25 c 0.13618,-28.83087 -0.37915,-32.79411 -4.77482,-36.72164 -2.73591,-2.44453 -3.90448,-2.77836 -9.72571,-2.77836 -7.66249,0 -11.70209,1.95311 -14.85226,7.18093 -1.8469,3.065 -2.02364,5.40506 -2.30878,30.56907 l -0.30878,27.25 -6.9726,0 c -4.67112,0 -7.1316,-0.41432 -7.45429,-1.25524 z m 160.54445,-46.24476 0,-47.5 18.88517,0 c 21.51592,0 26.41759,0.99941 33.14526,6.75804 13.00138,11.1287 11.20385,33.15997 -3.404,41.72074 -6.51283,3.81677 -9.94316,4.67043 -21.62643,5.38185 l -10.5,0.63937 -0.27071,20.25 -0.2707,20.25 -7.9793,0 -7.97929,0 0,-47.5 z m 34.67735,-2.83315 c 6.21113,-3.2119 9.33066,-9.54226 9.3062,-18.88473 -0.0328,-12.53382 -7.28421,-19.11425 -20.46485,-18.57126 l -7.0187,0.28914 -0.27272,18.92694 c -0.20813,14.44469 0.0287,19.13522 1,19.8064 1.82801,1.26317 14.11026,0.16059 17.45007,-1.56649 z M 337.49998,715.1341 c 0.55,-0.53957 4.375,-1.76566 8.5,-2.72465 16.06402,-3.73459 30.37266,-10.98701 44.03246,-22.31812 4.46164,-3.70102 8.64205,-6.72913 9.2898,-6.72913 1.34329,0 2.16314,11.38279 0.93633,13 -0.41722,0.55 -3.23359,2.28569 -6.25859,3.85709 -3.025,1.5714 -8.875,4.60188 -13,6.7344 -4.125,2.13253 -11.1,4.80564 -15.5,5.94025 -8.67359,2.23662 -29.71213,3.91983 -28,2.24016 z m -79.83333,-0.93857 c -0.83315,-0.83315 -0.88875,-41.59103 -0.0597,-43.75154 0.42198,-1.09967 1.90471,-1.58179 4.86467,-1.58179 l 4.25768,0 0.51759,-20.25 c 0.46685,-18.2651 0.77312,-21.04184 3.12463,-28.32841 14.19485,-43.98536 69.49225,-57.45062 102.05025,-24.84986 13.92847,13.94675 18.5507,28.57688 18.56999,58.77706 l 0.008,12.84879 -2.99762,2.8002 c -3.76996,3.52166 -17.71191,9.40768 -29.62029,12.50509 -9.78851,2.54603 -29.91002,5.65976 -48.19819,7.45851 -19.72128,1.93969 -33.73611,7.90214 -45.33825,19.28862 -6.27409,6.15747 -6.17501,6.08731 -7.17898,5.08333 z M 361.49998,649.3622 c 0,-17.36237 -0.18625,-19.403 -2.16089,-23.67567 -3.06057,-6.62237 -9.61551,-13.32149 -16.1976,-16.55386 -7.49272,-3.67957 -20.02491,-3.95475 -27.31718,-0.59981 -6.61362,3.04271 -13.31819,9.59903 -16.55386,16.18783 -2.66089,5.41838 -2.7836,6.34614 -3.1024,23.45681 -0.18256,9.79841 -0.0818,18.46716 0.22394,19.26389 0.47239,1.23103 5.4033,1.40895 32.83193,1.1847 l 32.27606,-0.26389 0,-19 z m -76.52752,-33.45712 c 4.8066,-7.49043 14.91776,-16.39123 23.23128,-20.45037 9.99225,-4.8788 17.44122,-6.57809 29.25634,-6.67408 l 10.0399,-0.0816 -3.5,-1.63859 c -2.60174,-1.21806 -6.32311,-1.62686 -14.5,-1.59286 -12.20954,0.0508 -18.4734,1.81244 -28,7.87482 -8.82396,5.61523 -20.5,20.4162 -20.5,25.98654 0,2.38091 0.55393,1.90347 3.97248,-3.42388 z"
       style="fill:#1199de" />
  </g>
</svg>
