<?xml version="1.0" encoding="UTF-8" standalone="no"?>
<!-- Created with Inkscape (http://www.inkscape.org/) -->

<svg
   xmlns:dc="http://purl.org/dc/elements/1.1/"
   xmlns:cc="http://creativecommons.org/ns#"
   xmlns:rdf="http://www.w3.org/1999/02/22-rdf-syntax-ns#"
   xmlns:svg="http://www.w3.org/2000/svg"
   xmlns="http://www.w3.org/2000/svg"
   xmlns:sodipodi="http://sodipodi.sourceforge.net/DTD/sodipodi-0.dtd"
   xmlns:inkscape="http://www.inkscape.org/namespaces/inkscape"
   width="1052.3622"
   height="744.09448"
   id="svg4567"
   version="1.1"
   inkscape:version="0.48+devel r9772"
   sodipodi:docname="New document 10">
  <defs
     id="defs4569" />
  <sodipodi:namedview
     id="base"
     pagecolor="#ffffff"
     bordercolor="#666666"
     borderopacity="1.0"
     inkscape:pageopacity="0.0"
     inkscape:pageshadow="2"
     inkscape:zoom="0.93536509"
     inkscape:cx="526.18109"
     inkscape:cy="372.04724"
     inkscape:document-units="px"
     inkscape:current-layer="layer1"
     showgrid="false"
     inkscape:window-width="1440"
     inkscape:window-height="851"
     inkscape:window-x="0"
     inkscape:window-y="1"
     inkscape:window-maximized="1" />
  <metadata
     id="metadata4572">
    <rdf:RDF>
      <cc:Work
         rdf:about="">
        <dc:format>image/svg+xml</dc:format>
        <dc:type
           rdf:resource="http://purl.org/dc/dcmitype/StillImage" />
        <dc:title></dc:title>
      </cc:Work>
    </rdf:RDF>
  </metadata>
  <g
     inkscape:label="Layer 1"
     inkscape:groupmode="layer"
     id="layer1"
     transform="translate(0,-308.2677)">
    <g
       id="g4613"
       transform="matrix(2.5697626,0,0,2.5697626,-358.06524,-946.55456)"
       style="fill:#333333">
      <path
         d="m 172.28123,615.14767 -11.92872,32.34684 23.90096,0 -11.97224,-32.34684 m -4.96305,-8.66355 9.96962,0 24.77167,64.99842 -9.14244,0 -5.92082,-16.67407 -29.29936,0 -5.92082,16.67407 -9.27305,0 24.8152,-64.99842"
         style="font-size:89.16059875000000545px;font-style:normal;font-weight:normal;line-height:125%;letter-spacing:0px;word-spacing:0px;fill:#333333;fill-opacity:1;stroke:none;font-family:Sans"
         id="path4580"
         inkscape:connector-curvature="0" />
      <path
         d="m 211.50666,606.48412 11.84165,0 28.82046,54.37577 0,-54.37577 8.53295,0 0,64.99842 -11.84164,0 -28.82047,-54.37577 0,54.37577 -8.53295,0 0,-64.99842"
         style="font-size:89.16059875000000545px;font-style:normal;font-weight:normal;line-height:125%;letter-spacing:0px;word-spacing:0px;fill:#333333;fill-opacity:1;stroke:none;font-family:Sans"
         id="path4582"
         inkscape:connector-curvature="0" />
      <path
         d="m 274.45892,606.48412 51.06708,0 0,6.70446 -41.09746,50.89294 42.09878,0 0,7.40102 -53.06971,0 0,-6.70446 41.09746,-50.89293 -40.09615,0 0,-7.40103"
         style="font-size:89.16059875000000545px;font-style:normal;font-weight:normal;line-height:125%;letter-spacing:0px;word-spacing:0px;fill:#333333;fill-opacity:1;stroke:none;font-family:Sans"
         id="path4584"
         inkscape:connector-curvature="0" />
      <path
         d="m 383.34634,615.14767 -11.92872,32.34684 23.90096,0 -11.97224,-32.34684 m -4.96305,-8.66355 9.96962,0 24.77167,64.99842 -9.14244,0 -5.92082,-16.67407 -29.29936,0 -5.92082,16.67407 -9.27305,0 24.8152,-64.99842"
         style="font-size:89.16059875000000545px;font-style:normal;font-weight:normal;line-height:125%;letter-spacing:0px;word-spacing:0px;fill:#333333;fill-opacity:1;stroke:none;font-family:Sans"
         id="path4588"
         inkscape:connector-curvature="0" />
      <path
         d="m 422.57178,606.48412 11.84164,0 28.82047,54.37577 0,-54.37577 8.53294,0 0,64.99842 -11.84164,0 -28.82047,-54.37577 0,54.37577 -8.53294,0 0,-64.99842"
         style="font-size:89.16059875000000545px;font-style:normal;font-weight:normal;line-height:125%;letter-spacing:0px;word-spacing:0px;fill:#333333;fill-opacity:1;stroke:none;font-family:Sans"
         id="path4590"
         inkscape:connector-curvature="0" />
      <path
         d="m 515.65058,612.44848 c -6.38523,5e-5 -11.46436,2.37999 -15.23741,7.13981 -3.74406,4.75992 -5.61609,11.2467 -5.61607,19.46034 -2e-5,8.18469 1.87201,14.65696 5.61607,19.41681 3.77305,4.75989 8.85218,7.13982 15.23741,7.13982 6.38516,0 11.43526,-2.37993 15.15033,-7.13982 3.744,-4.75985 5.61602,-11.23212 5.61608,-19.41681 -6e-5,-8.21364 -1.87208,-14.70042 -5.61608,-19.46034 -3.71507,-4.75982 -8.76517,-7.13976 -15.15033,-7.13981 m 0,-7.13982 c 9.11337,7e-5 16.3983,3.06206 21.85479,9.18598 5.45638,6.09502 8.1846,14.27967 8.18467,24.55399 -7e-5,10.24537 -2.72829,18.43003 -8.18467,24.554 -5.45649,6.09496 -12.74142,9.14244 -21.85479,9.14244 -9.14247,0 -16.45642,-3.04748 -21.94187,-9.14244 -5.45645,-6.09495 -8.18467,-14.27961 -8.18466,-24.554 -10e-6,-10.27432 2.72821,-18.45897 8.18466,-24.55399 5.48545,-6.12392 12.7994,-9.18591 21.94187,-9.18598"
         style="font-size:89.16059875000000545px;font-style:normal;font-weight:normal;line-height:125%;letter-spacing:0px;word-spacing:0px;fill:#333333;fill-opacity:1;stroke:none;font-family:Sans"
         id="path4592"
         inkscape:connector-curvature="0" />
      <g
         transform="translate(-4,0)"
         id="g4607"
         style="fill:#333333">
        <path
           inkscape:connector-curvature="0"
           id="path4586"
           style="font-size:89.16059875000000545px;font-style:normal;font-weight:normal;line-height:125%;letter-spacing:0px;word-spacing:0px;fill:#333333;fill-opacity:1;stroke:none;font-family:Sans"
           d="m 354.61846,608.86656 -6.49756,12.70772 0,49.90826 -8.79416,0 0,-52.07411 7.58048,-13.1409"
           sodipodi:nodetypes="cccccc" />
        <path
           sodipodi:type="arc"
           style="fill:#333333;stroke:none"
           id="path4601"
           sodipodi:cx="351.51773"
           sodipodi:cy="278.65295"
           sodipodi:rx="2.8156073"
           sodipodi:ry="2.8156073"
           d="m 354.33334,278.65295 c 0,1.55502 -1.26059,2.81561 -2.81561,2.81561 -1.55502,0 -2.81561,-1.26059 -2.81561,-2.81561 0,-1.55501 1.26059,-2.8156 2.81561,-2.8156 1.55502,0 2.81561,1.26059 2.81561,2.8156 z"
           transform="matrix(1.6923077,0,0,1.6923077,-239.2433,126.61655)" />
        <rect
           style="fill:#333333;stroke:none"
           id="rect4603"
           width="9.3131628"
           height="3.4653628"
           x="346.53629"
           y="315.90561"
           transform="translate(0,308.2677)" />
        <rect
           style="fill:#333333;stroke:none"
           id="rect4605"
           width="1.5160962"
           height="44.616547"
           x="353.03381"
           y="318.72122"
           transform="translate(0,308.2677)" />
      </g>
    </g>
  </g>
</svg>
