<?xml version="1.0" encoding="UTF-8" standalone="no"?>
<!-- Created with Inkscape (http://www.inkscape.org/) -->

<svg
   xmlns:dc="http://purl.org/dc/elements/1.1/"
   xmlns:cc="http://creativecommons.org/ns#"
   xmlns:rdf="http://www.w3.org/1999/02/22-rdf-syntax-ns#"
   xmlns:svg="http://www.w3.org/2000/svg"
   xmlns="http://www.w3.org/2000/svg"
   xmlns:sodipodi="http://sodipodi.sourceforge.net/DTD/sodipodi-0.dtd"
   xmlns:inkscape="http://www.inkscape.org/namespaces/inkscape"
   width="1052.3622"
   height="744.09448"
   id="svg3987"
   version="1.1"
   inkscape:version="0.91 r13725"
   sodipodi:docname="oliva-bis.svg">
  <defs
     id="defs3989" />
  <sodipodi:namedview
     id="base"
     pagecolor="#ffffff"
     bordercolor="#666666"
     borderopacity="1.0"
     inkscape:pageopacity="0.0"
     inkscape:pageshadow="2"
     inkscape:zoom="0.87354498"
     inkscape:cx="525.03633"
     inkscape:cy="372.04724"
     inkscape:document-units="px"
     inkscape:current-layer="layer1"
     showgrid="false"
     inkscape:window-width="1440"
     inkscape:window-height="851"
     inkscape:window-x="0"
     inkscape:window-y="1"
     inkscape:window-maximized="1" />
  <metadata
     id="metadata3992">
    <rdf:RDF>
      <cc:Work
         rdf:about="">
        <dc:format>image/svg+xml</dc:format>
        <dc:type
           rdf:resource="http://purl.org/dc/dcmitype/StillImage" />
        <dc:title />
      </cc:Work>
    </rdf:RDF>
  </metadata>
  <g
     inkscape:label="Layer 1"
     inkscape:groupmode="layer"
     id="layer1"
     transform="translate(0,-308.2677)">
    <path
       sodipodi:type="arc"
       style="fill:none;stroke:#677821;stroke-width:42.58259964;stroke-linecap:butt;stroke-linejoin:miter;stroke-miterlimit:4;stroke-dasharray:none;stroke-opacity:1"
       id="path3995"
       sodipodi:cx="462.96323"
       sodipodi:cy="531.99908"
       sodipodi:rx="114.37843"
       sodipodi:ry="148.323"
       d="M 376.20867,435.33875 A 114.37843,148.323 0 0 1 537.46405,419.45542 114.37843,148.323 0 0 1 549.78346,628.56022 114.37843,148.323 0 0 1 388.53893,644.62786 114.37843,148.323 0 0 1 376.0774,435.53723"
       transform="matrix(0.95728228,0.28915503,-0.28915503,0.95728228,0,0)"
       sodipodi:start="3.8514006"
       sodipodi:end="3.8496377"
       sodipodi:open="true" />
    <path
       sodipodi:type="arc"
       style="fill:#677821;fill-rule:evenodd;stroke:none"
       id="path4505"
       sodipodi:cx="456.32193"
       sodipodi:cy="450.47983"
       sodipodi:rx="22.137634"
       sodipodi:ry="22.137634"
       d="m 439.53082,436.05299 a 22.137634,22.137634 0 0 1 30.98203,-2.56412 22.137634,22.137634 0 0 1 2.99658,30.94319 22.137634,22.137634 0 0 1 -30.89833,3.42845 22.137634,22.137634 0 0 1 -3.85965,-30.84743 l 17.57048,13.46675 z"
       transform="matrix(0.95728228,0.28915503,-0.28915503,0.95728228,0,0)"
       sodipodi:start="3.8514006"
       sodipodi:end="3.7955337" />
    <path
       style="font-style:normal;font-variant:normal;font-weight:bold;font-stretch:normal;font-size:72.33191681px;line-height:125%;font-family:'Savoye LET';-inkscape-font-specification:'Savoye LET Bold';text-align:start;letter-spacing:0px;word-spacing:0px;writing-mode:lr-tb;text-anchor:start;fill:#677821;fill-opacity:1;stroke:none"
       inkscape:connector-curvature="0"
       id="path4514"
       d="m 533.7989,313.35224 -107.70058,595.292 -3.67283,20.13407 c -3.51187,18.92635 -5.62259,34.97392 -6.3321,48.14257 -0.57882,10.74314 -0.004,19.63675 1.7257,26.68092 1.93896,6.7079 4.53324,10.1496 7.78285,10.3245 5.92554,0.3194 16.07834,-11.9931 30.45822,-36.93735 l 4.19546,7.52475 -3.1753,5.56352 c -12.14654,22.63168 -21.02435,37.96698 -26.6335,46.00608 -5.59048,7.6926 -10.58397,11.4205 -14.98033,11.1836 -5.73451,-0.3089 -10.49193,-6.3 -14.27224,-17.973 -3.57044,-12.0092 -4.95423,-25.4645 -4.15138,-40.36609 0.56016,-10.39635 2.68954,-26.79038 6.38812,-49.18229 L 502.26448,338.2412 533.7989,313.35224" />
    <path
       style="font-style:normal;font-variant:normal;font-weight:bold;font-stretch:normal;font-size:72.33191681px;line-height:125%;font-family:'Savoye LET';-inkscape-font-specification:'Savoye LET Bold';text-align:start;letter-spacing:0px;word-spacing:0px;writing-mode:lr-tb;text-anchor:start;fill:#677821;fill-opacity:1;stroke:none"
       d="m 548.73046,568.01616 -25.26832,94.46909 c -4.21138,15.50565 -6.31707,27.94839 -6.31707,37.32829 0,6.12568 1.05284,11.10276 3.15853,14.93127 2.10568,3.82854 4.88137,5.74284 8.32707,5.74276 5.9342,8e-5 15.40979,-7.08275 28.42684,-21.24834 l 4.5943,4.02001 -2.87145,3.15852 c -10.91136,12.82559 -18.95126,21.53549 -24.11972,26.12971 -5.16859,4.40283 -9.95428,6.60431 -14.35704,6.60431 -5.93421,0 -11.00705,-2.96716 -15.21843,-8.90139 -4.01999,-6.12567 -6.02999,-13.68704 -6.02999,-22.68409 0,-5.74275 1.14862,-14.8355 3.4457,-27.27833 l 18.08987,-100.49906 28.13971,-11.77275"
       id="path4516" />
    <path
       style="font-style:normal;font-variant:normal;font-weight:bold;font-stretch:normal;font-size:72.33191681px;line-height:125%;font-family:'Savoye LET';-inkscape-font-specification:'Savoye LET Bold';text-align:start;letter-spacing:0px;word-spacing:0px;writing-mode:lr-tb;text-anchor:start;fill:#677821;fill-opacity:1;stroke:none"
       inkscape:connector-curvature="0"
       id="path4518"
       d="m 584.04868,579.78891 25.84264,-11.77275 0,7.46558 c 0.57397,27.94849 2.20137,57.33251 4.88137,88.15212 1.53138,16.07989 2.87137,28.04409 4.01999,35.89253 1.14854,7.65705 2.48853,12.82558 4.01999,15.50558 1.53137,2.68 3.63706,4.01999 6.31706,4.01992 7.08277,7e-5 19.71687,-13.49551 37.90254,-40.48677 16.27117,-23.73686 24.40677,-45.65519 24.40686,-65.75507 -9e-5,-7.08265 -0.86147,-12.9212 -2.58421,-17.51556 -1.72294,-4.78554 -4.97725,-9.57121 -9.76277,-14.35707 l 21.53549,-20.09979 c 6.69984,8.80585 10.04984,19.52565 10.0499,32.1597 -6e-5,25.45988 -15.12281,59.05525 -45.36812,100.78622 -9.1886,12.63421 -18.95134,23.92842 -29.28831,33.88255 -4.78577,4.40283 -8.70999,7.46567 -11.77275,9.18851 -2.87145,1.91422 -5.74284,2.87139 -8.6142,2.87139 -4.5943,0 -7.94421,-1.81853 -10.0499,-5.45568 -2.10577,-3.63707 -3.73286,-10.52844 -4.88137,-20.67402 L 584.04868,579.78891" />
    <path
       style="font-style:normal;font-variant:normal;font-weight:bold;font-stretch:normal;font-size:72.33191681px;line-height:125%;font-family:'Savoye LET';-inkscape-font-specification:'Savoye LET Bold';text-align:start;letter-spacing:0px;word-spacing:0px;writing-mode:lr-tb;text-anchor:start;fill:#677821;fill-opacity:1;stroke:none"
       inkscape:connector-curvature="0"
       id="path4520"
       d="m 888.70453,566.29331 -26.99117,105.0933 c -2.87154,11.48566 -4.30723,20.48272 -4.30706,26.99118 -1.7e-4,5.74281 1.24414,10.71997 3.73275,14.93135 2.48846,4.21136 5.5513,6.31704 9.18851,6.31704 5.55122,0 14.73974,-6.79558 27.56549,-20.38695 l 4.0199,4.02001 -3.15852,3.73275 c -10.14575,11.67704 -17.99428,19.90841 -23.54549,24.6941 -5.36007,4.59421 -10.05005,6.89137 -14.06989,6.89137 -6.12576,0 -11.48568,-3.15854 -16.07981,-9.47567 -4.40291,-6.50845 -6.60437,-13.97412 -6.60422,-22.39687 -1.5e-4,-6.12568 2.29699,-20.00411 6.89138,-41.63537 l 2.29707,-10.91137 c -7.08291,16.46282 -16.55852,32.25547 -28.42686,47.37821 -19.9085,25.26833 -38.95546,37.90246 -57.14096,37.90246 -10.91128,0 -19.52548,-3.92422 -25.84263,-11.77275 -6.31704,-7.84844 -9.47559,-18.37697 -9.47559,-31.58539 0,-17.99411 5.07285,-36.8496 15.21843,-56.56664 10.33705,-19.71687 23.06695,-35.89236 38.18969,-48.52675 15.31403,-12.82541 30.14961,-19.23816 44.50674,-19.23833 15.12257,1.7e-4 26.41678,5.55154 33.88255,16.65412 l 3.15852,-10.91136 26.99117,-11.19844 m -33.02108,36.75392 c -2.29731,-7.27405 -6.22153,-12.92112 -11.77283,-16.94128 -5.35998,-4.21121 -11.58136,-6.31689 -18.6641,-6.31704 -8.42284,1.5e-4 -17.3242,3.92437 -26.70402,11.77272 -9.37997,7.65723 -17.99419,18.37712 -25.84264,32.1597 -6.12567,10.91145 -11.2942,22.97134 -15.50558,36.17969 -4.01999,13.20851 -6.02991,24.11979 -6.02991,32.73401 0,9.76275 1.81854,17.41988 5.45569,22.97117 3.82845,5.55145 9.18845,8.32713 16.0798,8.32707 8.8056,6e-5 17.99411,-4.11561 27.56549,-12.34698 9.57127,-8.23136 19.04688,-20.00411 28.42684,-35.31831 5.74276,-8.8055 10.24129,-17.61118 13.4956,-26.41686 3.25423,-8.8055 6.89129,-21.05686 10.91137,-36.754 l 2.58429,-10.04989" />
  </g>
</svg>
