<?xml version="1.0" encoding="UTF-8" standalone="no"?>
<!-- Created with Inkscape (http://www.inkscape.org/) -->

<svg
   xmlns:dc="http://purl.org/dc/elements/1.1/"
   xmlns:cc="http://creativecommons.org/ns#"
   xmlns:rdf="http://www.w3.org/1999/02/22-rdf-syntax-ns#"
   xmlns:svg="http://www.w3.org/2000/svg"
   xmlns="http://www.w3.org/2000/svg"
   xmlns:sodipodi="http://sodipodi.sourceforge.net/DTD/sodipodi-0.dtd"
   xmlns:inkscape="http://www.inkscape.org/namespaces/inkscape"
   width="297mm"
   height="210mm"
   viewBox="0 0 1052.3622 744.09448"
   id="svg2"
   version="1.1"
   inkscape:version="0.91 r13725"
   sodipodi:docname="parigi.svg">
  <defs
     id="defs4" />
  <sodipodi:namedview
     id="base"
     pagecolor="#ffffff"
     bordercolor="#666666"
     borderopacity="1.0"
     inkscape:pageopacity="0.0"
     inkscape:pageshadow="2"
     inkscape:zoom="0.95283598"
     inkscape:cx="526.1811"
     inkscape:cy="372.04724"
     inkscape:document-units="px"
     inkscape:current-layer="layer1"
     showgrid="false"
     inkscape:window-width="1440"
     inkscape:window-height="851"
     inkscape:window-x="0"
     inkscape:window-y="1"
     inkscape:window-maximized="1" />
  <metadata
     id="metadata7">
    <rdf:RDF>
      <cc:Work
         rdf:about="">
        <dc:format>image/svg+xml</dc:format>
        <dc:type
           rdf:resource="http://purl.org/dc/dcmitype/StillImage" />
        <dc:title></dc:title>
      </cc:Work>
    </rdf:RDF>
  </metadata>
  <g
     inkscape:label="Livello 1"
     inkscape:groupmode="layer"
     id="layer1"
     transform="translate(0,-308.26772)">
    <g
       id="g4265"
       transform="matrix(1.2825941,0,0,1.2825941,-105.16012,-170.75056)">
      <g
         transform="matrix(0.68613154,0,0,0.68613154,102.14392,430.8101)"
         id="g4210">
        <path
           style="fill:#808184"
           inkscape:connector-curvature="0"
           d="m 382.967,492.849 c -0.3,-0.984 -1.188,-3.678 -2.118,-4.463 -1.106,-0.934 -5.816,-2.234 -6.4,-2.393 -0.039,-0.01 -0.06,-0.016 -0.06,-0.016 l -53.854,-94.633 0.234,-0.248 3.794,-4.02 0,-13.616 -12.696,0 -5.707,-12.383 -3.188,-7.018 c -0.908,-2.023 -1.835,-4.084 -2.891,-6.52 l -0.89,-2.072 -0.69,-1.684 c -0.398,-1.039 -0.804,-2.232 -1.193,-3.41 -0.658,-2.006 -1.311,-4.098 -2.098,-6.705 -1.945,-6.502 -2.924,-9.949 -4.756,-16.465 -1.693,-6.051 -2.635,-9.49 -4.383,-15.945 l -0.002,0 -0.562,-2.07 -0.375,-1.645 8.167,-2.063 0,-7.918 -10.91,-2.354 c -1.069,-4.973 -1.763,-8.307 -2.818,-13.613 -1.274,-6.51 -1.936,-10 -2.996,-16.547 -0.171,-1.087 -0.322,-2.09 -0.459,-3.031 -0.195,-1.361 -0.359,-2.628 -0.523,-3.94 -0.273,-2.177 -0.53,-4.387 -0.834,-7.114 -0.745,-6.815 -1.104,-10.382 -1.745,-17.089 -0.559,-5.979 -0.88,-9.502 -1.322,-15.478 -0.428,-6.072 -0.625,-9.633 -0.967,-15.66 l -0.89,-16.637 -0.777,-15.409 -0.836,-17.163 -0.791,-16.701 -0.687,-14.825 -0.744,-16.348 -0.596,-13.251 0.119,0.105 6.03,-8.414 0,-5.364 -2.91,0.081 0,-2.56 1.428,0 0,-7.939 -0.01,-0.07 c -0.008,-0.06 -0.141,-1.081 -0.651,-2.442 -0.512,-1.357 -1.404,-3.071 -2.991,-4.449 -1.604,-1.383 -3.876,-2.619 -5.78,-3.556 -1.146,-0.561 -2.147,-1 -2.771,-1.265 l -1.637,-32.37 -2.229,0 -1.634,32.37 c -0.623,0.265 -1.624,0.704 -2.771,1.265 -1.904,0.937 -4.176,2.173 -5.781,3.556 -1.586,1.379 -2.478,3.092 -2.99,4.449 -0.511,1.36 -0.644,2.382 -0.652,2.441 l -0.009,0.07 0,7.94 1.428,0 0,2.56 -2.91,-0.081 0,5.364 5.972,8.331 0.181,-0.135 -0.601,13.428 -0.737,16.165 -0.744,16.005 -0.739,15.641 -0.797,16.36 -0.817,16.213 -0.891,16.637 c -0.337,5.914 -0.531,9.45 -0.94,15.319 -0.457,6.202 -0.782,9.75 -1.354,15.875 -0.639,6.704 -0.999,10.27 -1.751,17.132 l 0.001,0 c -0.299,2.681 -0.555,4.864 -0.822,7.015 -0.164,1.313 -0.328,2.579 -0.523,3.94 -0.137,0.941 -0.29,1.948 -0.462,3.035 -1.06,6.557 -1.722,10.047 -3,16.58 -1.051,5.285 -1.745,8.617 -2.812,13.576 l -10.91,2.354 0,7.918 8.167,2.063 -0.375,1.645 -0.562,2.07 -0.002,0 c -1.748,6.455 -2.69,9.891 -4.381,15.939 -1.836,6.531 -2.815,9.977 -4.768,16.504 -0.782,2.594 -1.432,4.674 -2.088,6.672 -0.39,1.178 -0.795,2.371 -1.191,3.41 l -0.692,1.684 -0.848,1.98 c -1.074,2.475 -2.015,4.563 -2.933,6.611 l -3.285,7.227 -5.612,12.174 -12.693,0 0,13.623 4.054,4.215 -53.88,94.68 c 0,0 -5.276,1.412 -6.459,2.408 -1.143,0.965 -2.227,4.824 -2.227,4.824 l 0,2.895 55.105,0 0,-6.197 c 0,0 -0.853,-1.193 -1.191,-2.051 l 4.914,-9.961 0,0.002 7.305,-14.797 6.574,-13.32 0.221,-0.445 c 0.19,-0.17 0.377,-0.346 0.57,-0.512 l 0.085,-0.076 c 0.552,-0.477 1.112,-0.943 1.683,-1.402 0.783,-0.629 1.583,-1.236 2.396,-1.83 0.225,-0.162 0.451,-0.322 0.676,-0.48 0.757,-0.537 1.521,-1.061 2.299,-1.563 0.179,-0.117 0.357,-0.227 0.537,-0.338 0.73,-0.463 1.472,-0.912 2.223,-1.348 0.203,-0.117 0.402,-0.234 0.606,-0.352 0.809,-0.459 1.63,-0.898 2.46,-1.326 0.232,-0.119 0.466,-0.24 0.7,-0.357 0.93,-0.467 1.865,-0.92 2.814,-1.346 l 0.145,-0.063 c 0.896,-0.4 1.803,-0.777 2.716,-1.143 0.267,-0.109 0.54,-0.217 0.809,-0.32 0.838,-0.326 1.68,-0.637 2.529,-0.932 0.29,-0.104 0.578,-0.197 0.869,-0.297 0.793,-0.268 1.59,-0.523 2.393,-0.766 0.204,-0.064 0.407,-0.129 0.614,-0.189 0.916,-0.271 1.841,-0.52 2.767,-0.762 0.247,-0.064 0.495,-0.131 0.742,-0.191 0.998,-0.25 1.999,-0.482 3.007,-0.699 0.2,-0.041 0.399,-0.082 0.601,-0.123 0.855,-0.176 1.712,-0.34 2.571,-0.492 0.273,-0.049 0.545,-0.098 0.817,-0.145 0.922,-0.154 1.845,-0.297 2.771,-0.426 0.264,-0.035 0.528,-0.072 0.792,-0.107 1.013,-0.133 2.027,-0.256 3.045,-0.355 l 0.149,-0.018 c 1.036,-0.102 2.077,-0.184 3.117,-0.256 0.172,-0.012 0.345,-0.025 0.515,-0.037 1.054,-0.068 2.105,-0.115 3.16,-0.152 0.243,-0.008 0.486,-0.016 0.73,-0.021 0.888,-0.023 1.776,-0.039 2.664,-0.043 0.151,0 0.304,-0.002 0.455,-0.002 0.153,0 0.305,0.002 0.457,0.002 0.89,0.004 1.776,0.02 2.664,0.043 0.242,0.006 0.487,0.014 0.729,0.021 1.057,0.037 2.108,0.084 3.16,0.152 0.172,0.012 0.345,0.025 0.518,0.037 1.041,0.072 2.08,0.154 3.118,0.256 l 0.144,0.016 c 1.021,0.102 2.034,0.225 3.049,0.357 0.264,0.035 0.526,0.072 0.79,0.107 0.926,0.129 1.85,0.271 2.769,0.426 0.276,0.047 0.548,0.096 0.822,0.145 0.858,0.152 1.712,0.316 2.563,0.492 0.202,0.041 0.407,0.082 0.607,0.123 1.006,0.217 2.008,0.449 3.002,0.697 0.252,0.063 0.503,0.131 0.753,0.193 0.924,0.242 1.843,0.49 2.756,0.76 0.212,0.063 0.42,0.131 0.631,0.195 0.797,0.24 1.591,0.496 2.379,0.762 0.29,0.1 0.58,0.193 0.871,0.295 0.845,0.295 1.683,0.605 2.516,0.93 0.281,0.107 0.562,0.219 0.841,0.33 0.89,0.359 1.776,0.729 2.651,1.117 l 0.199,0.088 c 0.946,0.426 1.881,0.875 2.808,1.34 0.232,0.117 0.461,0.234 0.691,0.354 0.832,0.43 1.657,0.871 2.471,1.332 0.199,0.115 0.395,0.23 0.593,0.346 0.757,0.438 1.504,0.889 2.241,1.355 0.174,0.111 0.35,0.217 0.522,0.33 0.782,0.506 1.55,1.029 2.306,1.568 0.224,0.156 0.447,0.316 0.67,0.477 0.815,0.596 1.62,1.203 2.403,1.834 0.568,0.457 1.127,0.922 1.679,1.398 l 0.088,0.078 c 0.194,0.17 0.381,0.344 0.569,0.514 l 0.221,0.443 6.574,13.32 6.572,13.318 5.646,11.438 c -0.312,0.789 -1.057,1.859 -1.173,2.027 l -0.019,0.023 0,6.197 55.105,0 0,-2.895 c 0.001,10e-4 -0.037,-0.133 -0.106,-0.36 z m -151.411,-121.797 3.452,-8.446 c 0.688,-1.869 4.541,-13.369 4.861,-14.606 0.521,-2.023 5.892,-25.469 6.279,-27.328 l 17.747,0 c 0.39,1.861 5.76,25.305 6.281,27.328 0.32,1.237 4.174,12.737 4.859,14.606 l 3.454,8.446 -46.933,0 z"
           id="path4212" />
        <g
           id="g4214">
          <path
             style="fill:#58595b"
             inkscape:connector-curvature="0"
             d="m 282.047,372.61 -0.432,-1.11 -0.229,-0.574 0.003,-0.002 -2.635,-6.773 c -0.813,-2.118 -1.618,-4.21 -2.611,-6.89 l -0.071,-0.193 c -0.187,-0.511 -0.38,-1.035 -0.583,-1.593 l 0.002,-0.001 -0.277,-0.762 c -0.294,-0.828 -0.588,-1.66 -0.894,-2.61 -0.546,-1.724 -0.927,-3.113 -1.307,-4.516 -0.616,-2.297 -1.181,-4.539 -1.839,-7.259 -0.027,-0.106 -0.05,-0.206 -0.075,-0.31 -0.116,-0.478 -0.234,-0.967 -0.354,-1.478 l 10e-4,-0.002 c -1.293,-5.423 -2.06,-8.822 -3.259,-14.201 l -0.002,0 c -0.086,-0.388 -0.169,-0.759 -0.251,-1.126 -0.046,-0.214 -0.092,-0.422 -0.141,-0.643 -0.572,-2.586 -1.038,-4.713 -1.496,-6.823 l -20.961,0 c -0.457,2.109 -0.923,4.235 -1.494,6.823 l 0.001,0 c -0.054,0.24 -0.104,0.468 -0.157,0.7 -0.076,0.349 -0.152,0.699 -0.233,1.068 l -0.002,0 c -1.201,5.379 -1.968,8.778 -3.261,14.203 l 0.001,0 c -0.033,0.134 -0.063,0.258 -0.094,0.393 -0.108,0.45 -0.22,0.911 -0.334,1.395 l -0.004,-0.002 c -0.658,2.722 -1.225,4.964 -1.837,7.261 -0.38,1.402 -0.761,2.792 -1.307,4.518 -0.304,0.948 -0.6,1.78 -0.894,2.608 l -0.279,0.762 0.006,10e-4 c -0.205,0.558 -0.396,1.082 -0.587,1.593 l -0.069,0.193 -0.001,0 c -0.992,2.68 -1.798,4.771 -2.61,6.89 l -2.638,6.773 0.006,0.002 -0.341,0.859 -0.319,0.823 -0.007,-0.001 -0.338,0.854 54.545,0 -0.338,-0.854 -0.004,0.004 z m -50.491,-1.529 3.452,-8.446 c 0.688,-1.869 4.541,-13.369 4.861,-14.606 0.521,-2.023 5.892,-25.469 6.279,-27.328 l 17.747,0 c 0.39,1.861 5.76,25.305 6.281,27.328 0.32,1.237 4.174,12.737 4.859,14.606 l 3.454,8.446 -46.933,0 z"
             id="path4216" />
          <path
             style="fill:#58595b"
             inkscape:connector-curvature="0"
             d="m 335.771,487.116 -6.146,-12.454 -7.162,-14.508 -7.161,-14.51 -0.238,-0.482 c -0.026,-0.023 -0.053,-0.048 -0.079,-0.071 -0.66,-0.586 -1.331,-1.162 -2.016,-1.721 -0.156,-0.129 -0.309,-0.262 -0.466,-0.389 -0.847,-0.681 -1.713,-1.337 -2.592,-1.977 -0.25,-0.184 -0.504,-0.361 -0.758,-0.541 -0.816,-0.578 -1.642,-1.145 -2.484,-1.689 -0.199,-0.129 -0.403,-0.253 -0.605,-0.381 -0.787,-0.498 -1.586,-0.981 -2.394,-1.45 -0.228,-0.132 -0.452,-0.266 -0.681,-0.396 -0.885,-0.501 -1.782,-0.982 -2.688,-1.448 -0.246,-0.127 -0.492,-0.254 -0.74,-0.378 -1.011,-0.508 -2.03,-1 -3.064,-1.465 -0.068,-0.03 -0.138,-0.059 -0.206,-0.089 -0.956,-0.427 -1.925,-0.83 -2.898,-1.221 -0.305,-0.123 -0.61,-0.243 -0.916,-0.362 -0.906,-0.352 -1.818,-0.689 -2.737,-1.01 -0.318,-0.111 -0.638,-0.219 -0.958,-0.326 -0.851,-0.286 -1.705,-0.561 -2.564,-0.821 -0.238,-0.072 -0.475,-0.149 -0.713,-0.22 -0.991,-0.292 -1.989,-0.563 -2.991,-0.822 -0.276,-0.071 -0.553,-0.146 -0.83,-0.215 -1.082,-0.271 -2.169,-0.524 -3.261,-0.758 -0.222,-0.047 -0.444,-0.09 -0.666,-0.136 -0.935,-0.193 -1.872,-0.373 -2.813,-0.54 -0.282,-0.05 -0.563,-0.102 -0.847,-0.149 -0.005,-10e-4 -0.01,-10e-4 -0.016,-0.002 -1.002,-0.17 -2.009,-0.323 -3.017,-0.464 -0.291,-0.041 -0.583,-0.08 -0.874,-0.119 -1.129,-0.147 -2.26,-0.284 -3.395,-0.396 -0.012,-0.002 -0.024,-0.003 -0.037,-0.005 -1.131,-0.112 -2.267,-0.2 -3.402,-0.279 -0.206,-0.014 -0.411,-0.032 -0.617,-0.045 -1.136,-0.072 -2.273,-0.126 -3.412,-0.165 -0.277,-0.01 -0.555,-0.017 -0.833,-0.024 -0.944,-0.026 -1.89,-0.041 -2.836,-0.045 -0.18,-0.001 -0.359,-0.004 -0.539,-0.004 -0.18,0 -0.359,0.003 -0.54,0.004 -0.945,0.004 -1.89,0.019 -2.835,0.045 -0.277,0.008 -0.556,0.015 -0.834,0.024 -1.138,0.039 -2.275,0.093 -3.41,0.165 -0.207,0.013 -0.412,0.031 -0.617,0.045 -1.137,0.079 -2.271,0.167 -3.402,0.279 -0.014,0.002 -0.027,0.003 -0.04,0.005 -1.134,0.113 -2.264,0.249 -3.392,0.396 -0.291,0.039 -0.583,0.078 -0.874,0.119 -1.01,0.141 -2.018,0.295 -3.021,0.464 -0.004,0.001 -0.008,0.002 -0.011,0.002 -0.283,0.048 -0.564,0.1 -0.846,0.149 -0.941,0.167 -1.88,0.347 -2.814,0.54 -0.223,0.046 -0.445,0.089 -0.666,0.136 -1.093,0.233 -2.18,0.487 -3.262,0.758 -0.277,0.069 -0.552,0.144 -0.827,0.215 -1.002,0.26 -2,0.53 -2.991,0.822 -0.242,0.071 -0.48,0.148 -0.721,0.222 -0.856,0.26 -1.709,0.533 -2.556,0.818 -0.321,0.108 -0.644,0.216 -0.964,0.327 -0.916,0.32 -1.826,0.657 -2.729,1.008 -0.31,0.12 -0.617,0.242 -0.925,0.365 -0.972,0.391 -1.938,0.793 -2.893,1.219 -0.069,0.031 -0.141,0.06 -0.209,0.091 -1.035,0.465 -2.055,0.957 -3.065,1.464 -0.247,0.124 -0.492,0.251 -0.737,0.377 -0.906,0.467 -1.804,0.947 -2.688,1.448 -0.229,0.13 -0.455,0.265 -0.683,0.397 -0.808,0.468 -1.605,0.951 -2.393,1.449 -0.203,0.128 -0.407,0.253 -0.608,0.383 -0.848,0.548 -1.679,1.118 -2.501,1.701 -0.242,0.171 -0.484,0.342 -0.724,0.516 -0.891,0.648 -1.769,1.313 -2.626,2.004 -0.129,0.104 -0.254,0.214 -0.382,0.318 -0.717,0.584 -1.417,1.186 -2.106,1.799 -0.018,0.015 -0.033,0.03 -0.051,0.045 l -0.239,0.485 -7.163,14.51 0.002,0 -7.958,16.12 -0.002,-0.002 -5.35,10.844 c 0.368,0.934 1.298,2.236 1.298,2.236 l 0,6.753 6.506,0 0,-6.197 c 0,0 -0.853,-1.192 -1.191,-2.05 l 4.914,-9.961 0,0.002 7.305,-14.797 6.574,-13.321 0.221,-0.444 c 0.19,-0.17 0.377,-0.346 0.57,-0.513 l 0.085,-0.075 c 0.552,-0.477 1.112,-0.943 1.683,-1.402 0.783,-0.629 1.583,-1.237 2.396,-1.83 0.225,-0.162 0.451,-0.322 0.676,-0.481 0.757,-0.536 1.521,-1.061 2.299,-1.563 0.179,-0.116 0.357,-0.226 0.537,-0.337 0.73,-0.463 1.472,-0.913 2.223,-1.349 0.203,-0.116 0.402,-0.234 0.606,-0.351 0.809,-0.459 1.63,-0.898 2.46,-1.326 0.232,-0.12 0.466,-0.241 0.7,-0.357 0.93,-0.467 1.865,-0.921 2.814,-1.347 l 0.145,-0.062 c 0.896,-0.4 1.803,-0.778 2.716,-1.144 0.267,-0.108 0.54,-0.216 0.809,-0.32 0.838,-0.325 1.68,-0.637 2.529,-0.932 0.29,-0.104 0.578,-0.197 0.869,-0.297 0.793,-0.268 1.59,-0.522 2.393,-0.766 0.204,-0.063 0.407,-0.128 0.614,-0.189 0.916,-0.271 1.841,-0.52 2.767,-0.761 0.247,-0.064 0.495,-0.131 0.742,-0.192 0.998,-0.249 1.999,-0.482 3.007,-0.698 0.2,-0.042 0.399,-0.082 0.601,-0.124 0.855,-0.175 1.712,-0.34 2.571,-0.492 0.273,-0.048 0.545,-0.098 0.817,-0.145 0.922,-0.154 1.845,-0.297 2.771,-0.426 0.264,-0.035 0.528,-0.072 0.792,-0.107 1.013,-0.133 2.027,-0.256 3.045,-0.355 l 0.149,-0.017 c 1.036,-0.103 2.077,-0.185 3.117,-0.257 0.172,-0.012 0.345,-0.025 0.515,-0.036 1.054,-0.068 2.105,-0.116 3.16,-0.153 0.243,-0.008 0.486,-0.015 0.73,-0.021 0.888,-0.024 1.776,-0.039 2.664,-0.044 0.151,0 0.304,-0.002 0.455,-0.002 0.153,0 0.305,0.002 0.457,0.002 0.89,0.005 1.776,0.02 2.664,0.044 0.242,0.006 0.487,0.013 0.729,0.021 1.057,0.037 2.108,0.085 3.16,0.153 0.172,0.011 0.345,0.024 0.518,0.036 1.041,0.072 2.08,0.154 3.118,0.257 l 0.144,0.015 c 1.021,0.102 2.034,0.225 3.049,0.357 0.264,0.035 0.526,0.072 0.79,0.107 0.926,0.129 1.85,0.271 2.769,0.426 0.276,0.047 0.548,0.097 0.822,0.145 0.858,0.152 1.712,0.317 2.563,0.492 0.202,0.041 0.407,0.082 0.607,0.124 1.006,0.216 2.008,0.449 3.002,0.697 0.252,0.063 0.503,0.131 0.753,0.193 0.924,0.241 1.843,0.49 2.756,0.76 0.212,0.063 0.42,0.131 0.631,0.195 0.797,0.24 1.591,0.495 2.379,0.761 0.29,0.1 0.58,0.193 0.871,0.295 0.845,0.295 1.683,0.606 2.516,0.93 0.281,0.108 0.562,0.22 0.841,0.33 0.89,0.359 1.776,0.729 2.651,1.118 l 0.199,0.088 c 0.946,0.425 1.881,0.875 2.808,1.34 0.232,0.116 0.461,0.233 0.691,0.354 0.832,0.43 1.657,0.871 2.471,1.332 0.199,0.114 0.395,0.23 0.593,0.345 0.757,0.438 1.504,0.89 2.241,1.356 0.174,0.11 0.35,0.217 0.522,0.33 0.782,0.505 1.55,1.029 2.306,1.567 0.224,0.157 0.447,0.317 0.67,0.477 0.815,0.596 1.62,1.204 2.403,1.835 0.568,0.457 1.127,0.922 1.679,1.398 l 0.088,0.078 c 0.194,0.169 0.381,0.344 0.569,0.514 l 0.221,0.442 6.574,13.321 6.572,13.317 5.646,11.438 c -0.312,0.789 -1.057,1.859 -1.173,2.027 l -0.019,0.022 0,6.197 6.508,0 0,-6.753 c -0.002,0.004 0.926,-1.298 1.292,-2.232 z"
             id="path4218" />
        </g>
        <path
           style="fill:#696a6c"
           inkscape:connector-curvature="0"
           d="m 382.967,492.821 c -0.3,-0.983 -1.188,-3.678 -2.118,-4.462 -1.106,-0.935 -5.816,-2.234 -6.4,-2.393 -0.039,-0.011 -0.06,-0.017 -0.06,-0.017 l -0.624,0.008 -6.227,-11.033 -7.952,-14.092 0.002,0 -8.834,-15.655 -0.002,0 -7.95,-14.095 -0.003,0.001 -7.069,-12.528 0.002,0 -6.475,-11.472 0,-0.373 -0.211,0 -2.151,-3.813 -0.002,0 -6.483,-11.479 0.03,0 0.096,-0.102 0.234,-0.248 3.794,-4.021 0,-13.616 -12.696,0 -5.707,-12.383 -3.188,-7.019 c -0.908,-2.022 -1.835,-4.084 -2.891,-6.519 l -0.89,-2.073 -0.69,-1.683 c -0.398,-1.04 -0.804,-2.232 -1.193,-3.411 -0.658,-2.005 -1.311,-4.097 -2.098,-6.705 -1.945,-6.501 -2.924,-9.948 -4.756,-16.464 -1.693,-6.052 -2.635,-9.491 -4.383,-15.946 l -0.002,0 -0.562,-2.069 -0.375,-1.645 8.167,-2.063 0,-2.435 0,-5.483 -10.91,-2.354 c -1.069,-4.974 -1.763,-8.307 -2.818,-13.613 -1.274,-6.51 -1.936,-10.001 -2.996,-16.547 -0.171,-1.088 -0.322,-2.091 -0.459,-3.032 -0.195,-1.361 -0.359,-2.628 -0.523,-3.94 -0.273,-2.177 -0.53,-4.387 -0.834,-7.114 -0.745,-6.814 -1.104,-10.382 -1.745,-17.089 -0.559,-5.978 -0.88,-9.501 -1.322,-15.477 -0.428,-6.072 -0.625,-9.634 -0.967,-15.661 l -0.89,-16.637 -0.777,-15.408 -0.836,-17.164 -0.791,-16.701 -0.687,-14.825 -0.745,-16.346 -0.596,-13.252 0.119,0.105 6.03,-8.414 0,-5.364 -2.91,0.081 0,-2.56 0.312,0 1.116,0 0,-7.938 -0.01,-0.071 c -0.008,-0.06 -0.141,-1.081 -0.651,-2.441 -0.512,-1.357 -1.404,-3.071 -2.991,-4.45 -1.604,-1.383 -3.876,-2.619 -5.78,-3.555 -1.146,-0.562 -2.147,-1.001 -2.771,-1.266 l -1.637,-32.37 -2.229,0 -1.634,32.37 c -0.623,0.265 -1.624,0.704 -2.771,1.266 -1.904,0.936 -4.176,2.172 -5.781,3.555 -1.586,1.379 -2.478,3.093 -2.99,4.45 -0.511,1.36 -0.644,2.382 -0.652,2.441 l -0.009,0.07 0,7.939 1.428,0 0,2.56 -2.91,-0.081 0,5.364 5.972,8.331 0.181,-0.134 -0.601,13.428 -0.737,16.165 -0.744,16.005 -0.739,15.64 -0.797,16.36 -0.817,16.213 -0.891,16.637 c -0.337,5.915 -0.531,9.451 -0.94,15.32 -0.457,6.202 -0.782,9.749 -1.354,15.874 -0.639,6.704 -0.999,10.27 -1.751,17.132 l 0.001,0 c -0.299,2.682 -0.555,4.864 -0.822,7.015 -0.164,1.313 -0.328,2.579 -0.523,3.94 -0.137,0.941 -0.29,1.948 -0.462,3.035 -1.06,6.558 -1.722,10.047 -3,16.58 -1.051,5.286 -1.745,8.618 -2.812,13.577 l -10.91,2.354 0,5.483 0,2.435 8.167,2.063 -0.375,1.645 -0.562,2.069 -0.002,0 c -1.748,6.455 -2.69,9.892 -4.381,15.939 -1.836,6.531 -2.815,9.978 -4.768,16.504 -0.782,2.594 -1.432,4.675 -2.088,6.672 -0.39,1.179 -0.795,2.371 -1.191,3.411 l -0.692,1.683 -0.848,1.98 c -1.074,2.476 -2.015,4.563 -2.933,6.611 l -3.285,7.228 -5.612,12.174 -12.693,0 0,13.622 4.054,4.215 0.115,0.12 -6.503,11.508 -0.597,1.055 -0.287,0.511 -7.951,14.092 -7.07,12.528 -7.952,14.094 -7.952,14.09 -8.834,15.657 -6.227,11.033 -0.623,-0.008 c 0,0 -5.276,1.412 -6.459,2.409 -1.143,0.965 -2.227,4.824 -2.227,4.824 l 0,2.894 10.492,0 9.031,0 3.775,0 6.553,0 2.82,0 3.257,0 3.106,0 3.83,0 3.606,0 2.128,0 0,-6.753 c 0,0 -0.93,-1.303 -1.298,-2.236 l 5.35,-10.844 0.002,0.002 7.958,-16.12 -0.002,0 7.163,-14.51 0.239,-0.485 c 0.017,-0.015 0.034,-0.03 0.05,-0.045 0.69,-0.613 1.39,-1.215 2.107,-1.799 0.128,-0.104 0.253,-0.215 0.382,-0.318 0.857,-0.69 1.735,-1.355 2.625,-2.004 0.239,-0.174 0.482,-0.345 0.724,-0.516 0.161,-0.114 0.32,-0.231 0.483,-0.345 0.665,-0.463 1.337,-0.916 2.018,-1.356 0.201,-0.13 0.406,-0.255 0.608,-0.383 0.787,-0.498 1.585,-0.981 2.393,-1.449 0.228,-0.133 0.454,-0.268 0.683,-0.397 0.747,-0.422 1.5,-0.833 2.262,-1.23 0.141,-0.074 0.284,-0.145 0.426,-0.218 0.246,-0.126 0.491,-0.253 0.738,-0.377 1.011,-0.507 2.031,-0.999 3.065,-1.464 0.069,-0.031 0.14,-0.06 0.209,-0.091 0.955,-0.426 1.921,-0.828 2.893,-1.219 0.308,-0.123 0.616,-0.245 0.925,-0.365 0.074,-0.028 0.147,-0.059 0.221,-0.087 0.831,-0.32 1.667,-0.626 2.509,-0.921 0.32,-0.111 0.642,-0.219 0.964,-0.327 0.847,-0.285 1.699,-0.559 2.555,-0.818 0.241,-0.073 0.479,-0.15 0.721,-0.222 0.735,-0.217 1.475,-0.422 2.216,-0.621 0.257,-0.069 0.516,-0.135 0.775,-0.201 0.275,-0.071 0.55,-0.146 0.827,-0.215 1.083,-0.271 2.169,-0.524 3.262,-0.758 0.222,-0.047 0.444,-0.09 0.666,-0.136 0.935,-0.193 1.874,-0.373 2.815,-0.54 0.282,-0.05 0.563,-0.102 0.845,-0.149 0.003,0 0.007,-10e-4 0.011,-0.002 1.004,-0.169 2.012,-0.323 3.021,-0.464 0.291,-0.041 0.583,-0.08 0.874,-0.119 1.128,-0.147 2.258,-0.283 3.392,-0.396 0.013,-0.002 0.026,-0.003 0.04,-0.005 0.699,-0.069 1.398,-0.127 2.099,-0.183 0.434,-0.035 0.869,-0.066 1.304,-0.097 0.206,-0.014 0.411,-0.032 0.617,-0.045 1.135,-0.072 2.273,-0.126 3.411,-0.165 0.278,-0.01 0.556,-0.017 0.834,-0.024 0.944,-0.026 1.889,-0.041 2.834,-0.045 0.18,-10e-4 0.36,-0.004 0.541,-0.004 0.18,0 0.359,0.003 0.539,0.004 0.946,0.004 1.891,0.019 2.835,0.045 0.278,0.008 0.556,0.015 0.833,0.024 1.139,0.039 2.276,0.093 3.412,0.165 0.206,0.013 0.411,0.031 0.617,0.045 0.435,0.03 0.87,0.062 1.304,0.097 0.7,0.056 1.4,0.113 2.099,0.183 0.013,0.002 0.025,0.003 0.037,0.005 1.135,0.112 2.266,0.249 3.395,0.396 0.291,0.039 0.583,0.078 0.874,0.119 1.008,0.141 2.015,0.294 3.017,0.464 0.006,0.001 0.011,0.001 0.016,0.002 0.283,0.048 0.564,0.1 0.847,0.149 0.941,0.167 1.879,0.347 2.813,0.54 0.222,0.046 0.444,0.089 0.666,0.136 1.092,0.233 2.179,0.487 3.261,0.758 0.277,0.069 0.554,0.144 0.83,0.215 0.258,0.067 0.517,0.132 0.773,0.201 0.741,0.199 1.481,0.404 2.218,0.621 0.238,0.07 0.475,0.147 0.713,0.22 0.859,0.261 1.714,0.535 2.564,0.821 0.32,0.107 0.64,0.215 0.958,0.326 0.846,0.295 1.685,0.603 2.519,0.924 0.073,0.027 0.146,0.058 0.219,0.086 0.306,0.119 0.611,0.239 0.916,0.362 0.974,0.391 1.942,0.794 2.898,1.221 0.068,0.03 0.138,0.059 0.206,0.089 1.034,0.465 2.054,0.957 3.064,1.465 0.248,0.124 0.494,0.251 0.74,0.378 0.145,0.074 0.29,0.146 0.435,0.222 0.759,0.396 1.51,0.806 2.254,1.227 0.229,0.13 0.453,0.264 0.681,0.396 0.808,0.469 1.606,0.952 2.394,1.45 0.202,0.128 0.406,0.252 0.605,0.381 0.67,0.434 1.331,0.879 1.985,1.333 0.168,0.117 0.333,0.238 0.499,0.356 0.254,0.18 0.508,0.357 0.758,0.541 0.879,0.64 1.745,1.296 2.592,1.977 0.157,0.127 0.31,0.26 0.466,0.389 0.685,0.559 1.355,1.135 2.016,1.721 0.026,0.023 0.053,0.048 0.079,0.071 l 0.238,0.482 7.161,14.51 7.162,14.508 6.146,12.454 0.001,0.002 c -0.367,0.935 -1.296,2.234 -1.296,2.234 l 0,6.753 2.124,0 3.608,0 3.828,0 3.106,0 3.26,0 2.82,0 6.552,0 3.774,0 9.033,0 10.491,0 0,-2.894 c 0.003,-0.002 -0.035,-0.138 -0.104,-0.364 z m -19.801,-18.779 c -4.945,0.255 -7.43,0.32 -12.41,0.329 2.75,-4.191 4.08,-6.327 6.646,-10.677 l 5.764,10.348 z M 331.32,421.276 c -2.287,4.128 -3.474,6.154 -5.936,10.138 -4.677,-0.21 -7.019,-0.372 -11.716,-0.81 7.256,-3.356 10.789,-5.224 17.652,-9.328 z m -18.456,7.712 c 2.542,-3.779 3.773,-5.711 6.145,-9.643 4.585,0.258 6.873,0.325 11.432,0.355 -5.693,3.406 -11.555,6.503 -17.577,9.288 z m 13.712,4.675 c 4.621,0.197 6.967,0.241 11.497,0.212 -5.819,3.367 -11.738,6.495 -17.798,9.407 2.574,-3.726 3.857,-5.689 6.301,-9.619 z m 12.564,1.783 c -2.387,4.187 -3.623,6.245 -6.188,10.282 -4.779,-0.155 -7.181,-0.292 -11.983,-0.679 7.469,-3.453 11.106,-5.379 18.171,-9.603 z m -5.001,12.532 c 4.725,0.143 7.119,0.159 11.741,0.071 -5.985,3.458 -12.067,6.675 -18.297,9.671 2.675,-3.77 4.015,-5.761 6.556,-9.742 z m 12.824,1.641 c -2.487,4.246 -3.777,6.336 -6.447,10.427 -4.884,-0.098 -7.334,-0.209 -12.244,-0.548 6.4,-2.962 12.635,-6.255 18.691,-9.879 z m -5.257,12.677 c 4.823,0.09 7.27,0.075 11.986,-0.07 -6.146,3.555 -12.399,6.858 -18.799,9.934 2.777,-3.815 4.17,-5.827 6.813,-9.864 z m 13.079,1.496 c -2.59,4.307 -3.93,6.423 -6.704,10.57 -4.988,-0.045 -7.49,-0.13 -12.509,-0.416 6.58,-3.046 12.989,-6.433 19.213,-10.154 z m 0.505,-3.89 c -4.845,0.195 -7.277,0.232 -12.152,0.185 2.646,-4.134 3.921,-6.244 6.386,-10.533 l 5.766,10.348 z m -7.876,-14.141 c -4.743,0.135 -7.125,0.14 -11.9,0.037 2.543,-4.077 3.772,-6.156 6.137,-10.384 l 5.763,10.347 z m -7.876,-14.137 c -4.643,0.072 -6.975,0.049 -11.645,-0.11 2.44,-4.023 3.616,-6.07 5.88,-10.235 l 5.765,10.345 z m -22.995,-12.428 c -2.396,3.895 -3.634,5.806 -6.2,9.555 l -5.303,-10.592 c 4.61,0.523 6.91,0.731 11.503,1.037 z m -7.825,13.079 c -0.263,0.054 -0.528,0.1 -0.789,0.156 -0.443,-1.598 -0.945,-3.199 -1.503,-4.799 l 1.714,3.472 0.578,1.171 z m -5.437,-7.508 c -2.201,-1.069 -4.444,-2.04 -6.715,-2.929 l 0.003,-0.007 c 0.221,0.087 0.44,0.178 0.661,0.267 l 3.938,-3.939 1.148,1.148 2.695,5.46 -1.73,0 z m 0.63,1.483 c -1.659,0.46 -3.284,0.968 -4.876,1.521 -0.643,-1.558 -1.339,-3.111 -2.088,-4.659 2.36,0.947 4.686,1.991 6.964,3.138 z m -17.693,-7.823 -1.688,-1.688 6.607,-6.607 0,9.755 c -1.505,-0.489 -3.021,-0.933 -4.544,-1.352 l 0.003,-0.01 c -0.125,-0.033 -0.252,-0.064 -0.378,-0.098 z m -1.803,0.614 c -1.511,0.81 -2.986,1.651 -4.427,2.522 -0.95,-1.39 -1.943,-2.769 -2.979,-4.131 2.484,0.448 4.954,0.987 7.406,1.609 z m -8.562,-2.876 c -0.202,-0.034 -0.402,-0.073 -0.604,-0.106 l -0.001,0.009 c -0.054,-0.009 -0.107,-0.018 -0.161,-0.026 l 0,-5.908 6.608,6.607 -0.642,0.425 c -1.549,-0.338 -3.104,-0.635 -4.663,-0.905 l 0.001,-0.008 c -0.18,-0.033 -0.36,-0.058 -0.538,-0.088 z m 29.711,-1.624 c 2.435,-3.729 3.613,-5.637 5.879,-9.511 4.479,0.311 6.717,0.41 11.169,0.502 -5.519,3.303 -11.207,6.308 -17.048,9.009 z m 17.933,-7.438 c -2.186,4.066 -3.318,6.066 -5.676,9.993 -4.572,-0.265 -6.864,-0.454 -11.455,-0.939 7.041,-3.258 10.471,-5.073 17.131,-9.054 z m -29.806,-5.325 0.008,0.021 0.002,0.002 0.12,0.291 c 0.103,0.268 0.235,0.519 0.365,0.768 l 0.001,0.002 0.224,0.44 0.282,0.565 -1.55,1.55 0,-4.974 0.267,0.65 -0.003,0.002 0.284,0.683 z m 1.941,3.987 0.322,0.652 0.145,0.293 -1.412,0 0.945,-0.945 z m 1.518,3.076 0.645,1.306 1.758,3.561 -4.866,-4.866 2.463,0 z m 0.647,-5.158 c 4.502,0.574 6.75,0.807 11.239,1.166 -2.291,3.841 -3.477,5.728 -5.937,9.428 l -5.302,-10.594 z m 12.458,-0.903 c -4.468,-0.319 -6.707,-0.535 -11.189,-1.072 6.826,-3.157 10.151,-4.917 16.609,-8.776 -2.083,4.002 -3.168,5.977 -5.42,9.848 z m -10.692,-3.806 c -0.498,0.185 -1.008,0.371 -1.546,0.564 0.07,-0.137 0.126,-0.299 0.206,-0.407 l 0.232,-0.313 0.445,-0.605 0.821,-1.123 1.474,-2.056 c 0.779,-1.1 1.555,-2.23 2.483,-3.604 l 6.805,-0.004 1.748,0.222 1.379,0.159 0.746,0.083 0.388,0.044 c 0.106,0.011 0.201,-0.013 0.299,-0.03 -5.093,2.507 -10.188,5.02 -15.48,7.07 z m -3.953,-0.006 -3.069,-7.533 8.53,-0.005 c -1.919,2.781 -3.179,4.517 -5.461,7.538 z m -4.472,6.449 -6.607,-6.607 5.678,-5.678 0.505,1.265 0.425,1.058 0,9.962 z m -14.51,1.293 6.485,-6.483 6.484,6.483 -12.969,0 z m 12.967,2.131 -6.481,6.481 -6.483,-6.481 12.964,0 z m -6.482,-11.452 -5.949,-5.945 11.903,-0.007 -5.954,5.952 z m -1.419,1.42 -6.608,6.607 0,-13.216 6.608,6.609 z m 12.645,23.3 c -1.591,0.647 -3.146,1.334 -4.668,2.059 -0.808,-1.478 -1.664,-2.946 -2.567,-4.404 2.436,0.69 4.852,1.466 7.235,2.345 z m -2.182,-1.875 c 0.329,0.11 0.658,0.219 0.986,0.334 l 0,-10.436 6.607,6.607 -4.568,4.569 c -1.002,-0.374 -2.011,-0.733 -3.025,-1.074 z m 12.965,5.462 0,0 c -0.283,-0.146 -0.565,-0.291 -0.85,-0.434 0.285,0.143 0.567,0.288 0.85,0.434 z m 26.538,-8.211 c -4.544,0.01 -6.823,-0.044 -11.389,-0.26 2.337,-3.964 3.462,-5.984 5.625,-10.089 l 5.764,10.349 z m -7.875,-14.141 c -4.441,-0.053 -6.672,-0.135 -11.135,-0.404 2.232,-3.91 3.309,-5.9 5.37,-9.942 l 5.765,10.346 z m -14.941,-29.911 -9.525,0 c 2.205,-3.432 3.342,-5.285 5.471,-8.923 l 4.054,8.923 z m -65.358,-69.696 -0.302,-0.503 -0.291,-0.45 c -0.097,-0.136 -0.199,-0.229 -0.299,-0.344 l -0.581,-0.643 -1.129,-1.262 -2.53,-2.896 c 0.005,-0.003 0.01,-0.005 0.015,-0.008 l 7.562,0 -0.116,0.679 -0.938,5.296 -0.303,1.385 -0.743,-0.856 -0.345,-0.398 z m 0.161,5.52 -2.585,11.622 c -2.578,-2.887 -3.837,-4.361 -6.301,-7.374 3.579,-1.602 5.357,-2.452 8.886,-4.248 z m -4.555,-7.694 c 0.256,0.286 0.508,0.572 0.745,0.932 l 0.306,0.45 0.325,0.389 0.681,0.807 1.546,1.808 c -4.979,-0.92 -9.899,-2.104 -14.754,-3.547 l 2.195,-0.896 0.968,-0.407 0.465,-0.197 0.443,-0.133 c 0.332,-0.09 0.672,-0.252 1.021,-0.426 l 1.068,-0.523 2.432,-1.232 1.776,2.074 0.783,0.901 z m -7.321,-2.845 -1.526,0.714 -0.781,0.354 c -0.132,0.057 -0.271,0.133 -0.401,0.169 l -0.396,0.075 -0.439,0.067 -0.487,0.196 -1.049,0.417 0.28,-1.055 0.451,-2.023 6.568,0 c -0.805,0.401 -1.528,0.755 -2.22,1.086 z m 10.537,8.998 c -3.52,1.763 -5.293,2.598 -8.862,4.165 -2.441,-3.038 -3.636,-4.587 -5.965,-7.745 5.851,1.745 8.819,2.463 14.827,3.58 z m -3.318,13.957 c -5.053,-1.083 -10.042,-2.331 -15.011,-3.754 3.517,-1.31 5.327,-2.04 8.858,-3.569 2.413,2.996 3.674,4.495 6.153,7.323 z m 1.101,3.468 c -1.07,4.653 -1.612,6.977 -2.739,11.649 -2.643,-2.967 -3.939,-4.474 -6.48,-7.547 3.711,-1.535 5.557,-2.357 9.219,-4.102 z m -1.384,-1.567 c -3.654,1.71 -5.494,2.516 -9.196,4.015 -2.521,-3.093 -3.758,-4.667 -6.171,-7.878 6.061,1.869 9.138,2.645 15.367,3.863 z m -3.514,13.966 c -5.219,-1.209 -10.365,-2.592 -15.491,-4.15 3.636,-1.199 5.514,-1.885 9.173,-3.337 2.483,3.052 3.782,4.584 6.318,7.487 z m 1.1,3.543 c -0.593,2.352 -1.058,4.128 -1.554,5.939 -0.251,0.908 -0.511,1.821 -0.818,2.854 -0.158,0.522 -0.324,1.062 -0.53,1.687 l -0.643,1.847 c -1.19,-1.685 -2.042,-3.121 -2.973,-4.363 -0.926,-1.263 -1.861,-2.488 -3.126,-4.101 3.888,-1.39 5.816,-2.184 9.644,-3.863 z m -1.413,-1.622 c -3.809,1.638 -5.728,2.407 -9.589,3.759 -2.538,-3.198 -3.799,-4.801 -6.268,-8.07 6.251,2.054 9.422,2.928 15.857,4.311 z m -4.442,14.512 c -5.246,-1.847 -10.385,-3.882 -15.491,-6.081 3.847,-0.7 5.761,-0.953 9.614,-2.236 2.466,3.173 3.584,5.07 5.877,8.317 z m -0.548,1.898 c -4.093,1.162 -6.137,1.644 -10.229,2.517 -2.278,-3.505 -3.379,-5.298 -5.563,-8.861 6.182,2.863 9.337,4.149 15.792,6.344 z m -5.351,13.521 c -5.499,-1.992 -10.88,-4.272 -16.137,-6.833 4.11,-0.617 6.169,-0.979 10.278,-1.822 2.278,3.523 3.45,5.258 5.859,8.655 z m -0.668,1.688 c -4.203,1.001 -6.309,1.446 -10.519,2.225 -2.348,-3.581 -3.484,-5.406 -5.689,-9.108 6.336,3.094 9.579,4.473 16.208,6.883 z m 1.309,1.822 -0.214,0.531 -1.979,0 c 0.679,-0.162 1.39,-0.334 2.193,-0.531 z m -4.291,-12.635 c 4.109,-0.906 6.162,-1.408 10.269,-2.59 -1.73,4.522 -2.604,6.727 -4.36,11.167 -2.434,-3.368 -3.613,-5.086 -5.909,-8.577 z m 7.294,12.312 0.007,10e-4 0.319,-0.823 0.341,-0.859 -0.006,-0.002 2.638,-6.773 c 0.813,-2.118 1.618,-4.21 2.61,-6.89 l 10e-4,0 0.069,-0.193 c 0.19,-0.511 0.382,-1.035 0.587,-1.593 l -0.006,-10e-4 0.279,-0.762 c 0.294,-0.828 0.59,-1.66 0.894,-2.608 0.546,-1.726 0.927,-3.115 1.307,-4.518 0.612,-2.297 1.179,-4.539 1.837,-7.261 l 0.004,0.002 c 0.114,-0.483 0.226,-0.944 0.334,-1.395 0.031,-0.135 0.061,-0.259 0.094,-0.393 l -10e-4,0 c 1.293,-5.425 2.06,-8.824 3.261,-14.203 l 0.002,0 c 0.081,-0.369 0.157,-0.72 0.233,-1.068 0.054,-0.232 0.104,-0.46 0.157,-0.7 l -0.001,0 c 0.571,-2.588 1.037,-4.714 1.495,-6.823 l 20.96,0 c 0.458,2.11 0.924,4.237 1.496,6.823 0.049,0.221 0.095,0.429 0.141,0.643 0.082,0.367 0.165,0.738 0.251,1.126 l 0.002,0 c 1.199,5.379 1.966,8.778 3.259,14.201 l -0.001,0.002 c 0.12,0.511 0.238,1 0.354,1.478 0.025,0.104 0.048,0.203 0.075,0.31 0.658,2.72 1.223,4.962 1.839,7.259 0.38,1.402 0.761,2.792 1.307,4.516 0.306,0.95 0.6,1.782 0.894,2.61 l 0.277,0.762 -0.002,10e-4 c 0.203,0.558 0.396,1.082 0.583,1.593 l 0.071,0.193 c 0.993,2.68 1.799,4.771 2.611,6.89 l 2.635,6.773 -0.003,0.002 0.229,0.574 0.432,1.11 0.005,-0.003 0.338,0.854 -54.545,0 0.337,-0.855 z m 28.288,-66.887 5.902,-5.897 0.127,0.756 0.573,3.3 0,8.446 -6.602,-6.605 z m 5.185,8.022 -13.204,0 6.603,-6.604 6.601,6.604 z m -6.601,-9.437 -6.603,-6.602 13.204,0 -6.601,6.602 z m -1.419,1.415 -6.6,6.604 0,-7.799 0.084,-0.396 0.618,-3.552 0.108,-0.646 5.79,5.789 z m 36.94,52.695 c -4.095,-0.873 -6.137,-1.353 -10.228,-2.515 6.451,-2.196 9.605,-3.484 15.791,-6.349 -2.184,3.566 -3.285,5.359 -5.563,8.864 z m 0.98,2.35 c 4.109,0.843 6.168,1.205 10.276,1.822 -5.257,2.561 -10.64,4.841 -16.138,6.835 2.412,-3.398 3.584,-5.134 5.862,-8.657 z m -11.757,-6.762 c 2.293,-3.249 3.41,-5.146 5.879,-8.319 3.85,1.283 5.766,1.536 9.612,2.236 -5.108,2.199 -10.245,4.234 -15.491,6.083 z m -2.31,-0.566 -0.643,-1.847 c -0.205,-0.625 -0.373,-1.164 -0.531,-1.687 -0.31,-1.032 -0.567,-1.945 -0.816,-2.854 -0.498,-1.812 -0.963,-3.586 -1.556,-5.939 3.827,1.68 5.756,2.472 9.644,3.861 -1.263,1.611 -2.2,2.839 -3.124,4.102 -0.933,1.241 -1.784,2.679 -2.974,4.364 z m 7.456,-10.189 c -3.861,-1.352 -5.78,-2.121 -9.587,-3.759 6.431,-1.382 9.604,-2.258 15.854,-4.312 -2.467,3.27 -3.729,4.873 -6.267,8.071 z m -9.9,-5.68 c 2.534,-2.9 3.833,-4.435 6.316,-7.487 3.661,1.452 5.537,2.138 9.176,3.335 -5.127,1.56 -10.273,2.945 -15.492,4.152 z m -2.16,-0.749 c -1.127,-4.673 -1.669,-6.997 -2.739,-11.651 3.663,1.745 5.508,2.566 9.22,4.103 -2.542,3.072 -3.84,4.581 -6.481,7.548 z m 7.839,-9.203 c -3.699,-1.499 -5.538,-2.303 -9.192,-4.013 6.228,-1.219 9.302,-1.999 15.365,-3.868 -2.415,3.211 -3.65,4.789 -6.173,7.881 z m -9.478,-5.915 c 2.479,-2.826 3.738,-4.327 6.152,-7.323 3.532,1.529 5.341,2.26 8.858,3.569 -4.968,1.423 -9.955,2.671 -15.01,3.754 z m -2.07,-0.794 -2.587,-11.621 c 3.528,1.795 5.308,2.643 8.888,4.245 -2.466,3.015 -3.725,4.49 -6.301,7.376 z m 7.616,-8.998 c -3.569,-1.567 -5.342,-2.4 -8.861,-4.164 6.003,-1.116 8.972,-1.838 14.826,-3.582 -2.33,3.157 -3.523,4.708 -5.965,7.746 z m 5.707,-11.586 -0.487,-0.196 -0.439,-0.069 -0.396,-0.075 c -0.131,-0.036 -0.271,-0.112 -0.403,-0.168 l -0.781,-0.354 -1.524,-0.714 c -0.693,-0.331 -1.418,-0.686 -2.223,-1.086 l 6.569,0 0.451,2.023 0.28,1.055 -1.047,-0.416 z m -5.293,0.047 c 0.349,0.174 0.692,0.336 1.021,0.426 l 0.443,0.133 0.467,0.197 0.968,0.406 2.193,0.896 c -4.854,1.44 -9.773,2.626 -14.751,3.545 l 1.544,-1.804 0.678,-0.808 0.325,-0.388 0.306,-0.45 c 0.238,-0.36 0.489,-0.646 0.745,-0.934 l 0.783,-0.901 1.775,-2.075 2.434,1.232 1.069,0.525 z m -7.855,0.196 -1.129,1.262 -0.581,0.643 c -0.099,0.114 -0.201,0.208 -0.299,0.344 l -0.29,0.449 -0.302,0.503 -0.346,0.398 -0.743,0.855 -0.303,-1.383 -0.938,-5.298 -0.115,-0.679 7.562,0 c 0.005,0.003 0.01,0.005 0.015,0.008 l -2.531,2.898 z m 9.726,57.139 c 4.108,1.184 6.159,1.684 10.272,2.59 -2.299,3.491 -3.477,5.213 -5.908,8.581 -1.757,-4.44 -2.632,-6.646 -4.364,-11.171 z m 8.171,15.756 -1.978,0 -0.214,-0.531 c 0.802,0.197 1.513,0.369 2.192,0.531 z m -0.883,-2.353 c 6.627,-2.407 9.871,-3.789 16.208,-6.884 -2.207,3.704 -3.342,5.527 -5.688,9.108 -4.211,-0.778 -6.317,-1.223 -10.52,-2.224 z m 11.918,-21.197 c 1.847,4.246 2.813,6.4 4.733,10.689 -4.101,-0.581 -6.149,-0.927 -10.243,-1.733 2.26,-3.543 3.352,-5.349 5.51,-8.956 z m -3.355,-8.649 c 0.259,0.793 0.519,1.579 0.797,2.378 l 0.43,1.173 0.519,1.295 c -1.961,-0.322 -3.36,-0.429 -4.816,-0.787 -1.447,-0.336 -2.901,-0.757 -4.836,-1.377 2.514,-3.228 3.769,-4.839 6.221,-8.133 0.662,2.215 1.17,3.857 1.685,5.451 z m -2.889,-9.537 c -3.748,-1.208 -5.616,-1.876 -9.324,-3.318 2.51,-3.128 3.739,-4.72 6.143,-7.962 1.253,4.53 1.886,6.792 3.181,11.28 z m -4.326,-15.44 c -3.622,-1.318 -5.424,-2.028 -9.001,-3.547 2.43,-3.071 3.617,-4.64 5.938,-7.828 l 3.063,11.375 z m -7.593,-31.106 -0.393,0 c -3.011,-1.45 -4.66,-2.304 -7.753,-4.006 2.391,-2.862 3.563,-4.319 5.865,-7.274 0.888,4.522 1.356,6.83 2.281,11.28 z m -25.044,-44.314 c 0.015,-0.262 0.028,-0.526 0.041,-0.779 0.013,0.253 0.028,0.518 0.042,0.78 0.004,0.117 0.012,0.227 0.018,0.342 0.025,0.477 0.052,0.965 0.079,1.475 l 0.001,0 c 0.055,0.996 0.108,1.914 0.161,2.806 l -0.271,0.271 -0.327,-0.326 c 0.052,-0.875 0.104,-1.774 0.158,-2.75 l 0.002,0 0.012,-0.222 c 0.03,-0.515 0.056,-1.043 0.088,-1.596 l -0.004,0 z m 0.07,7.455 0.479,0.479 c 0.026,0.397 0.053,0.795 0.08,1.189 0.096,1.362 0.198,2.768 0.332,4.292 l -1.838,0 c 0.134,-1.524 0.236,-2.93 0.332,-4.292 0.025,-0.374 0.05,-0.751 0.075,-1.127 l 0.54,-0.541 z m 6.84,25.24 c 2.434,-2.674 3.629,-4.043 5.982,-6.815 3.093,1.906 4.66,2.806 7.824,4.507 -4.56,1.008 -9.163,1.783 -13.806,2.308 z m 14.141,-0.56 c -2.313,2.927 -3.488,4.369 -5.891,7.203 -3.229,-1.836 -4.828,-2.802 -7.987,-4.841 5.6,-0.647 8.378,-1.128 13.878,-2.362 z m -8.547,-8.77 c -3.057,-1.933 -4.57,-2.953 -7.53,-5.117 4.925,-0.342 8.483,-0.837 13.322,-1.803 -2.282,2.779 -3.44,4.178 -5.792,6.92 z m -7.761,-6.965 c 2.416,-2.604 3.608,-3.933 5.995,-6.565 2.87,2.083 4.337,3.038 7.315,4.853 -5.288,0.959 -7.951,1.313 -13.31,1.712 z m -5.899,-50.968 c -1.881,-1.925 -2.999,-3.11 -4.995,-5.298 2.046,-2.027 3.184,-3.198 4.938,-5.093 0.005,3.697 0.013,6.596 0.057,10.391 z m -4.595,-21.496 c 1.891,-1.998 2.962,-3.17 4.557,-4.999 l -0.017,9.987 c -1.666,-1.754 -2.719,-2.915 -4.54,-4.988 z m 0.326,-16.19 c 1.785,-2.006 2.795,-3.181 4.299,-5.011 l -0.049,9.918 c -1.547,-1.711 -2.544,-2.866 -4.25,-4.907 z m 4.361,43.173 c 0.056,2.513 0.116,4.634 0.19,6.838 -0.053,1.389 -0.114,2.857 -0.19,4.675 -2.341,-2.382 -3.491,-3.602 -5.755,-6.085 2.365,-2.119 3.615,-3.289 5.755,-5.428 z m -4.071,-59.365 c 1.708,-2.042 2.659,-3.22 4.109,-5.1 l -0.064,10.039 c -1.482,-1.733 -2.425,-2.888 -4.045,-4.939 z m 0.266,-16.192 c 1.646,-2.104 2.546,-3.292 3.971,-5.266 l -0.081,10.312 c -1.449,-1.798 -2.34,-2.955 -3.89,-5.046 z m 0.247,-16.192 c 1.599,-2.186 2.447,-3.391 3.868,-5.5 l -0.097,10.719 c -1.432,-1.895 -2.275,-3.066 -3.771,-5.219 z m 9.916,-17.472 c -1.604,-2.338 -2.385,-3.531 -3.899,-5.944 2.782,0.129 4.808,0.093 7.582,-0.133 -1.426,2.463 -2.166,3.684 -3.683,6.077 z m 0.045,2.543 c 1.623,2.342 2.457,3.492 4.165,5.744 -3.244,0.229 -4.871,0.259 -8.12,0.148 1.624,-2.315 2.416,-3.494 3.955,-5.892 z M 256.464,94.78 c 1.511,-2.317 2.245,-3.496 3.665,-5.891 1.506,2.344 2.278,3.497 3.868,5.758 -3.01,0.212 -4.518,0.238 -7.533,0.133 z m 3.082,9.036 c -1.445,2.238 -2.241,3.419 -3.68,5.459 l -0.109,-11.276 c 1.441,2.311 2.227,3.521 3.789,5.817 z m 0.234,16.191 c -1.494,2.152 -2.339,3.323 -3.771,5.219 l -0.096,-10.718 c 1.422,2.11 2.268,3.315 3.867,5.499 z m -3.409,69.756 -0.019,-9.989 c 1.597,1.829 2.668,3.001 4.559,5.001 -1.82,2.072 -2.876,3.235 -4.54,4.988 z m 0.001,6.113 c 1.756,1.895 2.892,3.066 4.939,5.094 -1.998,2.188 -3.116,3.374 -4.997,5.299 0.044,-3.797 0.054,-6.696 0.058,-10.393 z m -0.037,-22.384 -0.049,-9.921 c 1.504,1.832 2.515,3.005 4.299,5.011 -1.704,2.04 -2.703,3.198 -4.25,4.91 z m -0.112,38.263 c 2.142,2.139 3.392,3.308 5.757,5.425 -2.262,2.486 -3.414,3.707 -5.757,6.089 -0.076,-1.813 -0.136,-3.279 -0.188,-4.667 0.071,-2.206 0.132,-4.331 0.188,-6.847 z m -0.164,-80.82 c 1.425,1.972 2.324,3.162 3.971,5.265 -1.553,2.092 -2.44,3.25 -3.891,5.048 l -0.08,-10.313 z m 0.125,16.356 c 1.452,1.88 2.403,3.059 4.111,5.101 -1.619,2.051 -2.563,3.207 -4.043,4.939 l -0.068,-10.04 z m -1.038,117.35 2.282,2.285 c 0.152,1.195 0.312,2.403 0.483,3.681 l -5.59,0 c 0.169,-1.254 0.326,-2.441 0.476,-3.615 l 2.349,-2.351 z m -1.989,-0.568 c 0.049,-0.416 0.099,-0.838 0.149,-1.271 l 0.561,0.561 -0.71,0.71 z m 3.27,-0.71 0.508,-0.508 c 0.046,0.392 0.091,0.773 0.136,1.151 l -0.644,-0.643 z m 0.608,-23.821 c -0.269,-4.769 -0.391,-7.145 -0.617,-11.908 2.588,2.369 3.905,3.514 6.58,5.726 -2.344,2.526 -3.536,3.763 -5.963,6.182 z m -0.503,19.752 0.005,0 c 0.048,0.439 0.093,0.845 0.139,1.26 l -1.529,1.529 -1.581,-1.58 c 0.044,-0.399 0.087,-0.788 0.133,-1.21 l 0.005,0 c 0.062,-0.569 0.116,-1.111 0.17,-1.642 l 0.023,-0.209 -0.002,0 c 0.046,-0.452 0.088,-0.887 0.13,-1.318 l 2.184,0 c 0.096,0.996 0.202,2.039 0.323,3.17 z M 253.2,239.543 c -2.424,-2.42 -3.618,-3.659 -5.959,-6.184 2.673,-2.213 3.989,-3.357 6.576,-5.728 -0.225,4.765 -0.347,7.144 -0.617,11.912 z m -1.208,16.488 c -2.43,-2.579 -3.637,-3.903 -6.037,-6.497 2.842,-2.149 4.238,-3.278 6.982,-5.614 -0.315,4.776 -0.455,7.188 -0.945,12.111 z m -0.12,17.865 c 0.07,-0.508 0.136,-0.983 0.201,-1.461 l 6.088,0 c 0.065,0.478 0.13,0.953 0.2,1.461 l -10e-4,0 c 0.037,0.271 0.073,0.527 0.112,0.789 0.013,0.095 0.026,0.193 0.04,0.288 l -3.422,3.422 -3.374,-3.373 c 0.052,-0.367 0.104,-0.739 0.159,-1.126 l -0.003,0 z m 6.372,-17.867 c -0.491,-4.921 -0.628,-7.331 -0.945,-12.109 2.745,2.334 4.14,3.463 6.98,5.614 -2.398,2.591 -3.605,3.917 -6.035,6.495 z m 7.324,-7.888 c -2.824,-2.115 -4.217,-3.23 -6.938,-5.52 4.718,-0.089 8.142,-0.378 12.811,-1.066 -2.306,2.673 -3.487,3.993 -5.873,6.586 z m -7.079,-7.347 c 2.42,-2.451 3.612,-3.701 5.95,-6.256 2.695,2.171 4.063,3.218 6.841,5.218 -5.093,0.684 -7.653,0.897 -12.791,1.038 z m 5.761,-8.793 c -2.663,-2.178 -3.978,-3.312 -6.547,-5.64 4.507,-0.016 7.775,-0.24 12.241,-0.828 -2.229,2.631 -3.374,3.931 -5.694,6.468 z m -6.655,-7.461 c 2.339,-2.411 3.486,-3.645 5.744,-6.158 2.546,2.219 3.843,3.287 6.475,5.349 -4.871,0.577 -7.316,0.743 -12.219,0.809 z m 5.593,-8.696 c -2.511,-2.228 -3.747,-3.382 -6.152,-5.779 4.287,0.077 7.405,-0.077 11.669,-0.546 -2.169,2.553 -3.274,3.833 -5.517,6.325 z m -6.221,-7.627 c 2.279,-2.366 3.403,-3.559 5.61,-6.007 2.366,2.287 3.572,3.398 6.035,5.523 -4.648,0.436 -6.977,0.537 -11.645,0.484 z m 5.525,-8.55 c -2.338,-2.292 -3.488,-3.477 -5.729,-5.892 4.072,0.144 7.037,0.058 11.095,-0.316 -2.103,2.528 -3.176,3.775 -5.366,6.208 z m -5.764,-7.713 c 2.191,-2.318 3.267,-3.503 5.375,-5.93 2.234,2.312 3.369,3.438 5.688,5.621 -4.419,0.356 -6.633,0.42 -11.063,0.309 z m 5.31,-8.473 c -2.206,-2.309 -3.292,-3.5 -5.403,-5.92 3.854,0.154 6.663,0.087 10.508,-0.252 -1.993,2.514 -3.018,3.755 -5.105,6.172 z m -5.432,-7.736 c 2.084,-2.312 3.104,-3.492 5.104,-5.908 2.108,2.321 3.181,3.453 5.372,5.658 -4.184,0.321 -6.28,0.37 -10.476,0.25 z m 5.045,-8.453 c -2.081,-2.319 -3.105,-3.511 -5.097,-5.931 3.643,0.152 6.294,0.095 9.927,-0.218 -1.884,2.504 -2.854,3.739 -4.83,6.149 z m -5.116,-7.745 c 1.973,-2.31 2.936,-3.489 4.82,-5.899 1.985,2.329 2.998,3.464 5.065,5.684 -3.948,0.294 -5.928,0.337 -9.885,0.215 z m 4.767,-8.443 c -1.961,-2.326 -2.922,-3.518 -4.795,-5.938 3.427,0.148 5.922,0.098 9.341,-0.19 -1.773,2.491 -2.684,3.724 -4.546,6.128 z m -4.811,-7.752 c 1.856,-2.309 2.766,-3.487 4.532,-5.893 1.865,2.333 2.818,3.474 4.767,5.705 -3.715,0.272 -5.576,0.31 -9.299,0.188 z m 4.485,-8.436 c -1.845,-2.33 -2.744,-3.524 -4.497,-5.943 3.214,0.145 5.554,0.099 8.758,-0.169 -1.66,2.484 -2.512,3.712 -4.261,6.112 z m -4.507,-7.755 c 1.74,-2.312 2.589,-3.49 4.243,-5.892 1.745,2.337 2.636,3.482 4.466,5.726 -3.48,0.25 -5.223,0.283 -8.709,0.166 z m 4.195,-8.437 c -1.722,-2.334 -2.563,-3.526 -4.195,-5.943 2.996,0.138 5.18,0.098 8.17,-0.15 -1.544,2.473 -2.34,3.698 -3.975,6.093 z m 0.571,-14.937 c 1.521,-2.416 2.259,-3.643 3.691,-6.134 l 0.473,11.83 c -1.707,-2.233 -2.539,-3.374 -4.164,-5.696 z m -0.347,-16.189 c 1.405,-2.41 2.088,-3.634 3.403,-6.113 l 0.464,11.83 c -1.59,-2.243 -2.362,-3.389 -3.867,-5.717 z m -0.801,-1.253 c -1.485,-2.346 -2.207,-3.539 -3.606,-5.959 2.808,0.101 4.207,0.077 7.01,-0.117 -1.32,2.464 -2.001,3.682 -3.404,6.076 z m -0.76,1.28 c -1.408,2.352 -2.142,3.525 -3.619,5.773 l -0.031,-3.13 0.044,-8.642 c 1.398,2.436 2.121,3.637 3.606,5.999 z m -8.639,16.191 c 1.562,-2.296 2.349,-3.504 3.79,-5.815 l -0.108,11.274 c -1.44,-2.04 -2.234,-3.221 -3.682,-5.459 z m 3.836,-10.417 c -1.474,-2.248 -2.211,-3.423 -3.617,-5.774 1.487,-2.36 2.21,-3.562 3.608,-5.996 l 0.042,8.615 -0.033,3.155 z m -0.753,1.381 c -3.016,0.105 -4.521,0.079 -7.531,-0.133 1.588,-2.262 2.363,-3.414 3.868,-5.758 1.421,2.395 2.154,3.573 3.663,5.891 z m -3.622,-8.435 c -1.405,-2.395 -2.083,-3.611 -3.403,-6.076 2.803,0.194 4.204,0.217 7.01,0.116 -1.4,2.42 -2.12,3.615 -3.607,5.96 z m -0.802,1.253 c -1.503,2.328 -2.276,3.472 -3.865,5.716 l 0.465,-11.831 c 1.318,2.479 1.996,3.704 3.4,6.115 z m 4.418,8.992 c -1.515,2.413 -2.295,3.606 -3.897,5.944 -1.519,-2.394 -2.258,-3.613 -3.686,-6.077 2.776,0.226 4.799,0.262 7.583,0.133 z m 0.011,14.38 c -3.253,0.111 -4.876,0.08 -8.12,-0.149 1.708,-2.252 2.54,-3.401 4.165,-5.743 1.537,2.398 2.328,3.578 3.955,5.892 z m -0.01,1.811 c -1.632,2.416 -2.474,3.61 -4.195,5.943 -1.633,-2.396 -2.432,-3.62 -3.974,-6.094 2.991,0.248 5.173,0.288 8.169,0.151 z m 0.002,14.38 c -3.486,0.117 -5.229,0.084 -8.709,-0.166 1.829,-2.243 2.721,-3.389 4.464,-5.726 1.655,2.401 2.502,3.58 4.245,5.892 z m -0.012,1.811 c -1.751,2.419 -2.652,3.613 -4.494,5.943 -1.75,-2.399 -2.603,-3.628 -4.262,-6.112 3.206,0.268 5.545,0.314 8.756,0.169 z m -0.012,14.38 c -3.724,0.122 -5.583,0.084 -9.297,-0.188 1.947,-2.231 2.9,-3.372 4.765,-5.705 1.769,2.406 2.675,3.584 4.532,5.893 z m -0.015,1.815 c -1.873,2.419 -2.834,3.612 -4.795,5.938 -1.864,-2.404 -2.773,-3.635 -4.546,-6.128 3.42,0.287 5.913,0.338 9.341,0.19 z m -0.028,14.379 c -3.959,0.123 -5.937,0.08 -9.886,-0.214 2.067,-2.22 3.08,-3.355 5.066,-5.685 1.885,2.411 2.849,3.591 4.82,5.899 z m -0.018,1.816 c -1.993,2.42 -3.015,3.611 -5.098,5.931 -1.976,-2.411 -2.945,-3.644 -4.83,-6.147 3.633,0.311 6.284,0.368 9.928,0.216 z m -0.055,14.383 c -4.193,0.12 -6.292,0.071 -10.474,-0.25 2.191,-2.205 3.266,-3.337 5.372,-5.658 1.999,2.415 3.018,3.596 5.102,5.908 z m -0.025,1.816 c -2.114,2.42 -3.196,3.611 -5.403,5.92 -2.087,-2.418 -3.111,-3.658 -5.106,-6.172 3.845,0.339 6.653,0.406 10.509,0.252 z m -0.094,14.393 c -4.431,0.11 -6.646,0.048 -11.063,-0.309 2.318,-2.184 3.455,-3.31 5.687,-5.621 2.108,2.427 3.18,3.611 5.376,5.93 z m -0.035,1.821 c -2.243,2.414 -3.394,3.6 -5.729,5.892 -2.188,-2.433 -3.267,-3.679 -5.364,-6.208 4.056,0.374 7.02,0.459 11.093,0.316 z m -0.204,14.443 c -4.667,0.052 -6.996,-0.05 -11.645,-0.485 2.462,-2.124 3.669,-3.235 6.036,-5.522 2.206,2.448 3.329,3.64 5.609,6.007 z m -0.069,1.847 c -2.404,2.397 -3.644,3.552 -6.154,5.779 -2.244,-2.492 -3.348,-3.772 -5.515,-6.325 4.264,0.469 7.381,0.623 11.669,0.546 z m -0.559,14.473 c -4.902,-0.064 -7.348,-0.228 -12.217,-0.807 2.632,-2.061 3.928,-3.131 6.473,-5.35 2.257,2.514 3.405,3.745 5.744,6.157 z m -0.11,1.824 c -2.569,2.328 -3.883,3.462 -6.546,5.64 -2.322,-2.537 -3.465,-3.838 -5.696,-6.468 4.468,0.588 7.738,0.813 12.242,0.828 z m -0.785,14.431 c -5.138,-0.142 -7.698,-0.352 -12.791,-1.036 2.778,-2.001 4.146,-3.048 6.844,-5.219 2.338,2.555 3.527,3.805 5.947,6.255 z m -0.14,1.829 c -2.723,2.289 -4.114,3.404 -6.937,5.52 -2.385,-2.593 -3.569,-3.913 -5.873,-6.586 4.67,0.688 8.093,0.978 12.81,1.066 z m -1.19,14.617 c -5.362,-0.4 -8.023,-0.757 -13.309,-1.715 2.978,-1.814 4.445,-2.77 7.315,-4.851 2.386,2.631 3.576,3.961 5.994,6.566 z m -0.232,1.845 c -2.958,2.162 -4.474,3.185 -7.526,5.117 -2.354,-2.741 -3.512,-4.141 -5.796,-6.92 4.84,0.967 8.398,1.462 13.322,1.803 z m -1.934,14.448 c -4.641,-0.524 -9.244,-1.3 -13.805,-2.309 3.161,-1.701 4.729,-2.601 7.821,-4.507 2.356,2.773 3.549,4.14 5.984,6.816 z m -0.264,1.8 c -3.159,2.038 -4.757,3.008 -7.987,4.844 -2.401,-2.834 -3.578,-4.276 -5.889,-7.2 5.498,1.233 8.277,1.708 13.876,2.356 z m -6.327,9.819 -6.678,0 c 1.402,-0.725 2.73,-1.446 4.567,-2.472 0.807,0.953 1.477,1.738 2.111,2.472 z m -0.367,-3.46 c 3.237,-1.868 4.841,-2.848 8.007,-4.919 -0.516,3.439 -0.855,5.634 -1.294,8.379 l -3.698,0 c -0.914,-1.026 -1.82,-2.068 -3.015,-3.46 z m 2.63,-16.013 c 3.074,-1.97 4.596,-3.005 7.584,-5.21 -0.577,4.814 -0.898,7.198 -1.569,11.954 -2.448,-2.647 -3.649,-4.002 -6.015,-6.744 z m 7.474,11.583 2.413,2.413 -3.246,3.246 c 0.271,-1.792 0.538,-3.6 0.833,-5.659 z m 3.694,3.694 4.195,4.196 -8.392,0 4.197,-4.196 z m 1.278,-1.281 2.462,-2.462 c 0.303,2.104 0.573,3.946 0.851,5.774 l -3.313,-3.312 z m 2.36,-19.206 c 2.99,2.208 4.508,3.238 7.584,5.208 -2.368,2.744 -3.567,4.099 -6.013,6.746 -0.672,-4.755 -0.995,-7.139 -1.571,-11.954 z m 10.214,21.223 c -1.195,1.393 -2.101,2.435 -3.015,3.46 l -3.698,0 c -0.438,-2.745 -0.777,-4.939 -1.296,-8.379 3.17,2.071 4.771,3.051 8.009,4.919 z m 1.745,0.988 c 1.838,1.026 3.165,1.747 4.568,2.472 l -6.681,0 c 0.635,-0.734 1.305,-1.519 2.113,-2.472 z m 4.324,-24.472 c 0.75,4.564 1.165,6.861 2.023,11.452 -3.158,-1.67 -4.722,-2.555 -7.807,-4.433 2.347,-2.779 3.501,-4.192 5.784,-7.019 z m -0.647,-4.165 c -2.964,-1.783 -4.417,-2.716 -7.272,-4.781 2.382,-2.628 3.559,-3.956 5.873,-6.671 0.513,4.657 0.752,6.969 1.399,11.452 z m -1.847,-15.729 c -2.772,-1.976 -4.139,-3.01 -6.829,-5.152 2.323,-2.573 3.464,-3.884 5.702,-6.557 0.429,4.688 0.655,7.033 1.127,11.709 z m -2.454,-27.697 c 0.343,4.66 0.539,7.008 0.942,11.692 -2.627,-2.03 -3.92,-3.087 -6.46,-5.276 2.246,-2.528 3.345,-3.821 5.518,-6.416 z m -0.935,-16.016 0.651,11.757 c -2.457,-2.104 -3.663,-3.203 -6.024,-5.467 2.189,-2.465 3.266,-3.723 5.373,-6.29 z m -0.783,-16.133 0.565,11.808 c -2.315,-2.159 -3.451,-3.273 -5.681,-5.561 2.09,-2.449 3.114,-3.698 5.116,-6.247 z m -0.73,-16.153 0.53,11.818 c -2.19,-2.182 -3.262,-3.301 -5.369,-5.6 1.979,-2.438 2.947,-3.683 4.839,-6.218 z m -0.7,-16.162 0.51,11.825 c -2.069,-2.197 -3.082,-3.322 -5.064,-5.629 1.865,-2.431 2.776,-3.672 4.554,-6.196 z m -0.183,-4.336 c -1.947,-2.211 -2.902,-3.344 -4.765,-5.655 1.752,-2.426 2.604,-3.66 4.267,-6.174 l 0.498,11.829 z m -1.159,-27.995 0.483,11.829 c -1.826,-2.222 -2.719,-3.359 -4.462,-5.676 1.636,-2.421 2.43,-3.652 3.979,-6.153 z M 242.397,58.435 c 0.036,-0.223 0.183,-1.017 0.559,-1.985 0.431,-1.114 1.163,-2.44 2.321,-3.441 1.305,-1.137 3.483,-2.353 5.302,-3.238 0.911,-0.445 1.735,-0.815 2.33,-1.073 0.297,-0.129 0.537,-0.229 0.702,-0.298 0.024,-0.01 0.034,-0.014 0.055,-0.022 l 2.906,0 c 0.021,0.009 0.03,0.013 0.055,0.022 0.575,0.238 2.075,0.877 3.729,1.719 1.65,0.838 3.464,1.898 4.604,2.891 1.198,1.033 1.939,2.413 2.364,3.548 0.212,0.565 0.347,1.065 0.426,1.416 0.04,0.175 0.065,0.313 0.081,0.404 l 0.01,0.058 0,5.557 -0.312,0 -1.116,0 -22.586,0 -1.428,0 0,-5.558 z m 24.014,7.787 0,2.592 -22.586,0 0,-2.592 22.586,0 z m -25.496,7.126 0,-2.353 0.679,0.02 0,0.03 1.092,0 1.14,0.031 0,-0.031 22.586,0 0,0.031 1.13,-0.031 1.103,0 0,-0.031 0.679,-0.019 0,2.353 -4.068,5.676 -0.031,-0.699 c -3.906,0.378 -6.01,0.436 -9.668,0.225 l 0,-0.053 c -0.149,0.01 -0.293,0.018 -0.438,0.027 -0.145,-0.01 -0.286,-0.018 -0.436,-0.027 l -0.001,0.053 c -3.657,0.211 -5.763,0.153 -9.669,-0.225 l -0.031,0.696 -4.067,-5.673 z m 4.396,24.303 c 1.432,2.49 2.17,3.72 3.689,6.136 -1.624,2.322 -2.456,3.464 -4.164,5.697 l 0.475,-11.833 z m -0.651,16.17 c 1.549,2.502 2.344,3.732 3.979,6.153 -1.743,2.317 -2.634,3.454 -4.46,5.677 l 0.481,-11.83 z m -0.661,16.165 c 1.664,2.514 2.517,3.75 4.267,6.175 -1.86,2.313 -2.814,3.446 -4.761,5.656 l 0.494,-11.831 z m -0.679,16.165 c 1.778,2.523 2.689,3.766 4.555,6.197 -1.983,2.307 -2.996,3.434 -5.064,5.63 l 0.509,-11.827 z m -0.7,16.161 c 1.893,2.537 2.86,3.781 4.839,6.219 -2.105,2.299 -3.179,3.422 -5.369,5.603 l 0.53,-11.822 z m -0.729,16.155 c 2.002,2.549 3.025,3.798 5.117,6.247 -2.231,2.288 -3.367,3.403 -5.683,5.563 l 0.566,-11.81 z m -0.784,16.132 c 2.108,2.568 3.182,3.826 5.373,6.291 -2.363,2.263 -3.567,3.363 -6.024,5.467 l 0.651,-11.758 z m -0.935,16.015 c 2.174,2.598 3.274,3.889 5.52,6.415 -2.542,2.19 -3.835,3.248 -6.462,5.279 0.403,-4.684 0.601,-7.033 0.942,-11.694 z m -1.326,15.992 c 2.238,2.672 3.381,3.983 5.703,6.556 -2.691,2.144 -4.058,3.176 -6.832,5.15 0.475,-4.675 0.697,-7.018 1.129,-11.706 z m -1.574,15.983 c 2.313,2.715 3.489,4.041 5.871,6.669 -2.856,2.065 -4.309,3 -7.274,4.783 0.65,-4.482 0.889,-6.792 1.403,-11.452 z m -2.047,15.619 c 2.283,2.828 3.436,4.237 5.783,7.017 -3.085,1.878 -4.648,2.765 -7.805,4.437 0.857,-4.594 1.271,-6.889 2.022,-11.454 z m -2.829,15.661 c 2.303,2.957 3.475,4.414 5.866,7.276 -3.093,1.702 -4.743,2.556 -7.752,4.006 l -0.393,0 c 0.926,-4.45 1.393,-6.758 2.279,-11.282 z m -13.228,19.847 0,-4.379 9.063,-1.955 53.772,0 9.063,1.955 0,4.379 -6.668,1.684 -58.562,0 -6.668,-1.684 z m 6.419,11.166 c 2.318,3.188 3.508,4.755 5.939,7.826 -3.579,1.521 -5.381,2.23 -9.003,3.549 l 3.064,-11.375 z m -4.208,15.533 c 2.406,3.244 3.633,4.834 6.145,7.962 -3.71,1.443 -5.576,2.112 -9.326,3.32 1.294,-4.488 1.927,-6.75 3.181,-11.282 z m -7.296,24.37 0.429,-1.173 c 0.278,-0.799 0.539,-1.585 0.795,-2.378 0.517,-1.594 1.024,-3.236 1.687,-5.451 2.454,3.294 3.711,4.904 6.223,8.132 -1.933,0.621 -3.387,1.042 -4.836,1.378 -1.456,0.358 -2.855,0.465 -4.816,0.787 l 0.518,-1.295 z m -2.132,5.098 c 2.158,3.606 3.251,5.412 5.512,8.956 -4.095,0.807 -6.145,1.154 -10.243,1.735 1.921,-4.288 2.886,-6.443 4.731,-10.691 z m -6.504,14.626 c 2.129,3.638 3.262,5.491 5.469,8.924 l -9.526,0 4.057,-8.924 z m -17.541,21.648 0,-10.491 134.425,0 0,10.497 -2.854,3.025 -128.585,0.072 -2.986,-3.103 z m 82.201,33.735 c -1.071,-1.297 -2.182,-2.582 -3.328,-3.849 2.505,0.232 5.006,0.535 7.496,0.927 -1.423,0.947 -2.813,1.923 -4.168,2.922 z m -4.611,-5.012 c -0.195,-0.016 -0.391,-0.036 -0.586,-0.051 l -0.001,0.008 c -0.121,-0.009 -0.243,-0.018 -0.364,-0.026 l -5.972,-5.97 12.965,0 -6.04,6.04 c 0,0 -10e-4,0 -0.002,-10e-4 z m 0.979,-16.071 6.607,-6.608 0,13.216 -6.607,-6.608 z m 6.607,11.323 0,5.597 c -1.658,-0.239 -3.319,-0.444 -4.983,-0.613 l 4.983,-4.984 z m -1.542,-3.422 -12.969,0 6.485,-6.483 6.484,6.483 z m -6.483,-9.321 -5.938,-5.936 11.881,-0.006 -5.943,5.942 z m -1.419,1.42 -6.607,6.607 0,-13.216 6.607,6.609 z m -2.114,15.817 c -1.498,-0.073 -2.996,-0.125 -4.494,-0.146 l 0,-4.349 4.494,4.495 z m 2.499,1.197 c -1.334,1.066 -2.634,2.155 -3.899,3.265 -1.175,-1.203 -2.385,-2.395 -3.627,-3.563 2.509,0.028 5.019,0.122 7.526,0.298 z m -8.905,-1.354 c -0.192,0 -0.384,-0.005 -0.576,-0.004 l 0,0.007 c -1.333,0.006 -2.666,0.029 -4,0.075 0.023,-0.001 0.047,-0.003 0.07,-0.003 l 4.412,-4.412 0,4.332 c 0.031,0 0.062,-0.002 0.093,-0.002 0.097,0 0.194,0.005 0.291,0.005 -0.097,0 -0.194,0.002 -0.29,0.002 z m -14.602,-5.628 12.965,0 -5.84,5.84 c -0.498,0.028 -0.996,0.062 -1.495,0.097 0.095,-0.007 0.189,-0.018 0.284,-0.023 l -5.914,-5.914 z m -4.556,8.129 c 2.49,-0.392 4.991,-0.694 7.496,-0.927 -1.146,1.267 -2.256,2.552 -3.328,3.849 -1.355,-0.999 -2.744,-1.975 -4.168,-2.922 z m -0.972,-0.912 c -0.2,0.032 -0.399,0.072 -0.599,0.105 -0.181,0.031 -0.363,0.057 -0.544,0.088 l 0.001,0.008 c -1.094,0.19 -2.187,0.396 -3.276,0.62 l -0.211,-0.14 6.608,-6.607 0,5.622 c -0.66,0.097 -1.319,0.204 -1.979,0.313 l 0,-0.009 z m -11.347,2.478 c -0.912,0.251 -1.821,0.514 -2.727,0.789 l 0,-9.192 6.609,6.607 -1.051,1.052 c -0.571,0.14 -1.138,0.293 -1.707,0.442 l -0.002,-0.01 c -0.182,0.048 -0.362,0.103 -0.543,0.151 -0.193,0.052 -0.388,0.098 -0.581,0.15 l 0.002,0.011 z m -9.973,3.302 c -2.271,0.889 -4.513,1.859 -6.715,2.929 l -1.729,0 0.923,-1.87 4.737,-4.738 3.425,3.426 c -0.031,0.013 -0.062,0.025 -0.094,0.037 -0.184,0.07 -0.37,0.135 -0.553,0.207 l 0.006,0.009 z m -0.38,1.275 c -0.749,1.547 -1.446,3.101 -2.087,4.658 -1.592,-0.553 -3.217,-1.06 -4.877,-1.521 2.278,-1.147 4.604,-2.191 6.964,-3.137 z m -7.318,2.146 c -0.286,0.144 -0.571,0.29 -0.856,0.438 l 0,-10e-4 c 0.284,-0.147 0.569,-0.293 0.856,-0.437 z m -18.346,-19.726 c 4.45,-0.091 6.69,-0.192 11.169,-0.503 2.266,3.874 3.443,5.781 5.881,9.511 -5.843,-2.701 -11.528,-5.706 -17.05,-9.008 z m 16.248,10.624 c -4.591,0.483 -6.882,0.675 -11.455,0.939 -2.357,-3.926 -3.494,-5.926 -5.678,-9.993 6.658,3.983 10.088,5.794 17.133,9.054 z m 15.041,-10.74 -2.76,-2.759 c 0.094,-0.184 0.185,-0.37 0.261,-0.566 l 0.111,-0.268 0.014,-0.025 0.059,-0.147 0.232,-0.556 -0.004,-0.002 0.283,-0.693 0.858,-2.132 0.945,-2.355 0,9.503 z m -4.775,1.293 0.145,-0.293 0.923,-1.871 2.164,2.164 -3.232,0 z m 3.231,2.131 -6.483,6.481 -0.669,-0.669 2.227,-4.507 0.644,-1.306 4.281,0 z m -2.741,-9.874 c -2.269,-3.004 -3.529,-4.736 -5.429,-7.485 l 8.48,-0.005 -3.051,7.49 z m -4.112,-1.878 0.821,1.123 0.445,0.604 0.233,0.315 c 0.079,0.104 0.135,0.269 0.203,0.405 -0.598,-0.213 -1.16,-0.42 -1.708,-0.625 -5.235,-2.038 -10.276,-4.525 -15.315,-7.008 0.097,0.019 0.189,0.04 0.296,0.029 l 0.388,-0.042 0.744,-0.083 1.381,-0.161 1.257,-0.159 7.333,-0.005 c 0.913,1.351 1.677,2.464 2.446,3.551 l 1.476,2.056 z m 0.657,4.619 c -4.482,0.535 -6.724,0.754 -11.191,1.072 -2.252,-3.871 -3.337,-5.842 -5.42,-9.848 6.456,3.86 9.783,5.616 16.611,8.776 z m -9.973,3.141 c 4.487,-0.359 6.737,-0.592 11.238,-1.166 l -5.3,10.592 c -2.46,-3.698 -3.648,-5.587 -5.938,-9.426 z m 8.059,11.745 0.021,-0.042 0.188,0.188 -0.553,0.553 0.344,-0.699 0,0 z m 3.045,0.146 6.609,-6.607 0,9.817 c -0.848,0.277 -1.694,0.563 -2.536,0.863 l -4.073,-4.073 z m 10.828,3.023 c -0.903,1.458 -1.76,2.927 -2.567,4.404 -1.521,-0.725 -3.077,-1.411 -4.668,-2.059 2.383,-0.878 4.799,-1.654 7.235,-2.345 z m 5.809,-4.44 -6.481,-6.481 12.965,0 -6.484,6.481 z m -6.483,-8.613 6.483,-6.483 6.485,6.483 -12.968,0 z m 7.901,-7.901 6.608,-6.608 0,13.216 -6.608,-6.608 z m -1.418,-1.42 -5.917,-5.915 11.842,-0.007 -5.925,5.922 z m -1.418,1.42 -6.609,6.607 0,-13.216 6.609,6.609 z m 5.702,18.623 c -1.035,1.362 -2.028,2.741 -2.978,4.131 -1.44,-0.87 -2.916,-1.713 -4.427,-2.522 2.451,-0.622 4.922,-1.161 7.405,-1.609 z m 5.749,-1.95 0,-5.35 4.83,4.83 c -1.613,0.143 -3.223,0.314 -4.83,0.52 z m 9.443,-16.673 6.607,-6.608 0,13.216 -6.607,-6.608 z m 5.065,7.901 -12.967,0 6.483,-6.483 6.484,6.483 z m -6.483,-9.321 -5.929,-5.925 11.862,-0.007 -5.933,5.932 z m -1.419,1.42 -6.606,6.607 0,-13.216 6.606,6.609 z m 8.158,16.716 c -1.242,1.168 -2.452,2.359 -3.627,3.563 -1.266,-1.109 -2.565,-2.198 -3.899,-3.265 2.508,-0.176 5.017,-0.27 7.526,-0.298 z m -61.522,-22.527 c 2.063,4.043 3.136,6.03 5.369,9.94 -4.465,0.271 -6.689,0.354 -11.132,0.406 l 5.763,-10.346 z m -7.878,14.138 c 2.163,4.104 3.29,6.121 5.627,10.087 -4.569,0.218 -6.847,0.271 -11.389,0.262 l 5.762,-10.349 z m 20.858,11.021 -5.303,10.592 c -2.566,-3.749 -3.81,-5.659 -6.204,-9.554 4.593,-0.305 6.897,-0.514 11.507,-1.038 z m -1.389,9.482 c -0.556,1.599 -1.058,3.197 -1.501,4.792 -0.26,-0.057 -0.526,-0.103 -0.788,-0.156 l 0.578,-1.171 1.711,-3.465 z m -47.265,34.587 c 4.716,0.146 7.165,0.16 11.99,0.07 2.643,4.034 4.036,6.049 6.812,9.865 -6.402,-3.075 -12.655,-6.38 -18.802,-9.935 z m 18.122,11.721 c -5.017,0.286 -7.519,0.373 -12.509,0.416 -2.774,-4.147 -4.114,-6.264 -6.704,-10.57 6.224,3.722 12.632,7.109 19.213,10.154 z m -11.39,-24.327 c 6.055,3.621 12.289,6.918 18.693,9.877 -4.91,0.337 -7.362,0.451 -12.247,0.549 -2.669,-4.091 -3.959,-6.177 -6.446,-10.426 z m 1.082,-1.571 c 4.622,0.088 7.019,0.071 11.742,-0.071 2.54,3.982 3.878,5.97 6.555,9.742 -6.227,-2.996 -12.314,-6.213 -18.297,-9.671 z m 6.739,-12.603 c 7.063,4.225 10.703,6.146 18.174,9.604 -4.803,0.386 -7.202,0.525 -11.981,0.679 -2.567,-4.038 -3.806,-6.097 -6.193,-10.283 z m 1.071,-1.568 c 4.529,0.027 6.874,-0.019 11.499,-0.216 2.442,3.933 3.726,5.894 6.303,9.621 -6.061,-2.91 -11.981,-6.04 -17.802,-9.405 z m 6.751,-12.6 c 6.86,4.104 10.396,5.969 17.653,9.326 -4.698,0.436 -7.042,0.6 -11.719,0.81 -2.462,-3.984 -3.65,-6.01 -5.934,-10.136 z m 0.882,-1.575 c 4.555,-0.028 6.844,-0.1 11.429,-0.357 2.373,3.934 3.604,5.863 6.149,9.645 -6.023,-2.784 -11.885,-5.884 -17.578,-9.288 z m -3.335,1.573 c 2.265,4.165 3.438,6.214 5.879,10.237 -4.671,0.159 -6.999,0.183 -11.643,0.109 l 5.764,-10.346 z m -7.876,14.14 c 2.364,4.227 3.589,6.302 6.133,10.381 -4.774,0.104 -7.154,0.1 -11.898,-0.035 l 5.765,-10.346 z m -7.878,14.137 c 2.465,4.289 3.742,6.398 6.39,10.533 -4.877,0.048 -7.308,0.011 -12.152,-0.185 l 5.762,-10.348 z m -7.875,14.142 c 2.566,4.35 3.895,6.484 6.644,10.675 -4.982,-0.008 -7.462,-0.072 -12.408,-0.327 l 5.764,-10.348 z m -12.429,22.311 4.553,-8.174 c 2.082,3.444 3.387,5.531 5.212,8.297 l -9.765,-0.123 z m 12.472,0.157 c -1.837,-2.729 -3.152,-4.795 -5.248,-8.198 4.998,2.989 10.117,5.761 15.343,8.325 l -10.095,-0.127 z m 14.644,0.183 c -6.392,-3.087 -12.641,-6.391 -18.786,-9.942 4.806,0.201 7.307,0.244 12.23,0.209 2.682,3.994 4.13,6.046 6.883,9.737 l -0.327,-0.004 z m 3.522,0.044 -0.321,-0.004 c -2.861,-3.765 -4.319,-5.794 -7.068,-9.809 5.012,-0.091 7.527,-0.195 12.565,-0.522 l -5.176,10.335 z m 7.118,-14.22 c -2.889,-3.894 -4.292,-5.879 -6.999,-9.935 4.906,-0.145 7.369,-0.277 12.302,-0.659 l -5.303,10.594 z m 7.245,-14.474 c -2.782,-3.843 -4.129,-5.809 -6.733,-9.81 4.802,-0.197 7.211,-0.354 12.036,-0.783 l -5.303,10.593 z m 7.243,-14.473 c -2.674,-3.795 -3.969,-5.732 -6.469,-9.683 4.697,-0.25 7.054,-0.433 11.77,-0.909 l -5.301,10.592 z m 3.706,-0.487 1.513,-3.064 c 0.681,0.091 1.36,0.187 2.032,0.298 -1.216,0.879 -2.391,1.811 -3.545,2.766 z m 2.006,-4.065 0.626,-1.269 1.082,1.528 c -0.565,-0.096 -1.137,-0.176 -1.708,-0.259 z m 2.574,-0.342 -0.748,-1.091 -0.65,-0.948 1.484,-3.007 c 0.333,0.065 0.672,0.124 1.003,0.193 -0.425,1.623 -0.788,3.242 -1.089,4.853 z m 1.033,0.199 c 0.308,-1.601 0.678,-3.209 1.109,-4.821 1.628,0.368 3.226,0.787 4.791,1.254 -2.024,1.1 -3.994,2.289 -5.9,3.567 z m 1.394,-5.861 c 0.457,-1.614 0.973,-3.231 1.547,-4.848 l 1.845,3.469 1.416,2.662 c -1.57,-0.475 -3.173,-0.905 -4.808,-1.283 z m 5.747,0.792 -1.639,-3.183 -1.54,-2.991 c 1.654,0.449 3.275,0.947 4.863,1.489 -0.617,1.561 -1.179,3.124 -1.684,4.685 z m 1.003,0.327 c 0.51,-1.553 1.077,-3.106 1.699,-4.656 1.573,0.562 3.113,1.166 4.618,1.81 -2.148,0.86 -4.258,1.808 -6.317,2.846 z m 2.108,-5.653 c 0.646,-1.548 1.347,-3.093 2.099,-4.63 l 1.001,2.558 1.53,3.909 c -1.509,-0.652 -3.052,-1.265 -4.63,-1.837 z m 5.623,1.455 -2.452,-6.497 c 1.588,0.638 3.141,1.315 4.659,2.028 -0.786,1.483 -1.523,2.974 -2.207,4.469 z m 0.962,0.437 c 0.688,-1.487 1.428,-2.968 2.218,-4.439 1.503,0.73 2.971,1.495 4.405,2.292 -2.237,0.634 -4.449,1.345 -6.623,2.147 z m 2.733,-5.386 c 0.811,-1.469 1.67,-2.93 2.575,-4.379 l 0.584,2.129 1.254,4.567 c -1.436,-0.804 -2.907,-1.579 -4.413,-2.317 z m 5.445,2.041 -1.764,-6.717 c 1.509,0.799 2.983,1.635 4.422,2.497 -0.932,1.396 -1.819,2.801 -2.658,4.22 z m 0.914,0.533 c 0.843,-1.407 1.731,-2.807 2.664,-4.193 1.424,0.875 2.813,1.778 4.168,2.71 -2.296,0.415 -4.575,0.912 -6.832,1.483 z m 3.271,-5.086 c 0.952,-1.382 1.947,-2.749 2.983,-4.104 l 1.19,6.842 c -1.356,-0.939 -2.747,-1.854 -4.173,-2.738 z m 5.036,1.371 -0.927,-5.664 c 1.423,0.939 2.811,1.904 4.165,2.896 -1.055,1.305 -2.07,2.626 -3.043,3.957 l -0.195,-1.189 z m 1.058,1.805 c 0.975,-1.326 1.992,-2.636 3.047,-3.932 1.339,1.001 2.645,2.024 3.916,3.07 -2.331,0.218 -4.655,0.499 -6.963,0.862 z m 3.733,-4.764 c 1.072,-1.291 2.183,-2.566 3.331,-3.824 l 0.005,0.058 0.583,6.861 c -1.273,-1.055 -2.58,-2.088 -3.919,-3.095 z m 4.466,-3.895 -10e-4,-0.021 c 1.333,1.061 2.633,2.141 3.898,3.241 -1.16,1.212 -2.286,2.441 -3.374,3.684 l -0.523,-6.904 z m 1.332,7.592 c 1.089,-1.236 2.215,-2.457 3.376,-3.659 1.251,1.11 2.47,2.234 3.656,3.382 -2.348,0.026 -4.694,0.114 -7.032,0.277 z m 4.128,-4.433 c 1.176,-1.198 2.386,-2.377 3.628,-3.54 l 0.016,3.7 0.014,3.244 c -1.187,-1.152 -2.406,-2.289 -3.658,-3.404 z m 4.734,3.405 0.014,-3.244 0.016,-3.7 c 1.242,1.163 2.452,2.342 3.628,3.54 -1.252,1.114 -2.472,2.251 -3.658,3.404 z m 0.753,0.75 c 1.186,-1.147 2.405,-2.271 3.657,-3.382 1.16,1.203 2.287,2.423 3.376,3.659 -2.338,-0.162 -4.685,-0.25 -7.033,-0.277 z m 4.467,-4.094 c 1.266,-1.101 2.564,-2.181 3.898,-3.241 l -0.002,0.021 -0.522,6.903 c -1.089,-1.242 -2.214,-2.471 -3.374,-3.683 z m 4.885,-1.404 0.148,-1.746 c 1.147,1.258 2.258,2.533 3.33,3.824 -1.34,1.008 -2.646,2.04 -3.919,3.095 l 0.441,-5.173 z m 0.248,5.982 c 1.271,-1.046 2.577,-2.069 3.916,-3.07 1.056,1.296 2.072,2.605 3.048,3.932 -2.309,-0.364 -4.632,-0.645 -6.964,-0.862 z m 7.827,0.244 c -0.974,-1.331 -1.989,-2.652 -3.044,-3.957 1.354,-0.991 2.742,-1.956 4.165,-2.896 l -0.703,4.298 -0.418,2.555 z m 1.056,0.179 1.19,-6.842 c 1.036,1.355 2.032,2.723 2.983,4.104 -1.425,0.884 -2.817,1.799 -4.173,2.738 z m 0.612,0.865 c 1.355,-0.932 2.744,-1.835 4.168,-2.71 0.933,1.387 1.822,2.785 2.665,4.193 -2.257,-0.571 -4.535,-1.068 -6.833,-1.483 z m 7.747,0.95 c -0.839,-1.419 -1.727,-2.824 -2.657,-4.22 1.438,-0.862 2.913,-1.698 4.422,-2.497 l -1.765,6.717 z m 1.297,-0.692 1.573,-5.728 c 0.905,1.449 1.765,2.91 2.575,4.379 -1.506,0.738 -2.978,1.513 -4.414,2.317 l 0.266,-0.968 z m 0.259,1.889 c 1.434,-0.797 2.901,-1.562 4.404,-2.292 0.79,1.472 1.53,2.952 2.218,4.439 -2.174,-0.801 -4.386,-1.512 -6.622,-2.147 z m 7.585,1.711 c -0.685,-1.495 -1.421,-2.986 -2.207,-4.469 1.518,-0.713 3.07,-1.391 4.658,-2.028 l -1.682,4.458 -0.769,2.039 z m 0.992,0.382 2.531,-6.467 c 0.752,1.537 1.453,3.082 2.1,4.63 -1.578,0.572 -3.121,1.185 -4.631,1.837 z m 0.422,0.969 c 1.505,-0.644 3.044,-1.248 4.617,-1.81 0.623,1.549 1.189,3.104 1.699,4.656 -2.059,-1.037 -4.169,-1.985 -6.316,-2.846 z m 5.634,-2.164 c 1.587,-0.542 3.209,-1.04 4.863,-1.49 l -3.179,6.175 c -0.504,-1.562 -1.066,-3.126 -1.684,-4.685 z m 5.589,-0.399 0.296,-0.557 c 0.574,1.616 1.09,3.233 1.547,4.848 -1.635,0.378 -3.237,0.808 -4.808,1.283 l 2.965,-5.574 z m -2.662,6.584 c 1.564,-0.467 3.162,-0.886 4.79,-1.254 0.431,1.612 0.802,3.221 1.109,4.821 -1.906,-1.277 -3.876,-2.466 -5.899,-3.567 z m 6.932,3.369 c -0.301,-1.61 -0.664,-3.229 -1.088,-4.853 0.332,-0.07 0.67,-0.128 1.004,-0.193 l 1.483,3.005 -0.342,0.499 -1.057,1.542 z m 1.948,-0.928 0.627,1.271 c -0.571,0.083 -1.145,0.163 -1.709,0.26 l 1.082,-1.531 z m -0.912,2.568 c 0.672,-0.111 1.352,-0.207 2.033,-0.299 l 1.514,3.067 c -1.155,-0.954 -2.33,-1.887 -3.547,-2.768 z m 1.95,-7.34 c 4.716,0.478 7.07,0.661 11.769,0.911 -2.5,3.95 -3.792,5.886 -6.468,9.683 l -5.301,-10.594 z m 7.243,14.475 c 4.824,0.428 7.23,0.585 12.034,0.782 -2.606,4.003 -3.949,5.967 -6.733,9.81 l -5.301,-10.592 z m 7.243,14.473 c 4.933,0.382 7.395,0.515 12.304,0.657 -2.71,4.058 -4.111,6.043 -7.002,9.937 l -5.302,-10.594 z m 12.743,24.809 -0.324,0.004 -5.173,-10.337 c 5.04,0.33 7.553,0.435 12.564,0.524 -2.749,4.015 -4.209,6.045 -7.067,9.809 z m 3.204,-0.04 -0.327,0.004 c 2.749,-3.69 4.197,-5.744 6.88,-9.737 4.925,0.035 7.421,-0.01 12.231,-0.211 -6.144,3.553 -12.395,6.855 -18.784,9.944 z m 14.641,-0.183 -10.095,0.127 c 5.226,-2.565 10.345,-5.337 15.343,-8.327 -2.096,3.404 -3.412,5.47 -5.248,8.2 z m 2.707,-0.034 c 1.826,-2.765 3.131,-4.851 5.212,-8.296 l 4.552,8.173 -9.764,0.123 z"
           id="path4220" />
      </g>
      <path
         d="m 137.53061,679.06016 c 0,-18.47314 0.21475,-48.97534 1.07402,-55.20465 9.45137,0 20.6212,1.28884 27.70971,4.7257 10.95501,5.37009 17.39912,16.1103 17.39912,29.21335 0,32.43539 -25.99127,40.16835 -33.7242,42.10158 l -0.64445,5.3701 c 7.73296,-1.07402 30.93179,-6.87371 45.10886,-21.05078 8.59216,-8.59217 14.82147,-19.54716 14.82147,-34.15386 0,-5.37009 -1.93321,-18.47314 -21.05079,-26.42089 -10.52538,-4.29607 -28.35412,-6.22932 -51.76776,-6.22932 -9.88097,0 -41.242365,0.21473 -47.686492,0.21473 l 0.644416,4.51087 c 5.155295,0.42962 18.902756,1.50364 22.984036,3.00728 0.85923,7.30331 1.07402,46.39766 1.07402,53.27139 l 0,8.59216 c 0,19.97678 -0.21475,65.73001 -1.07402,75.1814 -5.58492,1.07403 -19.547178,2.57764 -22.769226,3.00726 l -0.859226,4.51088 c 6.014522,-0.42961 26.420892,-0.85923 37.161102,-0.85923 9.88099,0 33.93903,0.42962 41.02756,0.85923 l -1.07402,-4.51088 c -6.65891,-0.64442 -22.12481,-2.14806 -27.28011,-3.00726 -0.85923,-6.22931 -1.07402,-55.84905 -1.07402,-74.10738 l 0,-9.02178 z"
         style="font-style:normal;font-variant:normal;font-weight:bold;font-stretch:normal;font-size:medium;line-height:125%;font-family:'Charlemagne Std';-inkscape-font-specification:'Charlemagne Std, Bold';text-align:start;letter-spacing:0px;word-spacing:0px;writing-mode:lr-tb;text-anchor:start;fill:#808184;fill-opacity:1;stroke:#666666;stroke-width:2.74602032px;stroke-linecap:butt;stroke-linejoin:miter;stroke-opacity:1"
         id="path4247"
         inkscape:connector-curvature="0" />
      <path
         d="m 399.80293,685.365 c 0,22.55441 -0.21473,64.65602 -1.07399,70.88534 -6.01452,1.50361 -19.76198,2.79245 -22.76924,3.00725 l -0.85922,4.51088 c 4.9405,-0.42961 27.49491,-0.85923 36.30189,-0.85923 9.88099,0 31.57619,0.42962 36.94628,0.85923 l -0.85919,-4.51088 c -4.72573,-0.42962 -18.90276,-1.93323 -22.55445,-3.00725 -0.6444,-9.88099 -1.07402,-42.96081 -1.07402,-56.92307 l 0,-5.5849 c 3.65168,0 12.45863,-0.64441 20.62118,-1.28881 3.43686,4.51086 60.57475,70.45568 75.61101,77.32941 l 9.4514,-1.50361 c -22.33962,-23.62843 -56.92308,-79.90711 -59.28593,-85.2772 16.53992,-9.23657 30.28737,-27.06529 30.28737,-40.59796 0,-11.8142 -7.08851,-19.97677 -18.47314,-24.48766 -14.60667,-5.79972 -40.16834,-6.01451 -60.57473,-6.01451 l -46.39767,0.21475 0.64441,4.51089 c 4.72571,0.42961 19.33237,1.71842 22.98405,2.57765 0.8592,4.08127 1.07399,45.32365 1.07399,53.05658 l 0,13.10305 z m 24.05806,-4.94047 c 0,-15.25109 0.42962,-53.70101 1.07402,-62.50799 37.16111,0 49.61974,16.75473 49.61974,30.50218 0,21.2656 -15.25109,31.14658 -24.48766,34.58344 -9.23657,3.43686 -18.47314,4.08128 -26.2061,4.08128 l 0,-6.65891 z"
         style="font-style:normal;font-variant:normal;font-weight:bold;font-stretch:normal;font-size:medium;line-height:125%;font-family:'Charlemagne Std';-inkscape-font-specification:'Charlemagne Std, Bold';text-align:start;letter-spacing:0px;word-spacing:0px;writing-mode:lr-tb;text-anchor:start;fill:#808184;fill-opacity:1;stroke:#666666;stroke-width:2.74602032px;stroke-linecap:butt;stroke-linejoin:miter;stroke-opacity:1"
         id="path4251"
         inkscape:connector-curvature="0" />
      <path
         d="m 585.18886,680.73489 c 0,-26.42089 0.21475,-51.33816 1.07403,-55.63423 7.73296,-0.85922 18.25834,-2.57766 22.55444,-3.00728 l 1.07402,-4.51085 c -3.65168,0.42957 -22.12482,0.8592 -33.07983,0.8592 -16.96953,0 -36.73148,-0.42963 -40.81276,-0.8592 l 1.07402,4.51085 c 4.08128,0.42962 18.25833,2.14806 22.55442,3.00728 0.85921,7.30331 1.07402,47.47168 1.07402,54.56021 l 0,12.67343 c 0,21.0508 -0.21473,60.78954 -1.07402,69.81132 -4.51088,0.85919 -19.11754,2.79245 -22.76923,3.00725 l -0.85921,4.51088 c 6.44411,-0.42961 26.20609,-0.85923 33.50942,-0.85923 13.31785,0 35.65747,0.42962 40.38317,0.85923 l -1.07402,-4.51088 c -4.2961,-0.42962 -17.18432,-1.71844 -22.55444,-3.00725 -0.8592,-4.29611 -1.07403,-40.16835 -1.07403,-68.09288 l 0,-13.31785 z"
         style="font-style:normal;font-variant:normal;font-weight:bold;font-stretch:normal;font-size:medium;line-height:125%;font-family:'Charlemagne Std';-inkscape-font-specification:'Charlemagne Std, Bold';text-align:start;letter-spacing:0px;word-spacing:0px;writing-mode:lr-tb;text-anchor:start;fill:#808184;fill-opacity:1;stroke:#666666;stroke-width:2.74602032px;stroke-linecap:butt;stroke-linejoin:miter;stroke-opacity:1"
         id="path4253"
         inkscape:connector-curvature="0" />
      <path
         d="m 782.98645,730.52194 c 0,-6.01452 0.21474,-20.19156 0.85922,-23.84324 4.72569,-1.07402 16.7547,-2.14803 18.68797,-2.36286 l 1.07399,-4.51087 c -2.57763,0.42962 -23.41361,0.64441 -33.7242,0.64441 -7.51817,0 -24.05806,-0.21475 -35.22788,-0.64441 l 1.28882,4.51087 c 4.08127,0.85925 17.39915,1.93327 21.6952,2.36286 0.64442,3.86648 0.85925,10.5254 0.85925,17.18432 l 0,11.38461 c 0,10.74022 -0.21475,18.04355 -0.64442,21.2656 -9.02178,4.72568 -21.6952,5.5849 -27.28012,5.5849 -46.39766,0 -76.25543,-44.89403 -76.25543,-79.90708 0,-34.36863 24.91725,-62.07837 62.29319,-62.07837 35.01304,0 50.2641,14.17707 55.84902,20.83601 0.85923,4.94047 1.93323,12.4586 2.36284,19.76195 l 4.9405,2.57767 c -0.6444,-19.97678 1.71843,-57.99712 3.00725,-66.37444 l -4.9405,1.07402 c -0.64442,4.51088 -3.00725,16.53987 -3.86645,19.97675 -7.08856,-2.57765 -29.64297,-5.37009 -48.11609,-5.37009 -21.91002,0 -43.60522,4.08127 -63.15238,17.3991 -18.90276,12.88825 -33.93906,34.58347 -33.93906,64.87085 0,26.85046 15.68071,51.12335 42.74601,64.65597 18.04353,9.02177 42.9608,10.31059 56.92306,10.31059 14.60667,0 42.53118,-3.43686 54.98983,-7.08851 -0.42962,-6.01451 -0.42962,-17.39912 -0.42962,-25.34687 l 0,-6.87374 z"
         style="font-style:normal;font-variant:normal;font-weight:bold;font-stretch:normal;font-size:medium;line-height:125%;font-family:'Charlemagne Std';-inkscape-font-specification:'Charlemagne Std, Bold';text-align:start;letter-spacing:0px;word-spacing:0px;writing-mode:lr-tb;text-anchor:start;fill:#808184;fill-opacity:1;stroke:#666666;stroke-width:2.74602032px;stroke-linecap:butt;stroke-linejoin:miter;stroke-opacity:1"
         id="path4255"
         inkscape:connector-curvature="0" />
      <path
         d="m 870.89502,680.73489 c 0,-26.42089 0.21473,-51.33816 1.07399,-55.63423 7.73296,-0.85922 18.25835,-2.57766 22.55445,-3.00728 l 1.07402,-4.51085 c -3.65169,0.42957 -22.12483,0.8592 -33.07983,0.8592 -16.96953,0 -36.73149,-0.42963 -40.81276,-0.8592 l 1.07404,4.51085 c 4.08125,0.42962 18.25831,2.14806 22.55439,3.00728 0.85921,7.30331 1.07404,47.47168 1.07404,54.56021 l 0,12.67343 c 0,21.0508 -0.21475,60.78954 -1.07404,69.81132 -4.51088,0.85919 -19.11754,2.79245 -22.76922,3.00725 l -0.85921,4.51088 c 6.44413,-0.42961 26.20608,-0.85923 33.50942,-0.85923 13.31784,0 35.65746,0.42962 40.38317,0.85923 l -1.07402,-4.51088 c -4.2961,-0.42962 -17.18433,-1.71844 -22.55445,-3.00725 -0.85919,-4.29611 -1.07399,-40.16835 -1.07399,-68.09288 l 0,-13.31785 z"
         style="font-style:normal;font-variant:normal;font-weight:bold;font-stretch:normal;font-size:medium;line-height:125%;font-family:'Charlemagne Std';-inkscape-font-specification:'Charlemagne Std, Bold';text-align:start;letter-spacing:0px;word-spacing:0px;writing-mode:lr-tb;text-anchor:start;fill:#808184;fill-opacity:1;stroke:#666666;stroke-width:2.74602032px;stroke-linecap:butt;stroke-linejoin:miter;stroke-opacity:1"
         id="path4257"
         inkscape:connector-curvature="0" />
    </g>
  </g>
</svg>
